<svg width="52" height="99" viewBox="0 0 52 99" fill="none" xmlns="http://www.w3.org/2000/svg">
<circle cx="24.45" cy="9.45" r="8.95" fill="white" stroke="url(#paint0_angular_245_26)"/>
<circle cx="24.45" cy="9.45" r="8.95" fill="white" stroke="url(#paint1_angular_245_26)"/>
<path d="M30.2478 23.5097C28.2528 21.2341 24.4291 20.9023 22.7667 21.0208C20.2014 21.0208 18.3731 21.969 17.7796 22.443C10.0848 28.4163 3.64841 37.4948 1.39209 41.2874C0.252111 44.1318 1.86708 46.0281 2.81706 46.6207C5.09702 48.0429 7.09198 47.2133 7.80447 46.6207C9.22944 44.914 12.4356 40.6948 13.8606 38.7985C14.4306 37.9452 14.9293 38.0874 15.2856 38.0874C15.5706 38.0874 15.6418 38.5615 15.6418 38.7985L15.9981 56.9317C15.9981 58.9228 15.2856 61.0799 14.9293 61.9095C8.65948 74.9939 4.47952 87.7464 3.17328 92.4871C2.31829 95.9004 4.95449 97.4649 6.37947 97.8204C10.0844 98.6737 11.7231 96.2797 12.0794 94.976C16.0693 79.9005 20.8667 69.9687 22.7667 66.8872C23.0517 66.3184 23.5979 66.1761 23.8354 66.1761C24.4054 66.1761 24.7854 66.8872 24.9041 67.2428L33.8102 93.1982C34.9502 96.3271 38.5601 96.1612 40.2226 95.6871C43.7492 94.244 42.918 91.7552 42.6805 90.3329L33.454 62.9762C32.884 61.8384 32.2665 58.4725 32.029 56.9317L31.3165 40.5763V40.2207C31.3165 39.3674 31.554 39.1541 31.6727 39.1541C32.2427 38.5852 33.5727 39.8652 34.1665 40.5763C39.2964 45.6963 43.6663 47.9244 45.21 48.3985C48.6299 49.5362 50.4349 47.9244 50.9099 46.9762C52.3349 44.4163 50.3161 42.117 49.1287 41.2874C42.0038 37.5896 33.5727 27.8948 30.2478 23.5097Z" fill="white" stroke="url(#paint2_angular_245_26)"/>
<path d="M30.2478 23.5097C28.2528 21.2341 24.4291 20.9023 22.7667 21.0208C20.2014 21.0208 18.3731 21.969 17.7796 22.443C10.0848 28.4163 3.64841 37.4948 1.39209 41.2874C0.252111 44.1318 1.86708 46.0281 2.81706 46.6207C5.09702 48.0429 7.09198 47.2133 7.80447 46.6207C9.22944 44.914 12.4356 40.6948 13.8606 38.7985C14.4306 37.9452 14.9293 38.0874 15.2856 38.0874C15.5706 38.0874 15.6418 38.5615 15.6418 38.7985L15.9981 56.9317C15.9981 58.9228 15.2856 61.0799 14.9293 61.9095C8.65948 74.9939 4.47952 87.7464 3.17328 92.4871C2.31829 95.9004 4.95449 97.4649 6.37947 97.8204C10.0844 98.6737 11.7231 96.2797 12.0794 94.976C16.0693 79.9005 20.8667 69.9687 22.7667 66.8872C23.0517 66.3184 23.5979 66.1761 23.8354 66.1761C24.4054 66.1761 24.7854 66.8872 24.9041 67.2428L33.8102 93.1982C34.9502 96.3271 38.5601 96.1612 40.2226 95.6871C43.7492 94.244 42.918 91.7552 42.6805 90.3329L33.454 62.9762C32.884 61.8384 32.2665 58.4725 32.029 56.9317L31.3165 40.5763V40.2207C31.3165 39.3674 31.554 39.1541 31.6727 39.1541C32.2427 38.5852 33.5727 39.8652 34.1665 40.5763C39.2964 45.6963 43.6663 47.9244 45.21 48.3985C48.6299 49.5362 50.4349 47.9244 50.9099 46.9762C52.3349 44.4163 50.3161 42.117 49.1287 41.2874C42.0038 37.5896 33.5727 27.8948 30.2478 23.5097Z" fill="white" stroke="url(#paint3_angular_245_26)"/>
<defs>
<radialGradient id="paint0_angular_245_26" cx="0" cy="0" r="1" gradientUnits="userSpaceOnUse" gradientTransform="translate(23.7938 13.1441) rotate(83.4956) scale(5.7932 5.75071)">
<stop stop-color="#CDD8F4"/>
<stop offset="0.213542" stop-color="#B5D1FD"/>
<stop offset="0.380208" stop-color="#9A9BAA"/>
<stop offset="0.59375" stop-color="#9BABC3"/>
<stop offset="0.791667" stop-color="#ADBFEB"/>
<stop offset="1" stop-color="#89939F"/>
</radialGradient>
<radialGradient id="paint1_angular_245_26" cx="0" cy="0" r="1" gradientUnits="userSpaceOnUse" gradientTransform="translate(23.7938 13.1441) rotate(83.4956) scale(5.7932 5.75071)">
<stop stop-color="#CDD8F4"/>
<stop offset="0.213542" stop-color="#B5D1FD"/>
<stop offset="0.380208" stop-color="#9A9BAA"/>
<stop offset="0.59375" stop-color="#9BABC3"/>
<stop offset="0.791667" stop-color="#ADBFEB"/>
<stop offset="1" stop-color="#89939F"/>
</radialGradient>
<radialGradient id="paint2_angular_245_26" cx="0" cy="0" r="1" gradientUnits="userSpaceOnUse" gradientTransform="translate(24.45 74.55) rotate(85.7321) scale(23.5152 15.3918)">
<stop stop-color="#CDD8F4"/>
<stop offset="0.213542" stop-color="#B5D1FD"/>
<stop offset="0.380208" stop-color="#9A9BAA"/>
<stop offset="0.59375" stop-color="#9BABC3"/>
<stop offset="0.791667" stop-color="#ADBFEB"/>
<stop offset="1" stop-color="#89939F"/>
</radialGradient>
<radialGradient id="paint3_angular_245_26" cx="0" cy="0" r="1" gradientUnits="userSpaceOnUse" gradientTransform="translate(24.45 74.55) rotate(85.7321) scale(23.5152 15.3918)">
<stop stop-color="#CDD8F4"/>
<stop offset="0.213542" stop-color="#B5D1FD"/>
<stop offset="0.380208" stop-color="#9A9BAA"/>
<stop offset="0.59375" stop-color="#9BABC3"/>
<stop offset="0.791667" stop-color="#ADBFEB"/>
<stop offset="1" stop-color="#89939F"/>
</radialGradient>
</defs>
</svg>
