<svg width="45" height="85" viewBox="0 0 45 85" fill="none" xmlns="http://www.w3.org/2000/svg">
<circle cx="21.1" cy="8.1" r="7.6" fill="black" stroke="url(#paint0_angular_196_395)"/>
<circle cx="21.1" cy="8.1" r="7.6" fill="black" stroke="url(#paint1_angular_196_395)"/>
<path d="M26.0695 20.1511C24.3596 18.2007 21.0821 17.9162 19.6571 18.0178C17.4584 18.0178 15.8912 18.8305 15.3825 19.2369C8.78694 24.3569 3.27007 32.1384 1.33608 35.3892C0.358952 37.8273 1.74321 39.4527 2.55748 39.9606C4.51173 41.1796 6.2217 40.4685 6.8324 39.9606C8.05381 38.4977 10.802 34.8813 12.0234 33.2559C12.5119 32.5244 12.9394 32.6463 13.2448 32.6463C13.4891 32.6463 13.5501 33.0527 13.5501 33.2559L13.8555 48.7986C13.8555 50.5053 13.2448 52.3542 12.9394 53.0653C7.56527 64.2805 3.98245 75.2112 2.86281 79.2747C2.12996 82.2004 4.38957 83.5413 5.61097 83.8461C8.78663 84.5775 10.1912 82.5254 10.4966 81.408C13.9165 68.4861 18.0286 59.9732 19.6571 57.3319C19.9014 56.8443 20.3696 56.7224 20.5732 56.7224C21.0618 56.7224 21.3875 57.3319 21.4893 57.6367L29.123 79.8842C30.1002 82.5661 33.1944 82.4239 34.6194 82.0175C37.6422 80.7806 36.9297 78.6473 36.7261 77.4282L28.8177 53.9796C28.3291 53.0043 27.7998 50.1193 27.5963 48.7986L26.9856 34.7797V34.4749C26.9856 33.7435 27.1891 33.5606 27.2909 33.5606C27.7795 33.073 28.9195 34.1701 29.4284 34.7797C33.8255 39.1682 37.5711 41.078 38.8943 41.4844C41.8257 42.4596 43.3728 41.078 43.7799 40.2654C45.0013 38.0711 43.271 36.1003 42.2531 35.3892C36.1461 32.2197 28.9195 23.9099 26.0695 20.1511Z" fill="black" stroke="url(#paint2_angular_196_395)"/>
<path d="M26.0695 20.1511C24.3596 18.2007 21.0821 17.9162 19.6571 18.0178C17.4584 18.0178 15.8912 18.8305 15.3825 19.2369C8.78694 24.3569 3.27007 32.1384 1.33608 35.3892C0.358952 37.8273 1.74321 39.4527 2.55748 39.9606C4.51173 41.1796 6.2217 40.4685 6.8324 39.9606C8.05381 38.4977 10.802 34.8813 12.0234 33.2559C12.5119 32.5244 12.9394 32.6463 13.2448 32.6463C13.4891 32.6463 13.5501 33.0527 13.5501 33.2559L13.8555 48.7986C13.8555 50.5053 13.2448 52.3542 12.9394 53.0653C7.56527 64.2805 3.98245 75.2112 2.86281 79.2747C2.12996 82.2004 4.38957 83.5413 5.61097 83.8461C8.78663 84.5775 10.1912 82.5254 10.4966 81.408C13.9165 68.4861 18.0286 59.9732 19.6571 57.3319C19.9014 56.8443 20.3696 56.7224 20.5732 56.7224C21.0618 56.7224 21.3875 57.3319 21.4893 57.6367L29.123 79.8842C30.1002 82.5661 33.1944 82.4239 34.6194 82.0175C37.6422 80.7806 36.9297 78.6473 36.7261 77.4282L28.8177 53.9796C28.3291 53.0043 27.7998 50.1193 27.5963 48.7986L26.9856 34.7797V34.4749C26.9856 33.7435 27.1891 33.5606 27.2909 33.5606C27.7795 33.073 28.9195 34.1701 29.4284 34.7797C33.8255 39.1682 37.5711 41.078 38.8943 41.4844C41.8257 42.4596 43.3728 41.078 43.7799 40.2654C45.0013 38.0711 43.271 36.1003 42.2531 35.3892C36.1461 32.2197 28.9195 23.9099 26.0695 20.1511Z" fill="black" stroke="url(#paint3_angular_196_395)"/>
<defs>
<radialGradient id="paint0_angular_196_395" cx="0" cy="0" r="1" gradientUnits="userSpaceOnUse" gradientTransform="translate(20.5375 11.2664) rotate(83.4956) scale(4.9656 4.92918)">
<stop stop-color="#CDD8F4"/>
<stop offset="0.213542" stop-color="#B5D1FD"/>
<stop offset="0.380208" stop-color="#9A9BAA"/>
<stop offset="0.59375" stop-color="#9BABC3"/>
<stop offset="0.791667" stop-color="#ADBFEB"/>
<stop offset="1" stop-color="#89939F"/>
</radialGradient>
<radialGradient id="paint1_angular_196_395" cx="0" cy="0" r="1" gradientUnits="userSpaceOnUse" gradientTransform="translate(20.5375 11.2664) rotate(83.4956) scale(4.9656 4.92918)">
<stop stop-color="#CDD8F4"/>
<stop offset="0.213542" stop-color="#B5D1FD"/>
<stop offset="0.380208" stop-color="#9A9BAA"/>
<stop offset="0.59375" stop-color="#9BABC3"/>
<stop offset="0.791667" stop-color="#ADBFEB"/>
<stop offset="1" stop-color="#89939F"/>
</radialGradient>
<radialGradient id="paint2_angular_196_395" cx="0" cy="0" r="1" gradientUnits="userSpaceOnUse" gradientTransform="translate(21.1 63.9) rotate(85.7321) scale(20.1559 13.1929)">
<stop stop-color="#CDD8F4"/>
<stop offset="0.213542" stop-color="#B5D1FD"/>
<stop offset="0.380208" stop-color="#9A9BAA"/>
<stop offset="0.59375" stop-color="#9BABC3"/>
<stop offset="0.791667" stop-color="#ADBFEB"/>
<stop offset="1" stop-color="#89939F"/>
</radialGradient>
<radialGradient id="paint3_angular_196_395" cx="0" cy="0" r="1" gradientUnits="userSpaceOnUse" gradientTransform="translate(21.1 63.9) rotate(85.7321) scale(20.1559 13.1929)">
<stop stop-color="#CDD8F4"/>
<stop offset="0.213542" stop-color="#B5D1FD"/>
<stop offset="0.380208" stop-color="#9A9BAA"/>
<stop offset="0.59375" stop-color="#9BABC3"/>
<stop offset="0.791667" stop-color="#ADBFEB"/>
<stop offset="1" stop-color="#89939F"/>
</radialGradient>
</defs>
</svg>
