<svg width="584" height="584" viewBox="0 0 584 584" fill="none" xmlns="http://www.w3.org/2000/svg">
<circle cx="292" cy="292" r="292" fill="url(#paint0_angular_199_460)"/>
<circle cx="291.999" cy="292" r="288.086" fill="black"/>
<path fill-rule="evenodd" clip-rule="evenodd" d="M494.132 86.7299C442.128 35.5157 370.754 3.91418 291.999 3.91418C291.499 3.91418 290.999 3.91546 290.5 3.918V291L494.132 86.7299Z" fill="#FFE6E1"/>
<path fill-rule="evenodd" clip-rule="evenodd" d="M291.335 580.084C211.348 579.813 139.04 546.944 87 494.068L291.335 288.5V580.084Z" fill="#FFE6E1"/>
<path fill-rule="evenodd" clip-rule="evenodd" d="M291 580.084V291L496.088 495.325C443.925 547.683 371.746 580.086 291.999 580.086C291.666 580.086 291.333 580.085 291 580.084Z" fill="#FFE6E1"/>
<circle cx="292.001" cy="292" r="239.55" fill="url(#paint1_angular_199_460)"/>
<circle cx="292" cy="292" r="235.635" fill="black"/>
<path fill-rule="evenodd" clip-rule="evenodd" d="M124.341 126.426C82.6365 168.653 56.7678 226.556 56.3691 290.5H290.5L124.341 126.426Z" fill="#FB5555"/>
<path fill-rule="evenodd" clip-rule="evenodd" d="M291 528.127V290L459.525 459.213C416.891 501.8 358.021 528.135 293 528.135C292.332 528.135 291.666 528.133 291 528.127Z" fill="#FB5555"/>
<path fill-rule="evenodd" clip-rule="evenodd" d="M124.019 456.617C81.9637 414.057 56 355.56 56 291C56 290.667 56.0007 290.333 56.0021 290H290.636L124.019 456.617Z" fill="#FB5555"/>
<path d="M104.5 292L56 292" stroke="url(#paint2_angular_199_460)" stroke-width="3"/>
<circle cx="292.001" cy="292" r="187.099" fill="url(#paint3_angular_199_460)"/>
<circle cx="291.999" cy="292" r="183.185" fill="black"/>
<path fill-rule="evenodd" clip-rule="evenodd" d="M291 475.182V291.5L421.792 421.269C388.622 454.573 342.718 475.185 291.999 475.185C291.666 475.185 291.333 475.184 291 475.182Z" fill="#EA151B"/>
<path d="M291.5 531.5L291.5 580" stroke="url(#paint4_angular_199_460)" stroke-width="3"/>
<defs>
<radialGradient id="paint0_angular_199_460" cx="0" cy="0" r="1" gradientUnits="userSpaceOnUse" gradientTransform="translate(292 292) rotate(90) scale(292)">
<stop offset="0.177083" stop-color="#A9BAC9"/>
<stop offset="0.296875" stop-color="#A8C2EA"/>
<stop offset="0.401042" stop-color="#9A9BAA"/>
<stop offset="0.598958" stop-color="#9BABC3"/>
<stop offset="0.755208" stop-color="#9DACD1"/>
<stop offset="1" stop-color="#89939F"/>
</radialGradient>
<radialGradient id="paint1_angular_199_460" cx="0" cy="0" r="1" gradientUnits="userSpaceOnUse" gradientTransform="translate(292.001 292) rotate(90) scale(239.55)">
<stop offset="0.177083" stop-color="#A9BAC9"/>
<stop offset="0.296875" stop-color="#A8C2EA"/>
<stop offset="0.401042" stop-color="#9A9BAA"/>
<stop offset="0.598958" stop-color="#9BABC3"/>
<stop offset="0.755208" stop-color="#9DACD1"/>
<stop offset="1" stop-color="#89939F"/>
</radialGradient>
<radialGradient id="paint2_angular_199_460" cx="0" cy="0" r="1" gradientUnits="userSpaceOnUse" gradientTransform="translate(80.25 292) rotate(-90) scale(1.05132e-06 24.25)">
<stop offset="0.182292" stop-color="#CDD8F4"/>
<stop offset="0.348958" stop-color="#B5D1FD"/>
<stop offset="0.505208" stop-color="#9A9BAA"/>
<stop offset="0.671875" stop-color="#9BABC3"/>
<stop offset="0.807292" stop-color="#ADBFEB"/>
<stop offset="1" stop-color="#89939F"/>
</radialGradient>
<radialGradient id="paint3_angular_199_460" cx="0" cy="0" r="1" gradientUnits="userSpaceOnUse" gradientTransform="translate(292.001 292) rotate(90) scale(187.099)">
<stop offset="0.177083" stop-color="#A9BAC9"/>
<stop offset="0.296875" stop-color="#A8C2EA"/>
<stop offset="0.401042" stop-color="#9A9BAA"/>
<stop offset="0.598958" stop-color="#9BABC3"/>
<stop offset="0.755208" stop-color="#9DACD1"/>
<stop offset="1" stop-color="#89939F"/>
</radialGradient>
<radialGradient id="paint4_angular_199_460" cx="0" cy="0" r="1" gradientUnits="userSpaceOnUse" gradientTransform="translate(291.5 555.75) rotate(-180) scale(1.05132e-06 24.25)">
<stop offset="0.182292" stop-color="#CDD8F4"/>
<stop offset="0.348958" stop-color="#B5D1FD"/>
<stop offset="0.505208" stop-color="#9A9BAA"/>
<stop offset="0.671875" stop-color="#9BABC3"/>
<stop offset="0.807292" stop-color="#ADBFEB"/>
<stop offset="1" stop-color="#89939F"/>
</radialGradient>
</defs>
</svg>
