<svg width="640" height="584" viewBox="0 0 640 584" fill="none" xmlns="http://www.w3.org/2000/svg">
<circle cx="292" cy="292" r="292" fill="url(#paint0_angular_199_343)"/>
<circle cx="291.999" cy="292" r="288.086" fill="black"/>
<path fill-rule="evenodd" clip-rule="evenodd" d="M90.0001 497.27C142.004 548.484 213.378 580.086 292.133 580.086C292.633 580.086 293.133 580.085 293.632 580.082V293L90.0001 497.27Z" fill="#FFE6E1"/>
<path fill-rule="evenodd" clip-rule="evenodd" d="M580.152 292.817C579.827 365.362 552.269 437.809 497.478 493.509L296.322 292.418L580.152 292.817Z" fill="#FFE6E1"/>
<circle cx="292.001" cy="292" r="239.55" fill="url(#paint1_angular_199_343)"/>
<circle cx="292" cy="292" r="235.635" fill="black"/>
<path fill-rule="evenodd" clip-rule="evenodd" d="M460.159 457.073C501.863 414.847 527.732 356.944 528.131 293H294L460.159 457.073Z" fill="#FB5555"/>
<circle cx="292.001" cy="292" r="187.099" fill="url(#paint2_angular_199_343)"/>
<circle cx="291.999" cy="292" r="183.185" fill="black"/>
<defs>
<radialGradient id="paint0_angular_199_343" cx="0" cy="0" r="1" gradientUnits="userSpaceOnUse" gradientTransform="translate(292 292) rotate(90) scale(292)">
<stop offset="0.177083" stop-color="#A9BAC9"/>
<stop offset="0.296875" stop-color="#A8C2EA"/>
<stop offset="0.401042" stop-color="#9A9BAA"/>
<stop offset="0.598958" stop-color="#9BABC3"/>
<stop offset="0.755208" stop-color="#9DACD1"/>
<stop offset="1" stop-color="#89939F"/>
</radialGradient>
<radialGradient id="paint1_angular_199_343" cx="0" cy="0" r="1" gradientUnits="userSpaceOnUse" gradientTransform="translate(292.001 292) rotate(90) scale(239.55)">
<stop offset="0.177083" stop-color="#A9BAC9"/>
<stop offset="0.296875" stop-color="#A8C2EA"/>
<stop offset="0.401042" stop-color="#9A9BAA"/>
<stop offset="0.598958" stop-color="#9BABC3"/>
<stop offset="0.755208" stop-color="#9DACD1"/>
<stop offset="1" stop-color="#89939F"/>
</radialGradient>
<radialGradient id="paint2_angular_199_343" cx="0" cy="0" r="1" gradientUnits="userSpaceOnUse" gradientTransform="translate(292.001 292) rotate(90) scale(187.099)">
<stop offset="0.177083" stop-color="#A9BAC9"/>
<stop offset="0.296875" stop-color="#A8C2EA"/>
<stop offset="0.401042" stop-color="#9A9BAA"/>
<stop offset="0.598958" stop-color="#9BABC3"/>
<stop offset="0.755208" stop-color="#9DACD1"/>
<stop offset="1" stop-color="#89939F"/>
</radialGradient>
</defs>
</svg>
