<svg width="100" height="108" viewBox="0 0 100 108" fill="none" xmlns="http://www.w3.org/2000/svg">
<path fill-rule="evenodd" clip-rule="evenodd" d="M6.24668 25.491C6.52954 18.6761 8.0305 12.2107 9.07534 10.2285C9.82371 8.80871 9.82371 8.80871 11.238 7.38895L11.238 7.38894C17.6025 2.77471 38.3046 1 47.262 1C71.5885 1 85.1368 4.54941 87.9654 6.67906C89.7829 8.04738 90.6825 10.1874 91.0777 11.1277L91.1066 11.1964L91.1477 11.2933C92.36 14.1328 93.4634 22.6514 93.5813 25.8459C93.5813 26.8264 94.1466 27.0004 94.723 27.1778L94.7231 27.1779C94.8144 27.206 94.906 27.2342 94.9956 27.2657C97.4335 28.1222 98.2963 29.8509 98.5315 31.0313C99.3801 35.2906 98.885 40.7534 98.5315 43.593C98.2486 45.8646 95.8207 47.1424 94.642 47.4973C95.4906 64.2505 94.9956 85.0028 94.642 93.2848C94.642 94.4206 93.9349 94.7045 93.5813 94.7045H87.5704V103.933C87.5704 105.921 85.9204 106.654 85.0953 106.773H79.7916C76.9629 106.773 76.2558 104.643 76.2558 103.578V94.7045H25.6935V103.933C25.6935 105.921 23.9151 106.773 22.1577 106.773H17.2912C14.1797 106.205 14.0253 103.223 14.0253 101.803V94.7045H8.36795C6.67075 94.7045 6.01073 93.5214 5.89287 92.9298C4.19568 77.8803 4.47869 56.1342 4.83235 47.1424C2.5696 46.2905 1.53232 43.9479 1.29652 42.8831C0.730792 40.6115 1.10643 33.8549 1.34215 30.8971C1.61068 29.1516 3.65374 27.8572 4.83235 27.2657C5.81781 26.771 6.24668 26.0825 6.24668 25.491ZM24.2539 9.46179H75.7299V20.039H24.2539V9.46179ZM84.8978 24.9751H15.0879V59.5275H84.8978V24.9751ZM34.8296 78.214C34.8296 82.3032 31.5147 85.6181 27.4256 85.6181C23.3364 85.6181 20.0215 82.3032 20.0215 78.214C20.0215 74.1249 23.3364 70.8099 27.4256 70.8099C31.5147 70.8099 34.8296 74.1249 34.8296 78.214ZM73.2615 85.6181C77.3507 85.6181 80.6656 82.3032 80.6656 78.214C80.6656 74.1249 77.3507 70.8099 73.2615 70.8099C69.1723 70.8099 65.8574 74.1249 65.8574 78.214C65.8574 82.3032 69.1723 85.6181 73.2615 85.6181Z" fill="white"/>
<path d="M9.07534 10.2285L8.63302 9.99533L9.07534 10.2285ZM6.24668 25.491L5.74711 25.4702L5.74668 25.4806V25.491H6.24668ZM11.238 7.38895L10.8845 7.0354L10.8838 7.03608L11.238 7.38895ZM11.238 7.38894L10.9446 6.98414L10.9125 7.00739L10.8845 7.03539L11.238 7.38894ZM87.9654 6.67906L87.6647 7.07851L87.9654 6.67906ZM91.0777 11.1277L90.6168 11.3215L90.6169 11.3216L91.0777 11.1277ZM91.1066 11.1964L90.6457 11.3903L90.6462 11.3914L91.1066 11.1964ZM91.1477 11.2933L90.6873 11.4883L90.6878 11.4896L91.1477 11.2933ZM93.5813 25.8459H94.0813V25.8367L94.081 25.8275L93.5813 25.8459ZM94.723 27.1778L94.8811 26.7034L94.8701 26.7L94.723 27.1778ZM94.7231 27.1779L94.5649 27.6523L94.576 27.6557L94.7231 27.1779ZM94.9956 27.2657L95.1614 26.7939L95.1614 26.7939L94.9956 27.2657ZM98.5315 31.0313L99.0218 30.9336V30.9336L98.5315 31.0313ZM98.5315 43.593L98.0353 43.5312L98.5315 43.593ZM94.642 47.4973L94.4979 47.0186L94.1229 47.1315L94.1427 47.5226L94.642 47.4973ZM94.642 93.2848L94.1425 93.2634L94.142 93.2741V93.2848H94.642ZM87.5704 94.7045V94.2045H87.0704V94.7045H87.5704ZM85.0953 106.773V107.273H85.131L85.1663 107.267L85.0953 106.773ZM76.2558 94.7045H76.7558V94.2045H76.2558V94.7045ZM25.6935 94.7045V94.2045H25.1935V94.7045H25.6935ZM17.2912 106.773L17.2014 107.264L17.246 107.273H17.2912V106.773ZM14.0253 94.7045H14.5253V94.2045H14.0253V94.7045ZM5.89287 92.9298L5.39602 92.9858L5.39839 93.0068L5.40251 93.0275L5.89287 92.9298ZM4.83235 47.1424L5.33196 47.162L5.34614 46.8015L5.00851 46.6744L4.83235 47.1424ZM1.29652 42.8831L1.78487 42.7749L1.7817 42.7622L1.29652 42.8831ZM1.34215 30.8971L0.847965 30.821L0.845185 30.8391L0.843732 30.8574L1.34215 30.8971ZM4.83235 27.2657L4.60805 26.8188H4.60805L4.83235 27.2657ZM75.7299 9.46179H76.2299V8.96178H75.7299V9.46179ZM24.2539 9.46179V8.96178H23.7539V9.46179H24.2539ZM75.7299 20.039V20.539H76.2299V20.039H75.7299ZM24.2539 20.039H23.7539V20.539H24.2539V20.039ZM15.0879 24.9751V24.4751H14.5879V24.9751H15.0879ZM84.8978 24.9751H85.3978V24.4751H84.8978V24.9751ZM15.0879 59.5275H14.5879V60.0275H15.0879V59.5275ZM84.8978 59.5275V60.0275H85.3978V59.5275H84.8978ZM8.63302 9.99533C8.07427 11.0553 7.42702 13.2292 6.88491 15.9497C6.33914 18.6887 5.88971 22.0345 5.74711 25.4702L6.74625 25.5117C6.88651 22.1325 7.32899 18.8382 7.86563 16.1452C8.40591 13.4338 9.03156 11.3838 9.51765 10.4616L8.63302 9.99533ZM10.8838 7.03608C10.1872 7.73531 9.80457 8.11794 9.50919 8.50575C9.20846 8.9006 9.00135 9.29657 8.63302 9.99533L9.51765 10.4616C9.8977 9.74062 10.0648 9.4267 10.3047 9.11167C10.55 8.7896 10.8745 8.46235 11.5923 7.74182L10.8838 7.03608ZM10.8845 7.03539L10.8845 7.0354L11.5916 7.7425L11.5916 7.7425L10.8845 7.03539ZM47.262 0.5C42.759 0.5 35.3203 0.945445 28.2065 1.96923C24.649 2.48119 21.1627 3.13919 18.1601 3.96181C15.1697 4.78106 12.6109 5.77605 10.9446 6.98414L11.5315 7.79375C13.0474 6.69472 15.4631 5.73754 18.4243 4.92627C21.3732 4.11838 24.8156 3.46753 28.3489 2.95903C35.4165 1.94191 42.8076 1.5 47.262 1.5V0.5ZM88.2662 6.27961C87.4858 5.69209 86.038 5.05064 83.9806 4.41551C81.9067 3.77528 79.1656 3.12743 75.7592 2.54799C68.9456 1.38896 59.4484 0.5 47.262 0.5V1.5C59.4021 1.5 68.8423 2.38575 75.5916 3.53383C78.9667 4.10795 81.6635 4.74677 83.6856 5.37102C85.7243 6.00037 87.0307 6.60121 87.6647 7.07851L88.2662 6.27961ZM91.5387 10.9339C91.1463 10.0005 90.204 7.73856 88.2662 6.27961L87.6647 7.07851C89.3618 8.3562 90.2187 10.3743 90.6168 11.3215L91.5387 10.9339ZM91.5675 11.0025L91.5386 10.9338L90.6169 11.3216L90.6457 11.3903L91.5675 11.0025ZM91.6081 11.0983L91.567 11.0014L90.6462 11.3914L90.6873 11.4883L91.6081 11.0983ZM94.081 25.8275C94.021 24.2035 93.7127 21.2544 93.2691 18.3607C92.8282 15.485 92.2422 12.5837 91.6075 11.097L90.6878 11.4896C91.2654 12.8424 91.8373 15.6202 92.2807 18.5123C92.7213 21.3864 93.0237 24.2938 93.0816 25.8643L94.081 25.8275ZM94.8701 26.7C94.5586 26.6041 94.3848 26.5422 94.2668 26.4381C94.1858 26.3666 94.0813 26.2294 94.0813 25.8459H93.0813C93.0813 26.4428 93.2594 26.8829 93.6052 27.1879C93.9139 27.4603 94.311 27.5742 94.5759 27.6557L94.8701 26.7ZM94.8812 26.7035L94.8811 26.7035L94.5649 27.6522L94.5649 27.6522L94.8812 26.7035ZM95.1614 26.7939C95.0609 26.7586 94.9599 26.7276 94.8702 26.7L94.576 27.6557C94.6689 27.6843 94.751 27.7097 94.8299 27.7374L95.1614 26.7939ZM99.0218 30.9336C98.7583 29.6108 97.7937 27.7188 95.1614 26.7939L94.8299 27.7374C97.0734 28.5256 97.8343 30.0909 98.0411 31.129L99.0218 30.9336ZM99.0276 43.6547C99.3814 40.8133 99.8876 35.2794 99.0218 30.9336L98.0411 31.129C98.8725 35.3019 98.3886 40.6936 98.0353 43.5312L99.0276 43.6547ZM94.7862 47.9761C95.4296 47.7823 96.3922 47.3457 97.2398 46.6505C98.0881 45.9546 98.8649 44.9616 99.0276 43.6547L98.0353 43.5312C97.9152 44.4959 97.3366 45.2777 96.6055 45.8773C95.8737 46.4776 95.0331 46.8574 94.4979 47.0186L94.7862 47.9761ZM95.1416 93.3061C95.4955 85.0171 95.9911 64.2475 95.1414 47.472L94.1427 47.5226C94.9902 64.2536 94.4958 84.9885 94.1425 93.2634L95.1416 93.3061ZM93.5813 95.2045C93.8741 95.2045 94.2678 95.0922 94.5912 94.7806C94.9271 94.4569 95.142 93.9628 95.142 93.2848H94.142C94.142 93.7425 94.0034 93.9582 93.8973 94.0605C93.7787 94.1748 93.6421 94.2045 93.5813 94.2045V95.2045ZM87.5704 95.2045H93.5813V94.2045H87.5704V95.2045ZM88.0704 103.933V94.7045H87.0704V103.933H88.0704ZM85.1663 107.267C85.6582 107.197 86.3705 106.951 86.9696 106.432C87.5848 105.899 88.0704 105.085 88.0704 103.933H87.0704C87.0704 104.769 86.731 105.315 86.3149 105.676C85.8828 106.05 85.3575 106.23 85.0244 106.278L85.1663 107.267ZM79.7916 107.273H85.0953V106.273H79.7916V107.273ZM75.7558 103.578C75.7558 104.201 75.9583 105.116 76.5719 105.886C77.203 106.678 78.2347 107.273 79.7916 107.273V106.273C78.5199 106.273 77.7836 105.802 77.354 105.263C76.9068 104.702 76.7558 104.019 76.7558 103.578H75.7558ZM75.7558 94.7045V103.578H76.7558V94.7045H75.7558ZM25.6935 95.2045H76.2558V94.2045H25.6935V95.2045ZM26.1935 103.933V94.7045H25.1935V103.933H26.1935ZM22.1577 107.273C23.1073 107.273 24.0995 107.044 24.8699 106.509C25.6602 105.96 26.1935 105.101 26.1935 103.933H25.1935C25.1935 104.753 24.8376 105.314 24.2994 105.687C23.7412 106.075 22.9655 106.273 22.1577 106.273V107.273ZM17.2912 107.273H22.1577V106.273H17.2912V107.273ZM13.5253 101.803C13.5253 102.521 13.5613 103.711 14.0321 104.805C14.5171 105.932 15.4604 106.947 17.2014 107.264L17.381 106.281C16.0106 106.031 15.3209 105.27 14.9507 104.41C14.5664 103.517 14.5253 102.505 14.5253 101.803H13.5253ZM13.5253 94.7045V101.803H14.5253V94.7045H13.5253ZM8.36795 95.2045H14.0253V94.2045H8.36795V95.2045ZM5.40251 93.0275C5.55482 93.792 6.37513 95.2045 8.36795 95.2045V94.2045C6.96638 94.2045 6.46665 93.2508 6.38323 92.8321L5.40251 93.0275ZM4.33273 47.1227C3.97885 56.1204 3.69443 77.8973 5.39602 92.9858L6.38972 92.8738C4.69692 77.8633 4.97853 56.148 5.33196 47.162L4.33273 47.1227ZM0.80835 42.9912C0.93981 43.5848 1.28355 44.497 1.89331 45.3773C2.50512 46.2605 3.40431 47.139 4.65618 47.6103L5.00851 46.6744C3.99764 46.2939 3.24681 45.5751 2.71535 44.8079C2.18183 44.0377 1.88903 43.2461 1.7847 42.775L0.80835 42.9912ZM0.843732 30.8574C0.725331 32.3431 0.571844 34.7815 0.518919 37.1362C0.49246 38.3134 0.491008 39.4747 0.53225 40.4882C0.57312 41.4925 0.656873 42.3837 0.811344 43.0039L1.7817 42.7622C1.65331 42.2467 1.57187 41.4414 1.53142 40.4475C1.49135 39.4628 1.49247 38.3243 1.51867 37.1586C1.57106 34.8277 1.72325 32.4089 1.84057 30.9368L0.843732 30.8574ZM4.60805 26.8188C3.99684 27.1256 3.14965 27.6199 2.41351 28.2752C1.68488 28.9238 1.00793 29.7812 0.847965 30.821L1.83634 30.9731C1.9449 30.2674 2.42374 29.6049 3.07843 29.0221C3.7256 28.446 4.48924 27.9973 5.05664 27.7125L4.60805 26.8188ZM5.74668 25.491C5.74668 25.8284 5.4917 26.3753 4.60805 26.8188L5.05664 27.7125C6.14393 27.1668 6.74668 26.3366 6.74668 25.491H5.74668ZM75.7299 8.96178H24.2539V9.96179H75.7299V8.96178ZM76.2299 20.039V9.46179H75.2299V20.039H76.2299ZM24.2539 20.539H75.7299V19.539H24.2539V20.539ZM23.7539 9.46179V20.039H24.7539V9.46179H23.7539ZM15.0879 25.4751H84.8978V24.4751H15.0879V25.4751ZM15.5879 59.5275V24.9751H14.5879V59.5275H15.5879ZM84.8978 59.0275H15.0879V60.0275H84.8978V59.0275ZM84.3978 24.9751V59.5275H85.3978V24.9751H84.3978ZM27.4256 86.1181C31.7909 86.1181 35.3296 82.5793 35.3296 78.214H34.3296C34.3296 82.027 31.2386 85.1181 27.4256 85.1181V86.1181ZM19.5215 78.214C19.5215 82.5793 23.0603 86.1181 27.4256 86.1181V85.1181C23.6125 85.1181 20.5215 82.027 20.5215 78.214H19.5215ZM27.4256 70.3099C23.0603 70.3099 19.5215 73.8487 19.5215 78.214H20.5215C20.5215 74.401 23.6125 71.3099 27.4256 71.3099V70.3099ZM35.3296 78.214C35.3296 73.8487 31.7909 70.3099 27.4256 70.3099V71.3099C31.2386 71.3099 34.3296 74.401 34.3296 78.214H35.3296ZM80.1656 78.214C80.1656 82.027 77.0745 85.1181 73.2615 85.1181V86.1181C77.6268 86.1181 81.1656 82.5793 81.1656 78.214H80.1656ZM73.2615 71.3099C77.0745 71.3099 80.1656 74.401 80.1656 78.214H81.1656C81.1656 73.8487 77.6268 70.3099 73.2615 70.3099V71.3099ZM66.3574 78.214C66.3574 74.401 69.4485 71.3099 73.2615 71.3099V70.3099C68.8962 70.3099 65.3574 73.8487 65.3574 78.214H66.3574ZM73.2615 85.1181C69.4485 85.1181 66.3574 82.027 66.3574 78.214H65.3574C65.3574 82.5793 68.8962 86.1181 73.2615 86.1181V85.1181Z" fill="url(#paint0_angular_245_23)"/>
<defs>
<radialGradient id="paint0_angular_245_23" cx="0" cy="0" r="1" gradientUnits="userSpaceOnUse" gradientTransform="translate(50.2033 53.8863) rotate(90) scale(52.8863 49.2033)">
<stop offset="0.0416667" stop-color="#CDD8F4"/>
<stop offset="0.213542" stop-color="#B5D1FD"/>
<stop offset="0.395833" stop-color="#9A9BAA"/>
<stop offset="0.59375" stop-color="#9BABC3"/>
<stop offset="0.791667" stop-color="#ADBFEB"/>
<stop offset="0.942708" stop-color="#89939F"/>
</radialGradient>
</defs>
</svg>
