<svg width="86" height="93" viewBox="0 0 86 93" fill="none" xmlns="http://www.w3.org/2000/svg">
<path fill-rule="evenodd" clip-rule="evenodd" d="M5.49715 21.9922C5.73961 16.1509 7.02614 10.6091 7.92172 8.91012C8.56318 7.69318 8.56318 7.69318 9.77547 6.47624C15.2307 2.52118 32.9754 1 40.6532 1C61.5044 1 73.1172 4.04235 75.5418 5.86777C77.0996 7.04062 77.8707 8.87495 78.2095 9.6809C78.2312 9.73259 78.2512 9.78005 78.2694 9.82283C79.3085 12.2567 80.2544 19.5584 80.3554 22.2965C80.3554 23.1369 80.8399 23.286 81.334 23.4381C81.4123 23.4622 81.4908 23.4864 81.5677 23.5134C83.6573 24.2476 84.3968 25.7293 84.5984 26.7411C85.3258 30.392 84.9015 35.0744 84.5984 37.5082C84.3559 39.4554 82.2748 40.5506 81.2646 40.8548C81.992 55.2147 81.5677 73.0024 81.2646 80.1012C81.2646 81.0748 80.6585 81.3181 80.3554 81.3181H75.2032V89.2283C75.2032 90.932 73.7889 91.5607 73.0817 91.6621H68.5357C66.1111 91.6621 65.5049 89.8367 65.5049 88.924V81.3181H22.1658V89.2283C22.1658 90.932 20.6415 91.6621 19.1351 91.6621H14.9639C12.2969 91.1754 12.1645 88.6198 12.1645 87.4029V81.3181H7.31538C5.86065 81.3181 5.29491 80.304 5.19389 79.797C3.73915 66.8974 3.98174 48.2579 4.28487 40.5506C2.34537 39.8204 1.45627 37.8125 1.25416 36.8998C0.76925 34.9527 1.09123 29.1614 1.29327 26.6261C1.52344 25.1299 3.27463 24.0205 4.28487 23.5134C5.12955 23.0895 5.49715 22.4993 5.49715 21.9922ZM20.9321 8.25298H65.0543V17.3192H20.9321V8.25298ZM72.9116 21.5501H13.0746V51.1664H72.9116V21.5501ZM29.9982 67.1834C29.9982 70.6884 27.1569 73.5297 23.6519 73.5297C20.1469 73.5297 17.3055 70.6884 17.3055 67.1834C17.3055 63.6784 20.1469 60.837 23.6519 60.837C27.1569 60.837 29.9982 63.6784 29.9982 67.1834ZM62.9388 73.5297C66.4437 73.5297 69.2851 70.6884 69.2851 67.1834C69.2851 63.6784 66.4437 60.837 62.9388 60.837C59.4338 60.837 56.5924 63.6784 56.5924 67.1834C56.5924 70.6884 59.4338 73.5297 62.9388 73.5297Z" fill="black"/>
<path d="M7.92172 8.91012L7.4794 8.67697L7.4794 8.67697L7.92172 8.91012ZM5.49715 21.9922L4.99758 21.9715L4.99715 21.9819V21.9922H5.49715ZM9.77547 6.47624L9.48198 6.07143L9.44953 6.09496L9.42123 6.12336L9.77547 6.47624ZM75.5418 5.86777L75.2411 6.26721L75.2411 6.26721L75.5418 5.86777ZM78.2095 9.6809L77.7486 9.87466L77.7486 9.87468L78.2095 9.6809ZM78.2694 9.82283L78.7293 9.6265L78.7293 9.6265L78.2694 9.82283ZM80.3554 22.2965H80.8554V22.2873L80.8551 22.278L80.3554 22.2965ZM81.334 23.4381L81.1869 23.916L81.1869 23.916L81.334 23.4381ZM81.5677 23.5134L81.4019 23.9851L81.4019 23.9851L81.5677 23.5134ZM84.5984 26.7411L84.108 26.8388L84.108 26.8388L84.5984 26.7411ZM84.5984 37.5082L84.1022 37.4465L84.1022 37.4465L84.5984 37.5082ZM81.2646 40.8548L81.1204 40.3761L80.7454 40.489L80.7652 40.8801L81.2646 40.8548ZM81.2646 80.1012L80.7651 80.0799L80.7646 80.0905V80.1012H81.2646ZM75.2032 81.3181V80.8181H74.7032V81.3181H75.2032ZM73.0817 91.6621V92.1621H73.1174L73.1527 92.1571L73.0817 91.6621ZM65.5049 81.3181H66.0049V80.8181H65.5049V81.3181ZM22.1658 81.3181V80.8181H21.6658V81.3181H22.1658ZM14.9639 91.6621L14.8741 92.154L14.9186 92.1621H14.9639V91.6621ZM12.1645 81.3181H12.6645V80.8181H12.1645V81.3181ZM5.19389 79.797L4.69704 79.853L4.6994 79.874L4.70353 79.8947L5.19389 79.797ZM4.28487 40.5506L4.78448 40.5703L4.79866 40.2098L4.46104 40.0827L4.28487 40.5506ZM1.25416 36.8998L1.7425 36.7916L1.73934 36.7789L1.25416 36.8998ZM1.29327 26.6261L0.799086 26.55L0.796306 26.5681L0.794853 26.5863L1.29327 26.6261ZM4.28487 23.5134L4.06058 23.0665L4.06058 23.0665L4.28487 23.5134ZM65.0543 8.25298H65.5543V7.75298H65.0543V8.25298ZM20.9321 8.25298V7.75298H20.4321V8.25298H20.9321ZM65.0543 17.3192V17.8192H65.5543V17.3192H65.0543ZM20.9321 17.3192H20.4321V17.8192H20.9321V17.3192ZM13.0746 21.5501V21.0501H12.5746V21.5501H13.0746ZM72.9116 21.5501H73.4116V21.0501H72.9116V21.5501ZM13.0746 51.1664H12.5746V51.6664H13.0746V51.1664ZM72.9116 51.1664V51.6664H73.4116V51.1664H72.9116ZM7.4794 8.67697C6.99528 9.59541 6.43895 11.4675 5.97415 13.8001C5.5057 16.151 5.11998 19.0226 4.99758 21.9715L5.99672 22.013C6.11678 19.1206 6.49556 16.3006 6.95487 13.9955C7.41785 11.6721 7.95257 9.92385 8.36403 9.14327L7.4794 8.67697ZM9.42123 6.12336C8.8257 6.72119 8.49353 7.05311 8.23677 7.39022C7.97466 7.73437 7.79427 8.07962 7.4794 8.67697L8.36403 9.14327C8.69063 8.52367 8.83098 8.26046 9.0323 7.99613C9.23898 7.72477 9.51295 7.44823 10.1297 6.82911L9.42123 6.12336ZM40.6532 0.5C36.79 0.5 30.4106 0.882063 24.3096 1.76007C21.2587 2.19914 18.2673 2.76365 15.6897 3.4698C13.1245 4.17258 10.921 5.02813 9.48198 6.07143L10.0689 6.88104C11.3575 5.94681 13.4179 5.12907 15.954 4.43426C18.4778 3.74284 21.4252 3.18548 24.4521 2.74987C30.5067 1.87853 36.8385 1.5 40.6532 1.5V0.5ZM75.8425 5.46832C75.1632 4.95685 73.9121 4.40414 72.1473 3.85933C70.3659 3.30942 68.0133 2.75347 65.0913 2.25643C59.2465 1.26219 51.1019 0.5 40.6532 0.5V1.5C51.0556 1.5 59.1431 2.25898 64.9236 3.24227C67.8143 3.734 70.1227 4.28091 71.8523 4.81484C73.5984 5.35387 74.7081 5.86597 75.2411 6.26721L75.8425 5.46832ZM78.6704 9.48715C78.3345 8.68806 77.5207 6.7318 75.8425 5.46832L75.2411 6.26721C76.6785 7.34943 77.4069 9.06184 77.7486 9.87466L78.6704 9.48715ZM78.7293 9.6265C78.7117 9.58525 78.6923 9.53915 78.6704 9.48713L77.7486 9.87468C77.7701 9.92603 77.7907 9.97485 77.8096 10.0192L78.7293 9.6265ZM80.8551 22.278C80.8036 20.8823 80.5389 18.3514 80.1584 15.8698C79.7807 13.406 79.2774 10.9104 78.7293 9.6265L77.8096 10.0191C78.3006 11.1691 78.7897 13.5413 79.17 16.0213C79.5474 18.4835 79.8062 20.9726 79.8557 22.3149L80.8551 22.278ZM81.4811 22.9603C81.2107 22.877 81.0777 22.8277 80.9902 22.7505C80.9397 22.7059 80.8554 22.61 80.8554 22.2965H79.8554C79.8554 22.8234 80.0134 23.2222 80.3286 23.5004C80.6069 23.7458 80.9632 23.8471 81.1869 23.916L81.4811 22.9603ZM81.7334 23.0417C81.6457 23.0109 81.5578 22.9839 81.4811 22.9603L81.1869 23.916C81.2668 23.9406 81.3359 23.9619 81.4019 23.9851L81.7334 23.0417ZM85.0887 26.6435C84.8588 25.4892 84.0175 23.8442 81.7334 23.0417L81.4019 23.9851C83.2971 24.651 83.9348 25.9694 84.108 26.8388L85.0887 26.6435ZM85.0946 37.57C85.3979 35.1342 85.8333 30.3807 85.0887 26.6435L84.108 26.8388C84.8182 30.4033 84.405 35.0145 84.1022 37.4465L85.0946 37.57ZM81.4088 41.3336C81.968 41.1652 82.8018 40.7869 83.5365 40.1842C84.272 39.5809 84.952 38.7147 85.0946 37.57L84.1022 37.4465C84.0023 38.2489 83.5205 38.9039 82.9023 39.411C82.2833 39.9188 81.5715 40.2402 81.1204 40.3761L81.4088 41.3336ZM81.7642 80.1225C82.0675 73.0167 82.4925 55.2117 81.764 40.8295L80.7652 40.8801C81.4915 55.2178 81.0678 72.988 80.7651 80.0799L81.7642 80.1225ZM80.3554 81.8181C80.623 81.8181 80.9788 81.716 81.2706 81.4348C81.5749 81.1416 81.7646 80.6981 81.7646 80.1012H80.7646C80.7646 80.4778 80.6513 80.6429 80.5767 80.7147C80.4897 80.7986 80.3909 80.8181 80.3554 80.8181V81.8181ZM75.2032 81.8181H80.3554V80.8181H75.2032V81.8181ZM75.7032 89.2283V81.3181H74.7032V89.2283H75.7032ZM73.1527 92.1571C73.5856 92.095 74.2095 91.8792 74.735 91.424C75.2765 90.955 75.7032 90.238 75.7032 89.2283H74.7032C74.7032 89.9222 74.4227 90.3715 74.0803 90.6681C73.7218 90.9786 73.285 91.1279 73.0107 91.1672L73.1527 92.1571ZM68.5357 92.1621H73.0817V91.1621H68.5357V92.1621ZM65.0049 88.924C65.0049 89.4714 65.1822 90.2721 65.7201 90.947C66.2754 91.6438 67.1808 92.1621 68.5357 92.1621V91.1621C67.466 91.1621 66.856 90.7678 66.5021 90.3237C66.1308 89.8578 66.0049 89.2894 66.0049 88.924H65.0049ZM65.0049 81.3181V88.924H66.0049V81.3181H65.0049ZM22.1658 81.8181H65.5049V80.8181H22.1658V81.8181ZM22.6658 89.2283V81.3181H21.6658V89.2283H22.6658ZM19.1351 92.1621C19.9592 92.1621 20.8252 91.9639 21.5006 91.4947C22.1961 91.0117 22.6658 90.254 22.6658 89.2283H21.6658C21.6658 89.9063 21.3735 90.3655 20.9301 90.6734C20.4668 90.9953 19.8174 91.1621 19.1351 91.1621V92.1621ZM14.9639 92.1621H19.1351V91.1621H14.9639V92.1621ZM11.6645 87.4029C11.6645 88.0194 11.695 89.0515 12.1048 90.0039C12.5286 90.9892 13.3553 91.8768 14.8741 92.154L15.0537 91.1703C13.9055 90.9607 13.3324 90.3272 13.0234 89.6087C12.7002 88.8574 12.6645 88.0033 12.6645 87.4029H11.6645ZM11.6645 81.3181V87.4029H12.6645V81.3181H11.6645ZM7.31538 81.8181H12.1645V80.8181H7.31538V81.8181ZM4.70353 79.8947C4.839 80.5746 5.56502 81.8181 7.31538 81.8181V80.8181C6.15627 80.8181 5.75083 80.0334 5.68425 79.6993L4.70353 79.8947ZM3.78526 40.531C3.48189 48.2441 3.2379 66.9144 4.69704 79.853L5.69074 79.7409C4.2404 66.8803 4.48158 48.2717 4.78448 40.5703L3.78526 40.531ZM0.765989 37.0079C0.880606 37.5255 1.17888 38.316 1.70697 39.0784C2.23712 39.8437 3.01846 40.6081 4.1087 41.0185L4.46104 40.0827C3.61178 39.7629 2.97882 39.1583 2.52902 38.5089C2.07716 37.8566 1.82983 37.1868 1.74234 36.7917L0.765989 37.0079ZM0.794853 26.5863C0.69329 27.8608 0.561637 29.9522 0.516234 31.9723C0.493537 32.9821 0.492268 33.9792 0.527702 34.8499C0.562764 35.7115 0.634717 36.4815 0.768983 37.0206L1.73934 36.7789C1.63115 36.3445 1.56151 35.6604 1.52688 34.8093C1.49261 33.9673 1.49354 32.993 1.51598 31.9947C1.56085 29.9985 1.69121 27.9267 1.79169 26.6658L0.794853 26.5863ZM4.06058 23.0665C3.53355 23.3311 2.80142 23.758 2.16409 24.3254C1.53426 24.8861 0.93987 25.6349 0.799086 26.55L1.78746 26.7021C1.87684 26.1211 2.27313 25.5671 2.829 25.0723C3.37737 24.5841 4.02595 24.2028 4.50916 23.9603L4.06058 23.0665ZM4.99715 21.9922C4.99715 22.2452 4.80344 22.6937 4.06058 23.0665L4.50916 23.9603C5.45567 23.4852 5.99715 22.7534 5.99715 21.9922H4.99715ZM65.0543 7.75298H20.9321V8.75298H65.0543V7.75298ZM65.5543 17.3192V8.25298H64.5543V17.3192H65.5543ZM20.9321 17.8192H65.0543V16.8192H20.9321V17.8192ZM20.4321 8.25298V17.3192H21.4321V8.25298H20.4321ZM13.0746 22.0501H72.9116V21.0501H13.0746V22.0501ZM13.5746 51.1664V21.5501H12.5746V51.1664H13.5746ZM72.9116 50.6664H13.0746V51.6664H72.9116V50.6664ZM72.4116 21.5501V51.1664H73.4116V21.5501H72.4116ZM23.6519 74.0297C27.433 74.0297 30.4982 70.9645 30.4982 67.1834H29.4982C29.4982 70.4122 26.8807 73.0297 23.6519 73.0297V74.0297ZM16.8055 67.1834C16.8055 70.9645 19.8707 74.0297 23.6519 74.0297V73.0297C20.423 73.0297 17.8055 70.4122 17.8055 67.1834H16.8055ZM23.6519 60.337C19.8707 60.337 16.8055 63.4022 16.8055 67.1834H17.8055C17.8055 63.9545 20.423 61.337 23.6519 61.337V60.337ZM30.4982 67.1834C30.4982 63.4022 27.433 60.337 23.6519 60.337V61.337C26.8807 61.337 29.4982 63.9545 29.4982 67.1834H30.4982ZM68.7851 67.1834C68.7851 70.4122 66.1676 73.0297 62.9388 73.0297V74.0297C66.7199 74.0297 69.7851 70.9645 69.7851 67.1834H68.7851ZM62.9388 61.337C66.1676 61.337 68.7851 63.9545 68.7851 67.1834H69.7851C69.7851 63.4022 66.7199 60.337 62.9388 60.337V61.337ZM57.0924 67.1834C57.0924 63.9545 59.7099 61.337 62.9388 61.337V60.337C59.1576 60.337 56.0924 63.4022 56.0924 67.1834H57.0924ZM62.9388 73.0297C59.7099 73.0297 57.0924 70.4122 57.0924 67.1834H56.0924C56.0924 70.9645 59.1576 74.0297 62.9388 74.0297V73.0297Z" fill="url(#paint0_angular_199_105)"/>
<defs>
<radialGradient id="paint0_angular_199_105" cx="0" cy="0" r="1" gradientUnits="userSpaceOnUse" gradientTransform="translate(43.1743 46.3311) rotate(90) scale(45.3311 42.1743)">
<stop offset="0.0416667" stop-color="#CDD8F4"/>
<stop offset="0.213542" stop-color="#B5D1FD"/>
<stop offset="0.395833" stop-color="#9A9BAA"/>
<stop offset="0.59375" stop-color="#9BABC3"/>
<stop offset="0.791667" stop-color="#ADBFEB"/>
<stop offset="0.942708" stop-color="#89939F"/>
</radialGradient>
</defs>
</svg>
