<svg width="448" height="227" viewBox="0 0 448 227" fill="none" xmlns="http://www.w3.org/2000/svg">
<path d="M156.444 27.4286L170.667 13.037L184.889 27.4286V99.3863L170.667 113.778L156.444 99.3863V27.4286Z" fill="#7AE87F"/>
<path d="M0 27.4286L14.2222 13.037L28.4444 27.4286V99.3863L14.2222 113.778L0 99.3863V27.4286Z" fill="black"/>
<path d="M312.889 27.4286L327.111 13.037L341.333 27.4286V99.3863L327.111 113.778L312.889 99.3863V27.4286Z" fill="#7AE87F"/>
<path d="M156.444 127.831L170.667 113.778L184.889 127.831V198.095L170.667 212.148L156.444 198.095V127.831Z" fill="#7AE87F"/>
<path d="M0 127.831L14.2222 113.778L28.4444 127.831V198.095L14.2222 212.148L0 198.095V127.831Z" fill="black"/>
<path d="M312.889 127.831L327.111 113.778L341.333 127.831V198.095L327.111 212.148L312.889 198.095V127.831Z" fill="#7AE87F"/>
<path d="M264.296 27.4286L277.926 13.037L291.555 27.4286V99.3863L277.926 113.778L264.296 99.3863V27.4286Z" fill="#7AE87F"/>
<path d="M106.667 27.4286L120.889 13.037L135.111 27.4286V99.3863L120.889 113.778L106.667 99.3863V27.4286Z" fill="#7AE87F"/>
<path d="M420.741 27.4286L434.371 13.037L448 27.4286V99.3863L434.371 113.778L420.741 99.3863V27.4286Z" fill="#7AE87F"/>
<path d="M264.296 127.831L277.926 113.778L291.555 127.831V198.095L277.926 212.148L264.296 198.095V127.831Z" fill="#7AE87F"/>
<path d="M106.667 127.831L120.889 113.778L135.111 127.831V198.095L120.889 212.148L106.667 198.095V127.831Z" fill="#7AE87F"/>
<path d="M420.741 127.831L434.371 113.778L448 127.831V198.095L434.371 212.148L420.741 198.095V127.831Z" fill="#7AE87F"/>
<path d="M193.185 0L178.963 14.2222L193.185 28.4444H257.185L271.407 14.2222L257.185 0H193.185Z" fill="#7AE87F"/>
<path d="M36.7408 0L22.5186 14.2222L36.7408 28.4444H100.741L114.963 14.2222L100.741 0H36.7408Z" fill="black"/>
<path d="M349.447 0L335.407 14.2222L349.447 28.4444H412.627L426.666 14.2222L412.627 0H349.447Z" fill="#7AE87F"/>
<path d="M193.185 199.111L178.963 212.741L193.185 226.37H257.185L271.407 212.741L257.185 199.111H193.185Z" fill="#7AE87F"/>
<path d="M36.7408 199.111L22.5186 212.741L36.7408 226.37H100.741L114.963 212.741L100.741 199.111H36.7408Z" fill="black"/>
<path d="M349.447 199.111L335.407 212.741L349.447 226.37H412.627L426.666 212.741L412.627 199.111H349.447Z" fill="#7AE87F"/>
</svg>
