<svg width="522" height="227" viewBox="0 0 522 227" fill="none" xmlns="http://www.w3.org/2000/svg">
<path d="M156.444 27.7436L170.667 13.3521L184.889 27.7436V99.7013L170.667 114.093L156.444 99.7013V27.7436Z" fill="black"/>
<path d="M0 27.7436L14.2222 13.3521L28.4444 27.7436V99.7013L14.2222 114.093L0 99.7013V27.7436Z" fill="black"/>
<path d="M312.889 27.7436L327.111 13.3521L341.333 27.7436V99.7013L327.111 114.093L312.889 99.7013V27.7436Z" fill="#7AE87F"/>
<path d="M156.444 128.146L170.667 114.093L184.889 128.146V198.41L170.667 212.463L156.444 198.41V128.146Z" fill="black"/>
<path d="M0 128.146L14.2222 114.093L28.4444 128.146V198.41L14.2222 212.463L0 198.41V128.146Z" fill="black"/>
<path d="M312.889 128.146L327.111 114.093L341.333 128.146V198.41L327.111 212.463L312.889 198.41V128.146Z" fill="#7AE87F"/>
<path d="M264.296 27.7436L277.926 13.3521L291.555 27.7436V99.7013L277.926 114.093L264.296 99.7013V27.7436Z" fill="black"/>
<path d="M106.667 27.7436L120.889 13.3521L135.111 27.7436V99.7013L120.889 114.093L106.667 99.7013V27.7436Z" fill="black"/>
<path d="M420.741 27.7436L434.371 13.3521L448 27.7436V99.7013L434.371 114.093L420.741 99.7013V27.7436Z" fill="#7AE87F"/>
<path d="M264.296 128.146L277.926 114.093L291.555 128.146V198.41L277.926 212.463L264.296 198.41V128.146Z" fill="black"/>
<path d="M106.667 128.146L120.889 114.093L135.111 128.146V198.41L120.889 212.463L106.667 198.41V128.146Z" fill="black"/>
<path d="M420.741 128.146L434.371 114.093L448 128.146V198.41L434.371 212.463L420.741 198.41V128.146Z" fill="#7AE87F"/>
<path d="M193.185 0.314941L178.963 14.5372L193.185 28.7594H257.185L271.407 14.5372L257.185 0.314941H193.185Z" fill="black"/>
<path d="M36.7408 0.314941L22.5186 14.5372L36.7408 28.7594H100.741L114.963 14.5372L100.741 0.314941H36.7408Z" fill="black"/>
<path d="M349.447 0.314941L335.407 14.5372L349.447 28.7594H412.627L426.666 14.5372L412.627 0.314941H349.447Z" fill="#7AE87F"/>
<path d="M193.185 199.426L178.963 213.056L193.185 226.685H257.185L271.407 213.056L257.185 199.426H193.185Z" fill="black"/>
<path d="M36.7408 199.426L22.5186 213.056L36.7408 226.685H100.741L114.963 213.056L100.741 199.426H36.7408Z" fill="black"/>
<path d="M349.447 199.426L335.407 213.056L349.447 226.685H412.627L426.666 213.056L412.627 199.426H349.447Z" fill="#7AE87F"/>
<path d="M470.18 215.129L468.82 216.547V221H466.652V203H468.82V213.887L469.98 212.492L473.93 208.32H476.566L471.633 213.617L477.141 221H474.598L470.18 215.129ZM480.844 208.32L480.902 209.727C481.832 208.633 483.086 208.086 484.664 208.086C486.438 208.086 487.645 208.766 488.285 210.125C488.707 209.516 489.254 209.023 489.926 208.648C490.605 208.273 491.406 208.086 492.328 208.086C495.109 208.086 496.523 209.559 496.57 212.504V221H494.402V212.633C494.402 211.727 494.195 211.051 493.781 210.605C493.367 210.152 492.672 209.926 491.695 209.926C490.891 209.926 490.223 210.168 489.691 210.652C489.16 211.129 488.852 211.773 488.766 212.586V221H486.586V212.691C486.586 210.848 485.684 209.926 483.879 209.926C482.457 209.926 481.484 210.531 480.961 211.742V221H478.793V208.32H480.844ZM500.285 222.465H498.422L505.547 203.938H507.398L500.285 222.465ZM511.91 209.855C512.871 208.676 514.121 208.086 515.66 208.086C518.34 208.086 519.691 209.598 519.715 212.621V221H517.547V212.609C517.539 211.695 517.328 211.02 516.914 210.582C516.508 210.145 515.871 209.926 515.004 209.926C514.301 209.926 513.684 210.113 513.152 210.488C512.621 210.863 512.207 211.355 511.91 211.965V221H509.742V203H511.91V209.855Z" fill="white"/>
</svg>
