<svg width="448" height="227" viewBox="0 0 448 227" fill="none" xmlns="http://www.w3.org/2000/svg">
<path d="M156.444 27.7434L170.667 13.3519L184.889 27.7434V99.7011L170.667 114.093L156.444 99.7011V27.7434Z" fill="black"/>
<path d="M0 27.7434L14.2222 13.3519L28.4444 27.7434V99.7011L14.2222 114.093L0 99.7011V27.7434Z" fill="black"/>
<path d="M312.889 27.7434L327.111 13.3519L341.333 27.7434V99.7011L327.111 114.093L312.889 99.7011V27.7434Z" fill="#7AE87F"/>
<path d="M156.444 128.146L170.667 114.093L184.889 128.146V198.41L170.667 212.463L156.444 198.41V128.146Z" fill="black"/>
<path d="M0 128.146L14.2222 114.093L28.4444 128.146V198.41L14.2222 212.463L0 198.41V128.146Z" fill="black"/>
<path d="M312.889 128.146L327.111 114.093L341.333 128.146V198.41L327.111 212.463L312.889 198.41V128.146Z" fill="#7AE87F"/>
<path d="M264.296 27.7434L277.926 13.3519L291.555 27.7434V99.7011L277.926 114.093L264.296 99.7011V27.7434Z" fill="#7AE87F"/>
<path d="M106.667 27.7434L120.889 13.3519L135.111 27.7434V99.7011L120.889 114.093L106.667 99.7011V27.7434Z" fill="black"/>
<path d="M420.741 27.7434L434.371 13.3519L448 27.7434V99.7011L434.371 114.093L420.741 99.7011V27.7434Z" fill="#7AE87F"/>
<path d="M264.296 128.146L277.926 114.093L291.555 128.146V198.41L277.926 212.463L264.296 198.41V128.146Z" fill="#7AE87F"/>
<path d="M106.667 128.146L120.889 114.093L135.111 128.146V198.41L120.889 212.463L106.667 198.41V128.146Z" fill="black"/>
<path d="M420.741 128.146L434.371 114.093L448 128.146V198.41L434.371 212.463L420.741 198.41V128.146Z" fill="#7AE87F"/>
<path d="M193.185 0.314819L178.963 14.537L193.185 28.7593H257.185L271.407 14.537L257.185 0.314819H193.185Z" fill="black"/>
<path d="M36.7408 0.314819L22.5186 14.537L36.7408 28.7593H100.741L114.963 14.537L100.741 0.314819H36.7408Z" fill="black"/>
<path d="M349.447 0.314819L335.407 14.537L349.447 28.7593H412.627L426.666 14.537L412.627 0.314819H349.447Z" fill="#7AE87F"/>
<path d="M193.185 199.426L178.963 213.056L193.185 226.685H257.185L271.407 213.056L257.185 199.426H193.185Z" fill="black"/>
<path d="M36.7408 199.426L22.5186 213.056L36.7408 226.685H100.741L114.963 213.056L100.741 199.426H36.7408Z" fill="black"/>
<path d="M349.447 199.426L335.407 213.056L349.447 226.685H412.627L426.666 213.056L412.627 199.426H349.447Z" fill="#7AE87F"/>
</svg>
