<svg width="129" height="288" viewBox="0 0 129 288" fill="none" xmlns="http://www.w3.org/2000/svg">
<rect width="129" height="288" rx="64.5" fill="white"/>
<path fill-rule="evenodd" clip-rule="evenodd" d="M55.9676 3.66101L54.3497 7.32181L54.3539 19.2373L54.3581 31.1528L53.1602 32.086L51.9624 33.0193L50.9187 32.3646C49.5087 31.4807 48.2345 31.4625 47.1321 32.3105C45.285 33.7314 44.584 35.8795 44.7339 39.6589L44.8306 42.1017L43.626 43.4092C41.9713 45.2048 39.62 48.8126 38.2689 51.6291C35.0624 58.3121 34.7708 62.3029 37.005 68.913C37.2979 69.7791 37.5374 70.532 37.5374 70.5858C37.5374 70.6399 36.8385 70.6202 35.9844 70.5422C34.5256 70.4088 34.3929 70.4327 33.7973 70.9383C32.6018 71.9531 30.193 79.4884 28.7368 86.7702C27.971 90.6 27.9344 90.7109 27.5381 90.403C26.7814 89.8147 24.1859 88.6854 22.4975 88.2099C21.0144 87.7924 20.1935 87.7277 15.3551 87.6477C9.07251 87.5438 7.7975 87.7133 5.22751 88.9942C3.52063 89.8448 1.2513 91.9322 1.01918 92.8651C0.620315 94.4684 6.51661 97.3108 11.8858 98.1033C16.982 98.8556 21.625 97.8787 24.7339 95.4003C25.7696 94.5747 25.8428 94.5509 26.9403 94.6892L28.0757 94.8323V96.7257V98.6191L27.1821 98.6199C25.9508 98.621 24.9883 99.2621 24.4807 100.419C24.1624 101.145 23.9141 101.403 23.3911 101.552C23.0188 101.658 20.1595 102.533 17.0371 103.496C10.2901 105.578 10.1699 105.652 10.0319 107.837C9.96527 108.893 10.0292 109.352 10.3008 109.77C10.7069 110.395 12.1368 111.12 12.9785 111.127C13.2903 111.129 16.3889 110.272 19.8641 109.223C23.3392 108.173 26.3615 107.314 26.5801 107.314C26.7988 107.314 27.1813 107.481 27.4298 107.685L27.8819 108.056L28.0801 125.446C28.394 152.981 28.9128 167.177 29.8898 174.965C30.29 178.155 30.2803 177.244 29.9641 182.07C29.405 190.602 30.1863 200.982 32.0954 210.381C34.12 220.349 37.8021 230.473 42.4658 238.896C43.1088 240.057 43.6349 241.166 43.6349 241.361C43.6349 241.902 43.1593 242.189 41.9223 242.393C40.0552 242.702 39.5964 242.851 38.0885 243.639C34.1833 245.679 32.2218 249.294 33.5797 251.948C34.3099 253.374 35.4428 253.924 37.875 254.032C40.1347 254.132 41.8136 253.729 42.5838 252.902C42.9894 252.466 43.1069 252.075 43.1748 250.934C43.2348 249.924 43.3746 249.382 43.6542 249.074C43.8712 248.835 44.1067 248.348 44.1776 247.992C44.2827 247.461 44.1834 247.202 43.6326 246.569C42.7522 245.558 42.8771 244.919 44.0472 244.447C44.5075 244.261 45.019 244.162 45.1839 244.226C45.3489 244.289 46.298 245.626 47.2928 247.196L49.1016 250.051V261.28C49.1016 272.436 49.1048 272.516 49.5747 273.68L50.0478 274.851L51.0261 274.851L52.0044 274.851L55.6518 281.418L59.2992 287.985L64.9976 287.992L70.696 288L74.3541 281.43L78.0122 274.86L78.9834 274.856L79.9548 274.851L80.5078 273.565L81.061 272.279V261.065V249.852L82.365 247.796L83.6692 245.74L83.9241 247.265C84.3925 250.07 85.53 252.039 87.3807 253.249L88.4175 253.926L88.3721 256.171C88.3412 257.684 88.4146 258.575 88.5969 258.904C89.2726 260.125 91.416 260.611 92.7594 259.847C93.6721 259.329 94.7278 258.033 94.7278 257.432C94.7278 257.154 94.5386 256.808 94.3073 256.662C93.9734 256.452 93.8868 256.168 93.8868 255.283V254.168L94.9252 253.796C96.966 253.065 98.0579 251.018 99.4492 245.315C100.318 241.754 101.313 235.89 101.779 231.589C102.239 227.34 102.43 211.609 102.111 204.231C101.723 195.281 101.275 190.199 99.9603 179.847C99.7948 178.544 99.7959 177.638 99.9643 176.56C100.589 172.559 101.069 164.941 101.457 152.91C101.736 144.257 102.082 123.25 102.085 114.827L102.087 108.236L102.573 107.775C102.841 107.521 103.255 107.314 103.492 107.314C103.73 107.314 106.783 108.183 110.277 109.244C117.472 111.43 117.892 111.475 119.264 110.207C119.842 109.673 120.024 109.318 120.109 108.558C120.261 107.193 119.593 105.706 118.653 105.317C118.273 105.16 115.265 104.197 111.969 103.177L105.977 101.323L105.556 100.449C105.004 99.3007 103.974 98.6191 102.792 98.6191H101.877V96.829C101.877 95.8443 101.953 94.9912 102.046 94.9331C102.14 94.8749 102.687 94.7642 103.263 94.6873C104.254 94.5545 104.359 94.5891 105.248 95.3445C107.305 97.0911 111.357 98.3983 114.734 98.4043C116.772 98.4079 120.757 97.7263 122.857 97.0152C126.193 95.8857 129 94.0525 129 93.004C129 92.1231 126.625 89.863 124.762 88.9706C122.146 87.7173 120.83 87.5442 114.702 87.6473C108.531 87.7512 107.341 87.9686 104.086 89.5871C103.045 90.1044 102.161 90.4942 102.121 90.453C102.08 90.4121 101.679 88.5893 101.23 86.4022C100.325 81.9941 99.3503 78.3992 98.1128 74.8998C96.573 70.5464 96.3523 70.3174 93.9145 70.5458L92.4578 70.6823L93.1708 68.5351C94.4646 64.6397 94.793 61.4977 94.2196 58.503C93.3704 54.0673 90.1181 47.7047 86.5813 43.5599L85.3128 42.0735L85.2256 38.8004C85.1497 35.9552 85.0767 35.4 84.668 34.5517C83.841 32.8352 82.312 31.6041 81.0071 31.6041C80.5416 31.6041 79.6007 32.0194 78.6024 32.6653C78.1802 32.9383 78.0419 32.8948 76.9729 32.1519L75.8045 31.3403V19.4305V7.52052L74.1434 3.81604L72.4824 0.111338L65.034 0.0557751L57.5856 0L55.9676 3.66101Z" fill="black"/>
</svg>
