<svg width="66" height="98" viewBox="0 0 66 98" fill="none" xmlns="http://www.w3.org/2000/svg">
<mask id="path-1-inside-1_245_25" fill="white">
<path fill-rule="evenodd" clip-rule="evenodd" d="M2.14016 0.177242C1.06147 0.329793 0.362054 0.93502 0.092381 1.94947C-0.261576 3.28109 0.431031 4.83569 1.66658 5.48283C2.1549 5.73855 2.89286 5.78468 6.07129 5.75846L9.88923 5.72687L11.7909 8.17496L13.6926 10.6229L13.0372 10.9634C12.6769 11.1508 12.2772 11.4738 12.1492 11.6813C11.9298 12.037 11.6928 12.0586 8.00247 12.0586C5.49585 12.0586 3.91958 12.1363 3.61967 12.2749C2.68914 12.7042 2.54174 14.1252 3.35094 14.8677C3.68978 15.1787 4.17754 15.2231 7.82218 15.2754C11.8353 15.3326 11.9219 15.3424 12.3855 15.7895C13.2289 16.603 13.6522 16.6523 19.7851 16.6523H25.6482L26.6233 17.4913C27.1594 17.9526 27.9371 18.5124 28.3513 18.7354L29.1044 19.1406L27.0285 19.1439C23.6764 19.1492 21.2263 19.8477 18.597 21.5474C15.4677 23.5701 13.2578 26.7641 12.3711 30.545C12.0139 32.068 12.0016 32.7963 12.0508 49.4171L12.102 66.7051L12.6084 67.7995C13.2665 69.2215 14.6358 70.69 15.878 71.3055C16.4217 71.5748 17.7504 72.0359 18.8308 72.3299L20.795 72.8643L20.8895 78.4938C20.9415 81.5898 21.046 84.2195 21.1218 84.3374C21.1973 84.4553 21.5163 84.6596 21.8304 84.7912C22.2815 84.9805 22.4013 85.1482 22.4013 85.5906C22.4013 85.9295 22.5843 86.3355 22.8653 86.6199C23.2956 87.056 23.4647 87.0898 25.2118 87.0898H27.0946L27.1583 90.3916C27.2137 93.2568 27.2745 93.8086 27.619 94.5644C28.2064 95.853 29.0863 96.7618 30.3804 97.4168C31.3644 97.9148 31.7446 98 32.9841 98C34.2237 98 34.6039 97.9148 35.5879 97.4168C36.882 96.7618 37.7619 95.853 38.3493 94.5644C38.6938 93.8086 38.7546 93.2568 38.81 90.3916L38.8737 87.0898H40.7565C42.5036 87.0898 42.6727 87.056 43.103 86.6199C43.384 86.3355 43.567 85.9295 43.567 85.5906C43.567 85.1482 43.6868 84.9805 44.1379 84.7912C44.452 84.6596 44.7709 84.4553 44.8465 84.3374C44.9223 84.2195 45.0268 81.5898 45.0788 78.4938L45.1733 72.8643L47.1375 72.3299C48.2179 72.0359 49.5466 71.5748 50.0903 71.3055C51.3325 70.69 52.7018 69.2215 53.3598 67.7995L53.8663 66.7051L53.9175 49.4171C53.9667 32.7963 53.9544 32.068 53.5972 30.545C52.7116 26.7689 50.5212 23.6002 47.3685 21.5345C44.8324 19.8728 42.2702 19.1462 38.8977 19.1322L36.8582 19.1238L37.6141 18.7251C38.0299 18.5059 38.8089 17.9497 39.345 17.4894L40.3201 16.6523H46.1832C52.3161 16.6523 52.7394 16.603 53.5828 15.7895C54.0464 15.3424 54.133 15.3326 58.1461 15.2754C61.7908 15.2231 62.2785 15.1787 62.6174 14.8677C63.4266 14.1252 63.2792 12.7042 62.3486 12.2749C62.0487 12.1363 60.4724 12.0586 57.9658 12.0586C54.2754 12.0586 54.0385 12.037 53.8191 11.6813C53.6911 11.4738 53.2918 11.1508 52.9316 10.9636L52.2766 10.623L54.0585 8.32617L55.8402 6.0293L59.7668 5.92632C62.9551 5.84287 63.8055 5.76267 64.2908 5.49948C66.1116 4.5124 66.543 1.92019 65.0924 0.683895L64.5147 0.191406H60.6427C58.4349 0.191406 56.6195 0.273328 56.4192 0.381855C56.2259 0.486746 54.4771 2.61844 52.5331 5.11916C50.5889 7.61988 48.9351 9.73684 48.858 9.82335C48.7809 9.90987 47.5376 9.75387 46.0951 9.47672C42.3868 8.7643 42.6835 8.88795 42.5429 7.99714C42.2944 6.42321 41.197 4.43814 39.8284 3.087C37.8354 1.11973 35.6641 0.198105 33.0114 0.193703C30.2483 0.189109 28.0862 1.1159 26.0314 3.18538C24.7636 4.46225 23.6626 6.49518 23.4254 7.99714C23.2848 8.88795 23.5815 8.7643 19.8732 9.47672C18.4307 9.75387 17.1876 9.90987 17.1109 9.82335C17.0341 9.73684 15.5032 7.77109 13.7089 5.45508C11.9145 3.13906 10.1857 0.964113 9.86712 0.62207L9.28771 0L6.15936 0.0256484C4.43871 0.0396211 2.63018 0.107762 2.14016 0.177242ZM25.1209 75.4165C25.7332 75.731 26.4347 75.9883 26.68 75.9883H27.1258V78.7637V81.5391H25.5195H23.9132V78.1895C23.9132 76.3472 23.9345 74.841 23.9604 74.8423C23.9863 74.8437 24.5086 75.1021 25.1209 75.4165ZM42.0551 78.1895V81.5391H40.4488H38.8425V78.7637V75.9883H39.2811C39.5223 75.9883 40.1814 75.7419 40.7457 75.441C41.31 75.1402 41.8354 74.8818 41.9134 74.8668C41.9914 74.8519 42.0551 76.3472 42.0551 78.1895Z"/>
</mask>
<path fill-rule="evenodd" clip-rule="evenodd" d="M2.14016 0.177242C1.06147 0.329793 0.362054 0.93502 0.092381 1.94947C-0.261576 3.28109 0.431031 4.83569 1.66658 5.48283C2.1549 5.73855 2.89286 5.78468 6.07129 5.75846L9.88923 5.72687L11.7909 8.17496L13.6926 10.6229L13.0372 10.9634C12.6769 11.1508 12.2772 11.4738 12.1492 11.6813C11.9298 12.037 11.6928 12.0586 8.00247 12.0586C5.49585 12.0586 3.91958 12.1363 3.61967 12.2749C2.68914 12.7042 2.54174 14.1252 3.35094 14.8677C3.68978 15.1787 4.17754 15.2231 7.82218 15.2754C11.8353 15.3326 11.9219 15.3424 12.3855 15.7895C13.2289 16.603 13.6522 16.6523 19.7851 16.6523H25.6482L26.6233 17.4913C27.1594 17.9526 27.9371 18.5124 28.3513 18.7354L29.1044 19.1406L27.0285 19.1439C23.6764 19.1492 21.2263 19.8477 18.597 21.5474C15.4677 23.5701 13.2578 26.7641 12.3711 30.545C12.0139 32.068 12.0016 32.7963 12.0508 49.4171L12.102 66.7051L12.6084 67.7995C13.2665 69.2215 14.6358 70.69 15.878 71.3055C16.4217 71.5748 17.7504 72.0359 18.8308 72.3299L20.795 72.8643L20.8895 78.4938C20.9415 81.5898 21.046 84.2195 21.1218 84.3374C21.1973 84.4553 21.5163 84.6596 21.8304 84.7912C22.2815 84.9805 22.4013 85.1482 22.4013 85.5906C22.4013 85.9295 22.5843 86.3355 22.8653 86.6199C23.2956 87.056 23.4647 87.0898 25.2118 87.0898H27.0946L27.1583 90.3916C27.2137 93.2568 27.2745 93.8086 27.619 94.5644C28.2064 95.853 29.0863 96.7618 30.3804 97.4168C31.3644 97.9148 31.7446 98 32.9841 98C34.2237 98 34.6039 97.9148 35.5879 97.4168C36.882 96.7618 37.7619 95.853 38.3493 94.5644C38.6938 93.8086 38.7546 93.2568 38.81 90.3916L38.8737 87.0898H40.7565C42.5036 87.0898 42.6727 87.056 43.103 86.6199C43.384 86.3355 43.567 85.9295 43.567 85.5906C43.567 85.1482 43.6868 84.9805 44.1379 84.7912C44.452 84.6596 44.7709 84.4553 44.8465 84.3374C44.9223 84.2195 45.0268 81.5898 45.0788 78.4938L45.1733 72.8643L47.1375 72.3299C48.2179 72.0359 49.5466 71.5748 50.0903 71.3055C51.3325 70.69 52.7018 69.2215 53.3598 67.7995L53.8663 66.7051L53.9175 49.4171C53.9667 32.7963 53.9544 32.068 53.5972 30.545C52.7116 26.7689 50.5212 23.6002 47.3685 21.5345C44.8324 19.8728 42.2702 19.1462 38.8977 19.1322L36.8582 19.1238L37.6141 18.7251C38.0299 18.5059 38.8089 17.9497 39.345 17.4894L40.3201 16.6523H46.1832C52.3161 16.6523 52.7394 16.603 53.5828 15.7895C54.0464 15.3424 54.133 15.3326 58.1461 15.2754C61.7908 15.2231 62.2785 15.1787 62.6174 14.8677C63.4266 14.1252 63.2792 12.7042 62.3486 12.2749C62.0487 12.1363 60.4724 12.0586 57.9658 12.0586C54.2754 12.0586 54.0385 12.037 53.8191 11.6813C53.6911 11.4738 53.2918 11.1508 52.9316 10.9636L52.2766 10.623L54.0585 8.32617L55.8402 6.0293L59.7668 5.92632C62.9551 5.84287 63.8055 5.76267 64.2908 5.49948C66.1116 4.5124 66.543 1.92019 65.0924 0.683895L64.5147 0.191406H60.6427C58.4349 0.191406 56.6195 0.273328 56.4192 0.381855C56.2259 0.486746 54.4771 2.61844 52.5331 5.11916C50.5889 7.61988 48.9351 9.73684 48.858 9.82335C48.7809 9.90987 47.5376 9.75387 46.0951 9.47672C42.3868 8.7643 42.6835 8.88795 42.5429 7.99714C42.2944 6.42321 41.197 4.43814 39.8284 3.087C37.8354 1.11973 35.6641 0.198105 33.0114 0.193703C30.2483 0.189109 28.0862 1.1159 26.0314 3.18538C24.7636 4.46225 23.6626 6.49518 23.4254 7.99714C23.2848 8.88795 23.5815 8.7643 19.8732 9.47672C18.4307 9.75387 17.1876 9.90987 17.1109 9.82335C17.0341 9.73684 15.5032 7.77109 13.7089 5.45508C11.9145 3.13906 10.1857 0.964113 9.86712 0.62207L9.28771 0L6.15936 0.0256484C4.43871 0.0396211 2.63018 0.107762 2.14016 0.177242ZM25.1209 75.4165C25.7332 75.731 26.4347 75.9883 26.68 75.9883H27.1258V78.7637V81.5391H25.5195H23.9132V78.1895C23.9132 76.3472 23.9345 74.841 23.9604 74.8423C23.9863 74.8437 24.5086 75.1021 25.1209 75.4165ZM42.0551 78.1895V81.5391H40.4488H38.8425V78.7637V75.9883H39.2811C39.5223 75.9883 40.1814 75.7419 40.7457 75.441C41.31 75.1402 41.8354 74.8818 41.9134 74.8668C41.9914 74.8519 42.0551 76.3472 42.0551 78.1895Z" fill="white" stroke="url(#paint0_angular_245_25)" stroke-width="2" mask="url(#path-1-inside-1_245_25)"/>
<defs>
<radialGradient id="paint0_angular_245_25" cx="0" cy="0" r="1" gradientUnits="userSpaceOnUse" gradientTransform="translate(32.9808 49) rotate(90) scale(49 32.9808)">
<stop offset="0.109375" stop-color="#A9BAC9"/>
<stop offset="0.276042" stop-color="#A8C2EA"/>
<stop offset="0.458333" stop-color="#9A9BAA"/>
<stop offset="0.614583" stop-color="#9BABC3"/>
<stop offset="0.807292" stop-color="#9DACD1"/>
<stop offset="1" stop-color="#89939F"/>
</radialGradient>
</defs>
</svg>
