<svg width="57" height="84" viewBox="0 0 57 84" fill="none" xmlns="http://www.w3.org/2000/svg">
<mask id="path-1-inside-1_164_580" fill="white">
<path fill-rule="evenodd" clip-rule="evenodd" d="M1.83442 0.151922C0.909828 0.28268 0.310332 0.801445 0.0791837 1.67098C-0.224208 2.81236 0.369455 4.14488 1.42849 4.69957C1.84705 4.91876 2.47959 4.9583 5.20397 4.93582L8.47649 4.90875L10.1065 7.00711L11.7365 9.1053L11.1748 9.39717C10.8659 9.55779 10.5233 9.83473 10.4136 10.0126C10.2256 10.3174 10.0224 10.3359 6.85926 10.3359C4.71073 10.3359 3.35964 10.4025 3.10258 10.5213C2.30498 10.8893 2.17863 12.1073 2.87224 12.7437C3.16267 13.0103 3.58075 13.0484 6.70473 13.0932C10.1446 13.1422 10.2188 13.1506 10.6161 13.5338C11.339 14.2311 11.7019 14.2734 16.9587 14.2734H21.9842L22.82 14.9925C23.2795 15.3879 23.9461 15.8678 24.3011 16.0589L24.9466 16.4062L23.1673 16.409C20.294 16.4136 18.1939 17.0123 15.9403 18.4692C13.258 20.203 11.3638 22.9407 10.6038 26.1814C10.2976 27.4869 10.2871 28.1111 10.3292 42.3575L10.3731 57.1758L10.8072 58.1139C11.3713 59.3327 12.545 60.5914 13.6097 61.119C14.0757 61.3499 15.2146 61.7451 16.1407 61.9971L17.8243 62.4551L17.9053 67.2804C17.9498 69.9341 18.0394 72.1882 18.1044 72.2892C18.1692 72.3903 18.4426 72.5653 18.7118 72.6782C19.0984 72.8405 19.2011 72.9842 19.2011 73.3633C19.2011 73.6539 19.3579 74.0019 19.5988 74.2457C19.9676 74.6194 20.1126 74.6484 21.6101 74.6484H23.224L23.2786 77.4785C23.326 79.9344 23.3782 80.4074 23.6735 81.0552C24.1769 82.1597 24.9311 82.9387 26.0403 83.5001C26.8838 83.927 27.2097 84 28.2721 84C29.3346 84 29.6605 83.927 30.5039 83.5001C31.6132 82.9387 32.3674 82.1597 32.8708 81.0552C33.1661 80.4074 33.2182 79.9344 33.2657 77.4785L33.3203 74.6484H34.9341C36.4316 74.6484 36.5766 74.6194 36.9454 74.2457C37.1863 74.0019 37.3431 73.6539 37.3431 73.3633C37.3431 72.9842 37.4458 72.8405 37.8325 72.6782C38.1017 72.5653 38.3751 72.3903 38.4399 72.2892C38.5048 72.1882 38.5944 69.9341 38.639 67.2804L38.72 62.4551L40.4036 61.9971C41.3297 61.7451 42.4685 61.3499 42.9346 61.119C43.9993 60.5914 45.173 59.3327 45.737 58.1139L46.1711 57.1758L46.215 42.3575C46.2571 28.1111 46.2466 27.4869 45.9405 26.1814C45.1814 22.9448 43.3039 20.2287 40.6015 18.4582C38.4277 17.0338 36.2316 16.411 33.3409 16.399L31.5928 16.3918L32.2407 16.0501C32.597 15.8622 33.2647 15.3855 33.7243 14.9909L34.5601 14.2734H39.5856C44.8424 14.2734 45.2052 14.2311 45.9282 13.5338C46.3255 13.1506 46.3997 13.1422 49.8395 13.0932C52.9635 13.0484 53.3816 13.0103 53.672 12.7437C54.3656 12.1073 54.2393 10.8893 53.4417 10.5213C53.1846 10.4025 51.8335 10.3359 49.685 10.3359C46.5218 10.3359 46.3187 10.3174 46.1306 10.0126C46.021 9.83473 45.6787 9.55779 45.37 9.39734L44.8085 9.10547L46.3359 7.13672L47.863 5.16797L51.2287 5.0797C53.9615 5.00817 54.6904 4.93943 55.1064 4.71384C56.6671 3.86777 57.0369 1.64588 55.7935 0.586195L55.2983 0.164062H51.9795C50.087 0.164062 48.531 0.234281 48.3593 0.327305C48.1936 0.417211 46.6947 2.24438 45.0283 4.38785C43.3619 6.53133 41.9444 8.34586 41.8783 8.42002C41.8122 8.49417 40.7465 8.36046 39.5101 8.1229C36.3315 7.51226 36.5858 7.61824 36.4653 6.8547C36.2523 5.50561 35.3117 3.80412 34.1386 2.646C32.4304 0.959766 30.5692 0.169805 28.2955 0.166031C25.9271 0.162094 24.0739 0.956484 22.3127 2.73033C21.2259 3.82479 20.2822 5.5673 20.0789 6.8547C19.9584 7.61824 20.2127 7.51226 17.0341 8.1229C15.7977 8.36046 14.7322 8.49417 14.6665 8.42002C14.6007 8.34586 13.2885 6.66094 11.7505 4.67578C10.2124 2.69062 8.73063 0.826383 8.45753 0.533203L7.9609 0L5.27945 0.0219844C3.80461 0.0339609 2.25444 0.0923672 1.83442 0.151922ZM21.5322 64.6428C22.057 64.9123 22.6583 65.1328 22.8686 65.1328H23.2507V67.5117V69.8906H21.8738H20.497V67.0195C20.497 65.4404 20.5153 64.1494 20.5375 64.1506C20.5597 64.1517 21.0074 64.3732 21.5322 64.6428ZM36.0473 67.0195V69.8906H34.6704H33.2936V67.5117V65.1328H33.6695C33.8762 65.1328 34.4412 64.9217 34.9249 64.6638C35.4086 64.4059 35.8589 64.1844 35.9258 64.1716C35.9927 64.1588 36.0473 65.4404 36.0473 67.0195Z"/>
</mask>
<path fill-rule="evenodd" clip-rule="evenodd" d="M1.83442 0.151922C0.909828 0.28268 0.310332 0.801445 0.0791837 1.67098C-0.224208 2.81236 0.369455 4.14488 1.42849 4.69957C1.84705 4.91876 2.47959 4.9583 5.20397 4.93582L8.47649 4.90875L10.1065 7.00711L11.7365 9.1053L11.1748 9.39717C10.8659 9.55779 10.5233 9.83473 10.4136 10.0126C10.2256 10.3174 10.0224 10.3359 6.85926 10.3359C4.71073 10.3359 3.35964 10.4025 3.10258 10.5213C2.30498 10.8893 2.17863 12.1073 2.87224 12.7437C3.16267 13.0103 3.58075 13.0484 6.70473 13.0932C10.1446 13.1422 10.2188 13.1506 10.6161 13.5338C11.339 14.2311 11.7019 14.2734 16.9587 14.2734H21.9842L22.82 14.9925C23.2795 15.3879 23.9461 15.8678 24.3011 16.0589L24.9466 16.4062L23.1673 16.409C20.294 16.4136 18.1939 17.0123 15.9403 18.4692C13.258 20.203 11.3638 22.9407 10.6038 26.1814C10.2976 27.4869 10.2871 28.1111 10.3292 42.3575L10.3731 57.1758L10.8072 58.1139C11.3713 59.3327 12.545 60.5914 13.6097 61.119C14.0757 61.3499 15.2146 61.7451 16.1407 61.9971L17.8243 62.4551L17.9053 67.2804C17.9498 69.9341 18.0394 72.1882 18.1044 72.2892C18.1692 72.3903 18.4426 72.5653 18.7118 72.6782C19.0984 72.8405 19.2011 72.9842 19.2011 73.3633C19.2011 73.6539 19.3579 74.0019 19.5988 74.2457C19.9676 74.6194 20.1126 74.6484 21.6101 74.6484H23.224L23.2786 77.4785C23.326 79.9344 23.3782 80.4074 23.6735 81.0552C24.1769 82.1597 24.9311 82.9387 26.0403 83.5001C26.8838 83.927 27.2097 84 28.2721 84C29.3346 84 29.6605 83.927 30.5039 83.5001C31.6132 82.9387 32.3674 82.1597 32.8708 81.0552C33.1661 80.4074 33.2182 79.9344 33.2657 77.4785L33.3203 74.6484H34.9341C36.4316 74.6484 36.5766 74.6194 36.9454 74.2457C37.1863 74.0019 37.3431 73.6539 37.3431 73.3633C37.3431 72.9842 37.4458 72.8405 37.8325 72.6782C38.1017 72.5653 38.3751 72.3903 38.4399 72.2892C38.5048 72.1882 38.5944 69.9341 38.639 67.2804L38.72 62.4551L40.4036 61.9971C41.3297 61.7451 42.4685 61.3499 42.9346 61.119C43.9993 60.5914 45.173 59.3327 45.737 58.1139L46.1711 57.1758L46.215 42.3575C46.2571 28.1111 46.2466 27.4869 45.9405 26.1814C45.1814 22.9448 43.3039 20.2287 40.6015 18.4582C38.4277 17.0338 36.2316 16.411 33.3409 16.399L31.5928 16.3918L32.2407 16.0501C32.597 15.8622 33.2647 15.3855 33.7243 14.9909L34.5601 14.2734H39.5856C44.8424 14.2734 45.2052 14.2311 45.9282 13.5338C46.3255 13.1506 46.3997 13.1422 49.8395 13.0932C52.9635 13.0484 53.3816 13.0103 53.672 12.7437C54.3656 12.1073 54.2393 10.8893 53.4417 10.5213C53.1846 10.4025 51.8335 10.3359 49.685 10.3359C46.5218 10.3359 46.3187 10.3174 46.1306 10.0126C46.021 9.83473 45.6787 9.55779 45.37 9.39734L44.8085 9.10547L46.3359 7.13672L47.863 5.16797L51.2287 5.0797C53.9615 5.00817 54.6904 4.93943 55.1064 4.71384C56.6671 3.86777 57.0369 1.64588 55.7935 0.586195L55.2983 0.164062H51.9795C50.087 0.164062 48.531 0.234281 48.3593 0.327305C48.1936 0.417211 46.6947 2.24438 45.0283 4.38785C43.3619 6.53133 41.9444 8.34586 41.8783 8.42002C41.8122 8.49417 40.7465 8.36046 39.5101 8.1229C36.3315 7.51226 36.5858 7.61824 36.4653 6.8547C36.2523 5.50561 35.3117 3.80412 34.1386 2.646C32.4304 0.959766 30.5692 0.169805 28.2955 0.166031C25.9271 0.162094 24.0739 0.956484 22.3127 2.73033C21.2259 3.82479 20.2822 5.5673 20.0789 6.8547C19.9584 7.61824 20.2127 7.51226 17.0341 8.1229C15.7977 8.36046 14.7322 8.49417 14.6665 8.42002C14.6007 8.34586 13.2885 6.66094 11.7505 4.67578C10.2124 2.69062 8.73063 0.826383 8.45753 0.533203L7.9609 0L5.27945 0.0219844C3.80461 0.0339609 2.25444 0.0923672 1.83442 0.151922ZM21.5322 64.6428C22.057 64.9123 22.6583 65.1328 22.8686 65.1328H23.2507V67.5117V69.8906H21.8738H20.497V67.0195C20.497 65.4404 20.5153 64.1494 20.5375 64.1506C20.5597 64.1517 21.0074 64.3732 21.5322 64.6428ZM36.0473 67.0195V69.8906H34.6704H33.2936V67.5117V65.1328H33.6695C33.8762 65.1328 34.4412 64.9217 34.9249 64.6638C35.4086 64.4059 35.8589 64.1844 35.9258 64.1716C35.9927 64.1588 36.0473 65.4404 36.0473 67.0195Z" fill="black" stroke="url(#paint0_angular_164_580)" stroke-width="2" mask="url(#path-1-inside-1_164_580)"/>
<defs>
<radialGradient id="paint0_angular_164_580" cx="0" cy="0" r="1" gradientUnits="userSpaceOnUse" gradientTransform="translate(28.2692 42) rotate(90) scale(42 28.2692)">
<stop offset="0.109375" stop-color="#A9BAC9"/>
<stop offset="0.276042" stop-color="#A8C2EA"/>
<stop offset="0.458333" stop-color="#9A9BAA"/>
<stop offset="0.614583" stop-color="#9BABC3"/>
<stop offset="0.807292" stop-color="#9DACD1"/>
<stop offset="1" stop-color="#89939F"/>
</radialGradient>
</defs>
</svg>
