<svg width="495" height="674" viewBox="0 0 495 674" fill="none" xmlns="http://www.w3.org/2000/svg">
<path fill-rule="evenodd" clip-rule="evenodd" d="M495 425.837V247.5V246.928H494.999C494.691 110.501 384 0 247.5 0C111 0 0.309053 110.501 0.000646031 246.928H0V247.5V425.837V426.409H0.000645996C0.309044 562.836 111 673.337 247.5 673.337C384 673.337 494.691 562.836 494.999 426.409H495V425.837Z" fill="url(#paint0_angular_251_309)"/>
<path fill-rule="evenodd" clip-rule="evenodd" d="M489.287 425.266V247.5V244.642H489.27C487.739 112.425 380.083 5.71593 247.503 5.71593C114.923 5.71593 7.26671 112.425 5.73529 244.642H5.71875V247.5V425.266H5.71941C5.71897 425.456 5.71875 425.647 5.71875 425.837C5.71875 559.371 113.969 667.621 247.503 667.621C381.036 667.621 489.287 559.371 489.287 425.837C489.287 425.647 489.287 425.456 489.286 425.266H489.287Z" fill="black"/>
<path fill-rule="evenodd" clip-rule="evenodd" d="M438.985 426.98V247.5V244.642H438.964C437.436 140.206 352.301 56.0162 247.501 56.0162C142.702 56.0162 57.5664 140.206 56.0385 244.642H56.0176V247.5V426.98V427.552H56.0184C56.3267 533.043 141.938 618.464 247.501 618.464C353.064 618.464 438.676 533.043 438.984 427.552H438.985V426.98Z" fill="url(#paint1_angular_251_309)"/>
<path fill-rule="evenodd" clip-rule="evenodd" d="M433.268 246.357C433.268 246.547 433.268 246.738 433.267 246.928H433.268V427.552H433.267C433.268 427.742 433.268 427.933 433.268 428.124C433.268 530.72 350.097 613.891 247.5 613.891C144.904 613.891 61.7324 530.72 61.7324 428.124C61.7324 427.933 61.7327 427.742 61.7333 427.552H61.7324V246.928H61.7333C61.7327 246.738 61.7324 246.547 61.7324 246.357C61.7324 143.76 144.904 60.589 247.5 60.589C350.097 60.589 433.268 143.76 433.268 246.357Z" fill="black"/>
<path fill-rule="evenodd" clip-rule="evenodd" d="M79.1989 167.612L249 337H61.7324V246.929H61.7333C61.7327 246.738 61.7324 246.548 61.7324 246.357C61.7324 218.207 67.9935 191.52 79.1989 167.612Z" fill="#FB5555"/>
<path fill-rule="evenodd" clip-rule="evenodd" d="M382.967 428.124V246.357V245.785H382.965C382.657 171.232 322.125 110.889 247.499 110.889C172.873 110.889 112.34 171.232 112.032 245.785H112.031V246.357V428.124V428.695H112.032C112.34 503.249 172.873 563.591 247.499 563.591C322.125 563.591 382.657 503.249 382.965 428.695H382.967V428.124Z" fill="url(#paint2_angular_251_309)"/>
<path fill-rule="evenodd" clip-rule="evenodd" d="M377.253 246.357C377.253 246.548 377.253 246.738 377.252 246.929H377.253V428.124V428.695H377.252C376.944 500.092 318.971 557.875 247.502 557.875C176.032 557.875 118.059 500.092 117.751 428.695H117.75V428.124V246.929H117.751C117.75 246.738 117.75 246.548 117.75 246.357C117.75 174.697 175.842 116.605 247.502 116.605C319.162 116.605 377.253 174.697 377.253 246.357Z" fill="black"/>
<defs>
<radialGradient id="paint0_angular_251_309" cx="0" cy="0" r="1" gradientUnits="userSpaceOnUse" gradientTransform="translate(247.5 336.669) rotate(90) scale(336.669 247.5)">
<stop offset="0.0260417" stop-color="#CDD8F4"/>
<stop offset="0.208333" stop-color="#B5D1FD"/>
<stop offset="0.395833" stop-color="#9A9BAA"/>
<stop offset="0.5625" stop-color="#9BABC3"/>
<stop offset="0.755208" stop-color="#ADBFEB"/>
<stop offset="0.953125" stop-color="#89939F"/>
</radialGradient>
<radialGradient id="paint1_angular_251_309" cx="0" cy="0" r="1" gradientUnits="userSpaceOnUse" gradientTransform="translate(247.501 337.24) rotate(90) scale(281.224 191.484)">
<stop offset="0.0364583" stop-color="#CDD8F4"/>
<stop offset="0.208333" stop-color="#B5D1FD"/>
<stop offset="0.390625" stop-color="#9A9BAA"/>
<stop offset="0.572917" stop-color="#9BABC3"/>
<stop offset="0.755208" stop-color="#ADBFEB"/>
<stop offset="0.953125" stop-color="#89939F"/>
</radialGradient>
<radialGradient id="paint2_angular_251_309" cx="0" cy="0" r="1" gradientUnits="userSpaceOnUse" gradientTransform="translate(247.499 337.24) rotate(90) scale(226.351 135.468)">
<stop offset="0.0416667" stop-color="#CDD8F4"/>
<stop offset="0.213542" stop-color="#B5D1FD"/>
<stop offset="0.390625" stop-color="#9A9BAA"/>
<stop offset="0.5625" stop-color="#9BABC3"/>
<stop offset="0.760417" stop-color="#ADBFEB"/>
<stop offset="0.947917" stop-color="#89939F"/>
</radialGradient>
</defs>
</svg>
