<svg width="84" height="62" viewBox="0 0 84 62" fill="none" xmlns="http://www.w3.org/2000/svg">
<mask id="path-1-inside-1_199_207" fill="white">
<path fill-rule="evenodd" clip-rule="evenodd" d="M32.6544 0.268025C34.6833 0.171962 36.7492 0.0664703 37.2451 0.0336364C38.8389 -0.0720172 50.4996 0.0895513 53.8866 0.264286C58.1514 0.484208 62.449 0.8709 63.8727 1.16283C64.4956 1.29059 65.2508 1.56122 65.551 1.76424C66.9297 2.69659 69.4541 6.748 72.6876 13.2176L72.7886 13.4197C74.4748 16.7937 74.9176 17.6798 75.3246 17.6637C75.4696 17.6579 75.61 17.5377 75.8004 17.3747L75.8323 17.3475C76.2915 16.9554 76.5944 16.2754 76.5944 15.6364C76.5944 14.6626 77.0164 14.517 79.5867 14.6036C82.0219 14.6857 82.8786 14.9297 83.5631 15.7362C84.162 16.4418 84.1424 17.6001 83.5215 18.177C82.5146 19.1124 80.8085 19.6516 77.7866 19.989L76.1097 20.1763L77.6761 23.0206C80.6499 28.4203 81.1062 29.472 81.6214 32.1112C81.9919 34.0097 81.987 39.8407 81.6124 42.7375C81.0266 47.2692 80.2535 50.3472 79.4341 51.4115L78.8758 52.1366L78.9237 55.688C78.9694 59.0634 78.9548 59.2622 78.6321 59.7004C77.9368 60.6447 77.523 60.73 73.6432 60.73C68.4432 60.73 68.3973 60.6918 68.3969 56.3688L68.3966 53.7138L54.5834 53.8112C46.9862 53.8646 35.2208 53.9527 28.4383 54.0069L16.1062 54.1054L16.2033 56.4021C16.3149 59.047 16.1752 59.7873 15.4312 60.4945L14.9264 60.9743L11.0428 61.019C7.37315 61.0611 7.12951 61.0452 6.61666 60.731C5.71195 60.1765 5.60178 59.6717 5.60178 56.084V52.89L5.08548 52.3071C4.31948 51.4421 3.84811 50.2839 3.31247 47.9501C2.05346 42.4659 1.69964 36.1698 2.42383 32.1436C2.79814 30.0632 3.41347 28.5993 5.74983 24.2322C6.9308 22.0245 7.89715 20.2008 7.89715 20.1797C7.89715 20.1585 7.30609 20.0924 6.58387 20.0327C3.79417 19.8021 1.42617 19.0857 0.478177 18.1861C-0.142229 17.5972 -0.161903 16.4412 0.436533 15.7362C1.12105 14.9297 1.97771 14.6857 4.41294 14.6036C7.00572 14.5161 7.40496 14.6582 7.40594 15.6689C7.40627 16.0021 7.55022 16.5084 7.72598 16.7942C8.0293 17.2874 8.81907 17.9343 8.95433 17.8002C8.98909 17.7657 9.75525 16.2012 10.6572 14.3237C14.7588 5.78363 17.2021 2.04561 18.9884 1.57683C20.9181 1.07034 26.0148 0.582223 32.6544 0.268025ZM21.9769 32.8549L24.3251 36.3477C24.8144 37.1239 25.3232 38.6762 23.4445 38.6762H10.8226C10.0398 38.2882 8.76785 37.512 7.30018 34.3102C6.76648 33.146 6.30217 30.8756 7.00665 29.9442C7.20234 29.5561 7.88725 28.78 9.35492 29.071L20.8027 31.9817C21.0637 32.0787 21.6638 32.3892 21.9769 32.8549ZM59.6749 36.3477L62.0231 32.8549C62.3362 32.3892 62.9363 32.0787 63.1973 31.9817L74.6451 29.071C76.1128 28.78 76.7977 29.5561 76.9934 29.9442C77.6978 30.8756 77.2335 33.146 76.6998 34.3102C75.2322 37.512 73.9602 38.2882 73.1774 38.6762H60.5555C58.6768 38.6762 59.1856 37.1239 59.6749 36.3477ZM41.841 4.54743C41.8429 4.54738 41.8444 4.54582 41.8444 4.54392C41.8444 4.54286 41.8449 4.54192 41.8456 4.54128L41.8468 4.54059L41.848 4.54042L41.9917 4.54384L42.1353 4.54042C42.1365 4.54039 42.1376 4.54097 42.1383 4.54188C42.1387 4.54246 42.1389 4.54316 42.1389 4.54392C42.1389 4.54582 42.1404 4.54738 42.1423 4.54743L63.9849 5.06757C64.1688 5.07195 64.3354 5.17691 64.4188 5.34086L70.7049 17.7069C70.874 18.0395 70.6323 18.4335 70.2592 18.4335H42.1389H41.8444H13.7242C13.351 18.4335 13.1093 18.0395 13.2784 17.7069L19.5646 5.34086C19.6479 5.17691 19.8145 5.07195 19.9984 5.06757L41.841 4.54743ZM25.3812 44.6146C25.3812 44.3384 25.6051 44.1146 25.8812 44.1146H58.1186C58.3948 44.1146 58.6186 44.3384 58.6186 44.6146V49.0534C58.6186 49.3296 58.3948 49.5534 58.1186 49.5534H25.8812C25.6051 49.5534 25.3812 49.3296 25.3812 49.0534V44.6146ZM55.5969 35.6551H28.4027V38.6767H55.5969V35.6551ZM76.749 46.5321C76.749 48.8684 74.855 50.7623 72.5187 50.7623C70.1825 50.7623 68.2885 48.8684 68.2885 46.5321C68.2885 44.1958 70.1825 42.3019 72.5187 42.3019C74.855 42.3019 76.749 44.1958 76.749 46.5321ZM11.0413 50.7623C13.3776 50.7623 15.2715 48.8684 15.2715 46.5321C15.2715 44.1958 13.3776 42.3019 11.0413 42.3019C8.70501 42.3019 6.81108 44.1958 6.81108 46.5321C6.81108 48.8684 8.70501 50.7623 11.0413 50.7623Z"/>
</mask>
<path fill-rule="evenodd" clip-rule="evenodd" d="M32.6544 0.268025C34.6833 0.171962 36.7492 0.0664703 37.2451 0.0336364C38.8389 -0.0720172 50.4996 0.0895513 53.8866 0.264286C58.1514 0.484208 62.449 0.8709 63.8727 1.16283C64.4956 1.29059 65.2508 1.56122 65.551 1.76424C66.9297 2.69659 69.4541 6.748 72.6876 13.2176L72.7886 13.4197C74.4748 16.7937 74.9176 17.6798 75.3246 17.6637C75.4696 17.6579 75.61 17.5377 75.8004 17.3747L75.8323 17.3475C76.2915 16.9554 76.5944 16.2754 76.5944 15.6364C76.5944 14.6626 77.0164 14.517 79.5867 14.6036C82.0219 14.6857 82.8786 14.9297 83.5631 15.7362C84.162 16.4418 84.1424 17.6001 83.5215 18.177C82.5146 19.1124 80.8085 19.6516 77.7866 19.989L76.1097 20.1763L77.6761 23.0206C80.6499 28.4203 81.1062 29.472 81.6214 32.1112C81.9919 34.0097 81.987 39.8407 81.6124 42.7375C81.0266 47.2692 80.2535 50.3472 79.4341 51.4115L78.8758 52.1366L78.9237 55.688C78.9694 59.0634 78.9548 59.2622 78.6321 59.7004C77.9368 60.6447 77.523 60.73 73.6432 60.73C68.4432 60.73 68.3973 60.6918 68.3969 56.3688L68.3966 53.7138L54.5834 53.8112C46.9862 53.8646 35.2208 53.9527 28.4383 54.0069L16.1062 54.1054L16.2033 56.4021C16.3149 59.047 16.1752 59.7873 15.4312 60.4945L14.9264 60.9743L11.0428 61.019C7.37315 61.0611 7.12951 61.0452 6.61666 60.731C5.71195 60.1765 5.60178 59.6717 5.60178 56.084V52.89L5.08548 52.3071C4.31948 51.4421 3.84811 50.2839 3.31247 47.9501C2.05346 42.4659 1.69964 36.1698 2.42383 32.1436C2.79814 30.0632 3.41347 28.5993 5.74983 24.2322C6.9308 22.0245 7.89715 20.2008 7.89715 20.1797C7.89715 20.1585 7.30609 20.0924 6.58387 20.0327C3.79417 19.8021 1.42617 19.0857 0.478177 18.1861C-0.142229 17.5972 -0.161903 16.4412 0.436533 15.7362C1.12105 14.9297 1.97771 14.6857 4.41294 14.6036C7.00572 14.5161 7.40496 14.6582 7.40594 15.6689C7.40627 16.0021 7.55022 16.5084 7.72598 16.7942C8.0293 17.2874 8.81907 17.9343 8.95433 17.8002C8.98909 17.7657 9.75525 16.2012 10.6572 14.3237C14.7588 5.78363 17.2021 2.04561 18.9884 1.57683C20.9181 1.07034 26.0148 0.582223 32.6544 0.268025ZM21.9769 32.8549L24.3251 36.3477C24.8144 37.1239 25.3232 38.6762 23.4445 38.6762H10.8226C10.0398 38.2882 8.76785 37.512 7.30018 34.3102C6.76648 33.146 6.30217 30.8756 7.00665 29.9442C7.20234 29.5561 7.88725 28.78 9.35492 29.071L20.8027 31.9817C21.0637 32.0787 21.6638 32.3892 21.9769 32.8549ZM59.6749 36.3477L62.0231 32.8549C62.3362 32.3892 62.9363 32.0787 63.1973 31.9817L74.6451 29.071C76.1128 28.78 76.7977 29.5561 76.9934 29.9442C77.6978 30.8756 77.2335 33.146 76.6998 34.3102C75.2322 37.512 73.9602 38.2882 73.1774 38.6762H60.5555C58.6768 38.6762 59.1856 37.1239 59.6749 36.3477ZM41.841 4.54743C41.8429 4.54738 41.8444 4.54582 41.8444 4.54392C41.8444 4.54286 41.8449 4.54192 41.8456 4.54128L41.8468 4.54059L41.848 4.54042L41.9917 4.54384L42.1353 4.54042C42.1365 4.54039 42.1376 4.54097 42.1383 4.54188C42.1387 4.54246 42.1389 4.54316 42.1389 4.54392C42.1389 4.54582 42.1404 4.54738 42.1423 4.54743L63.9849 5.06757C64.1688 5.07195 64.3354 5.17691 64.4188 5.34086L70.7049 17.7069C70.874 18.0395 70.6323 18.4335 70.2592 18.4335H42.1389H41.8444H13.7242C13.351 18.4335 13.1093 18.0395 13.2784 17.7069L19.5646 5.34086C19.6479 5.17691 19.8145 5.07195 19.9984 5.06757L41.841 4.54743ZM25.3812 44.6146C25.3812 44.3384 25.6051 44.1146 25.8812 44.1146H58.1186C58.3948 44.1146 58.6186 44.3384 58.6186 44.6146V49.0534C58.6186 49.3296 58.3948 49.5534 58.1186 49.5534H25.8812C25.6051 49.5534 25.3812 49.3296 25.3812 49.0534V44.6146ZM55.5969 35.6551H28.4027V38.6767H55.5969V35.6551ZM76.749 46.5321C76.749 48.8684 74.855 50.7623 72.5187 50.7623C70.1825 50.7623 68.2885 48.8684 68.2885 46.5321C68.2885 44.1958 70.1825 42.3019 72.5187 42.3019C74.855 42.3019 76.749 44.1958 76.749 46.5321ZM11.0413 50.7623C13.3776 50.7623 15.2715 48.8684 15.2715 46.5321C15.2715 44.1958 13.3776 42.3019 11.0413 42.3019C8.70501 42.3019 6.81108 44.1958 6.81108 46.5321C6.81108 48.8684 8.70501 50.7623 11.0413 50.7623Z" fill="white"/>
<path d="M37.2451 0.0336364L37.3112 1.03145L37.3113 1.03145L37.2451 0.0336364ZM32.6544 0.268025L32.7016 1.26691L32.7017 1.26691L32.6544 0.268025ZM53.8866 0.264286L53.835 1.26296L53.8351 1.26296L53.8866 0.264286ZM63.8727 1.16283L64.0737 0.183224L64.0736 0.183209L63.8727 1.16283ZM65.551 1.76424L64.9908 2.5926L64.9908 2.59261L65.551 1.76424ZM72.6876 13.2176L73.5821 12.7705L73.5821 12.7705L72.6876 13.2176ZM72.7886 13.4197L73.6831 12.9726L73.6831 12.9726L72.7886 13.4197ZM75.3246 17.6637L75.285 16.6645L75.285 16.6645L75.3246 17.6637ZM75.8004 17.3747L75.1506 16.6147L75.1502 16.615L75.8004 17.3747ZM75.8323 17.3475L75.183 16.587L75.1824 16.5875L75.8323 17.3475ZM79.5867 14.6036L79.6204 13.6042L79.6204 13.6042L79.5867 14.6036ZM83.5631 15.7362L82.8007 16.3833L82.8007 16.3833L83.5631 15.7362ZM83.5215 18.177L84.2021 18.9096L84.2021 18.9096L83.5215 18.177ZM77.7866 19.989L77.8976 20.9828L77.8976 20.9828L77.7866 19.989ZM76.1097 20.1763L75.9987 19.1824L74.5122 19.3484L75.2338 20.6587L76.1097 20.1763ZM77.6761 23.0206L76.8002 23.503L76.8002 23.503L77.6761 23.0206ZM81.6214 32.1112L82.6029 31.9196L82.6029 31.9196L81.6214 32.1112ZM81.6124 42.7375L80.6206 42.6093L80.6206 42.6093L81.6124 42.7375ZM79.4341 51.4115L78.6417 50.8015L78.6417 50.8015L79.4341 51.4115ZM78.8758 52.1366L78.0834 51.5266L77.8712 51.8022L77.8759 52.1501L78.8758 52.1366ZM78.9237 55.688L77.9238 55.7015L77.9238 55.7016L78.9237 55.688ZM78.6321 59.7004L79.4374 60.2934L79.4374 60.2934L78.6321 59.7004ZM68.3969 56.3688L69.3969 56.3687L69.3969 56.3687L68.3969 56.3688ZM68.3966 53.7138L69.3966 53.7137L69.3965 52.7067L68.3896 52.7138L68.3966 53.7138ZM54.5834 53.8112L54.5904 54.8111L54.5904 54.8111L54.5834 53.8112ZM28.4383 54.0069L28.4303 53.0069L28.4303 53.0069L28.4383 54.0069ZM16.1062 54.1054L16.0982 53.1054L15.0634 53.1137L15.1071 54.1476L16.1062 54.1054ZM16.2033 56.4021L17.2024 56.3599L17.2024 56.3599L16.2033 56.4021ZM15.4312 60.4945L16.1202 61.2193L16.1202 61.2193L15.4312 60.4945ZM14.9264 60.9743L14.9379 61.9742L15.3307 61.9697L15.6153 61.6991L14.9264 60.9743ZM11.0428 61.019L11.0543 62.0189L11.0543 62.0189L11.0428 61.019ZM6.61666 60.731L6.09414 61.5836L6.09425 61.5837L6.61666 60.731ZM5.60178 52.89H6.60178V52.5108L6.35035 52.227L5.60178 52.89ZM5.08548 52.3071L4.33681 52.9701L4.33691 52.9702L5.08548 52.3071ZM3.31247 47.9501L4.28713 47.7264L4.28712 47.7264L3.31247 47.9501ZM2.42383 32.1436L1.43964 31.9665L1.43963 31.9665L2.42383 32.1436ZM5.74983 24.2322L6.63157 24.7039L6.63159 24.7039L5.74983 24.2322ZM6.58387 20.0327L6.50147 21.0293L6.50155 21.0293L6.58387 20.0327ZM0.478177 18.1861L-0.210272 18.9113L-0.210207 18.9114L0.478177 18.1861ZM0.436533 15.7362L1.19889 16.3834L1.19896 16.3833L0.436533 15.7362ZM4.41294 14.6036L4.44663 15.603L4.44665 15.603L4.41294 14.6036ZM7.40594 15.6689L6.40594 15.6699L6.40594 15.6699L7.40594 15.6689ZM7.72598 16.7942L8.57776 16.2703L8.57776 16.2703L7.72598 16.7942ZM8.95433 17.8002L9.65837 18.5103L9.65838 18.5103L8.95433 17.8002ZM10.6572 14.3237L11.5586 14.7567L11.5586 14.7566L10.6572 14.3237ZM18.9884 1.57683L19.2422 2.54408L19.2423 2.54407L18.9884 1.57683ZM24.3251 36.3477L25.1711 35.8145L25.1633 35.802L25.155 35.7898L24.3251 36.3477ZM21.9769 32.8549L21.147 33.4128L21.147 33.4129L21.9769 32.8549ZM10.8226 38.6762L10.3784 39.5722L10.5883 39.6762H10.8226V38.6762ZM7.30018 34.3102L8.20922 33.8935L8.20922 33.8935L7.30018 34.3102ZM7.00665 29.9442L7.80421 30.5475L7.8588 30.4753L7.89956 30.3945L7.00665 29.9442ZM9.35492 29.071L9.60133 28.1019L9.57555 28.0953L9.54945 28.0901L9.35492 29.071ZM20.8027 31.9817L21.1513 31.0444L21.1011 31.0257L21.0491 31.0125L20.8027 31.9817ZM62.0231 32.8549L61.1932 32.297L61.1932 32.297L62.0231 32.8549ZM59.6749 36.3477L58.845 35.7898L58.8367 35.802L58.8289 35.8145L59.6749 36.3477ZM63.1973 31.9817L62.9509 31.0125L62.8989 31.0257L62.8487 31.0444L63.1973 31.9817ZM74.6451 29.071L74.4505 28.0901L74.4245 28.0953L74.3987 28.1019L74.6451 29.071ZM76.9934 29.9442L76.1004 30.3945L76.1412 30.4753L76.1958 30.5475L76.9934 29.9442ZM76.6998 34.3102L75.7908 33.8935L75.7908 33.8935L76.6998 34.3102ZM73.1774 38.6762V39.6762H73.4117L73.6216 39.5722L73.1774 38.6762ZM41.841 4.54743L41.8172 3.54771L41.8172 3.54771L41.841 4.54743ZM41.8456 4.54128L41.3482 3.67374L41.2626 3.72284L41.1882 3.78773L41.8456 4.54128ZM41.8468 4.54059L41.6991 3.55155L41.5128 3.57937L41.3494 3.67306L41.8468 4.54059ZM41.848 4.54042L41.8718 3.5407L41.7856 3.53865L41.7003 3.55138L41.848 4.54042ZM41.9917 4.54384L41.9678 5.54355L41.9917 5.54412L42.0155 5.54355L41.9917 4.54384ZM42.1353 4.54042L42.1117 3.5407L42.1115 3.5407L42.1353 4.54042ZM42.1383 4.54188L42.9531 3.96212L42.9515 3.96L42.1383 4.54188ZM42.1423 4.54743L42.1662 3.54771L42.1661 3.54771L42.1423 4.54743ZM63.9849 5.06757L64.0088 4.06786L64.0088 4.06786L63.9849 5.06757ZM64.4188 5.34086L63.5273 5.79399L63.5273 5.79401L64.4188 5.34086ZM70.7049 17.7069L69.8134 18.1601L69.8134 18.1601L70.7049 17.7069ZM13.2784 17.7069L14.1699 18.1601L14.1699 18.1601L13.2784 17.7069ZM19.5646 5.34086L18.6731 4.88771L18.6731 4.88771L19.5646 5.34086ZM19.9984 5.06757L20.0222 6.06729L20.0222 6.06729L19.9984 5.06757ZM28.4027 35.6551V34.6551H27.4027V35.6551H28.4027ZM55.5969 35.6551H56.5969V34.6551H55.5969V35.6551ZM28.4027 38.6767H27.4027V39.6767H28.4027V38.6767ZM55.5969 38.6767V39.6767H56.5969V38.6767H55.5969ZM37.1791 -0.964179C36.6946 -0.932109 34.6397 -0.827091 32.6071 -0.730856L32.7017 1.26691C34.727 1.17101 36.8037 1.06505 37.3112 1.03145L37.1791 -0.964179ZM53.9381 -0.734386C50.5452 -0.909424 38.8351 -1.07396 37.179 -0.964174L37.3113 1.03145C38.8427 0.929924 50.4539 1.08853 53.835 1.26296L53.9381 -0.734386ZM64.0736 0.183209C62.5639 -0.126335 58.1913 -0.515062 53.9381 -0.734387L53.8351 1.26296C58.1115 1.48348 62.334 1.86814 63.6719 2.14245L64.0736 0.183209ZM66.1112 0.935881C65.853 0.761245 65.4913 0.609 65.1702 0.493936C64.8275 0.371128 64.4373 0.257805 64.0737 0.183224L63.6718 2.14243C63.9311 2.19561 64.2299 2.28149 64.4955 2.37669C64.6272 2.42389 64.7427 2.4705 64.8351 2.51261C64.8811 2.53354 64.9181 2.55187 64.9464 2.56702C64.9603 2.5745 64.9711 2.58062 64.979 2.58529C64.9829 2.5876 64.9858 2.5894 64.9878 2.59069C64.9899 2.59199 64.9908 2.59263 64.9908 2.5926L66.1112 0.935881ZM73.5821 12.7705C71.9581 9.52112 70.503 6.86044 69.2725 4.88561C68.6576 3.89874 68.0905 3.06991 67.5792 2.4194C67.0809 1.78544 66.5874 1.25795 66.1112 0.935875L64.9908 2.59261C65.2039 2.73671 65.543 3.06527 66.0068 3.65535C66.4576 4.22889 66.9823 4.99208 67.575 5.94329C68.7598 7.84465 70.1837 10.4445 71.7931 13.6647L73.5821 12.7705ZM73.6831 12.9726L73.5821 12.7705L71.7931 13.6646L71.8941 13.8667L73.6831 12.9726ZM75.285 16.6645C75.6091 16.6516 75.7671 16.8446 75.7235 16.7981C75.6804 16.7521 75.581 16.6207 75.4011 16.3108C75.0488 15.7041 74.5347 14.6766 73.6831 12.9726L71.8941 13.8667C72.7287 15.5368 73.2791 16.6393 73.6715 17.3151C73.864 17.6466 74.0569 17.9445 74.264 18.1655C74.4707 18.3861 74.8367 18.6838 75.3643 18.6629L75.285 16.6645ZM75.1502 16.615C75.1002 16.6578 75.066 16.687 75.0357 16.7116C75.0216 16.7231 75.011 16.7313 75.0032 16.7372C74.9954 16.743 74.9921 16.7453 74.9924 16.7451C74.9927 16.7449 74.9985 16.741 75.0093 16.7351C75.0202 16.7292 75.0378 16.7202 75.0617 16.7107C75.1105 16.6911 75.1872 16.6683 75.285 16.6645L75.3643 18.6629C75.7024 18.6495 75.9567 18.5055 76.0986 18.4113C76.2373 18.3192 76.3705 18.2031 76.4507 18.1344L75.1502 16.615ZM75.1824 16.5875L75.1506 16.6147L76.4503 18.1348L76.4822 18.1075L75.1824 16.5875ZM75.5944 15.6364C75.5944 16.0023 75.4053 16.3972 75.183 16.587L76.4816 18.108C77.1778 17.5137 77.5944 16.5485 77.5944 15.6364H75.5944ZM79.6204 13.6042C78.9736 13.5824 78.4339 13.574 77.9932 13.5923C77.5657 13.6101 77.1544 13.6549 76.8004 13.777C76.4108 13.9115 76.0447 14.1572 75.8184 14.5808C75.6194 14.9533 75.5944 15.3492 75.5944 15.6364H77.5944C77.5944 15.4367 77.622 15.4492 77.5825 15.5232C77.5156 15.6484 77.4157 15.6805 77.4529 15.6676C77.5257 15.6425 77.7019 15.6062 78.0764 15.5906C78.4377 15.5756 78.9147 15.5815 79.553 15.603L79.6204 13.6042ZM84.3255 15.0891C83.8532 14.5326 83.2969 14.1619 82.5054 13.9365C81.7735 13.728 80.8431 13.6454 79.6204 13.6042L79.553 15.603C80.7655 15.6439 81.4811 15.7243 81.9575 15.86C82.3742 15.9787 82.5885 16.1333 82.8007 16.3833L84.3255 15.0891ZM84.2021 18.9096C84.7535 18.3973 84.9883 17.6812 84.9996 17.0219C85.0109 16.3583 84.8001 15.6482 84.3255 15.0891L82.8007 16.3833C82.9251 16.5298 83.0039 16.7516 82.9999 16.9878C82.9958 17.2283 82.9103 17.3798 82.8408 17.4444L84.2021 18.9096ZM77.8976 20.9828C80.9276 20.6445 82.9351 20.0868 84.2021 18.9096L82.8408 17.4444C82.0942 18.138 80.6894 18.6586 77.6757 18.9952L77.8976 20.9828ZM76.2207 21.1701L77.8976 20.9828L77.6757 18.9952L75.9987 19.1824L76.2207 21.1701ZM78.5521 22.5382L76.9857 19.6939L75.2338 20.6587L76.8002 23.503L78.5521 22.5382ZM82.6029 31.9196C82.0551 29.1133 81.5282 27.9421 78.5521 22.5382L76.8002 23.503C79.7717 28.8986 80.1574 29.8307 80.6399 32.3028L82.6029 31.9196ZM82.6041 42.8658C82.7994 41.3559 82.8946 39.1255 82.8963 37.0508C82.8981 34.9988 82.8091 32.9761 82.6029 31.9196L80.6399 32.3028C80.8043 33.1449 80.8981 34.9868 80.8963 37.0491C80.8946 39.0888 80.8 41.2222 80.6206 42.6093L82.6041 42.8658ZM80.2264 52.0216C80.7745 51.3097 81.2109 50.0907 81.5807 48.6184C81.9625 47.0982 82.3083 45.1541 82.6041 42.8657L80.6206 42.6093C80.3306 44.8527 79.997 46.7134 79.6409 48.1312C79.2729 49.5968 78.9131 50.449 78.6417 50.8015L80.2264 52.0216ZM79.6682 52.7467L80.2264 52.0216L78.6417 50.8015L78.0834 51.5266L79.6682 52.7467ZM79.9236 55.6746L79.8757 52.1231L77.8759 52.1501L77.9238 55.7015L79.9236 55.6746ZM79.4374 60.2934C79.5415 60.152 79.671 59.9629 79.7653 59.6903C79.8526 59.4381 79.8917 59.1676 79.9134 58.8682C79.9557 58.2873 79.9461 57.3379 79.9236 55.6745L77.9238 55.7016C77.947 57.4135 77.953 58.2513 77.9187 58.7232C77.9022 58.9501 77.88 59.0225 77.8752 59.0363C77.8744 59.0387 77.8748 59.0378 77.8734 59.0403C77.8694 59.0471 77.8591 59.0638 77.8269 59.1075L79.4374 60.2934ZM73.6432 61.73C75.5394 61.73 76.7347 61.7136 77.5339 61.5487C77.9689 61.4589 78.3468 61.3157 78.6859 61.0735C79.0139 60.8394 79.2453 60.5543 79.4374 60.2934L77.8269 59.1075C77.6714 59.3187 77.5903 59.3984 77.5238 59.4458C77.4686 59.4852 77.3701 59.5403 77.1297 59.5899C76.5783 59.7037 75.6268 59.73 73.6432 59.73V61.73ZM67.3969 56.3689C67.397 57.4229 67.3977 58.3164 67.4952 59.0126C67.5948 59.7239 67.8192 60.431 68.4309 60.9395C69.0049 61.4167 69.7578 61.5768 70.5335 61.6518C71.3281 61.7287 72.3618 61.73 73.6432 61.73V59.73C72.3246 59.73 71.4025 59.7266 70.726 59.6611C70.0306 59.5939 69.797 59.4743 69.7094 59.4015C69.6596 59.3601 69.5475 59.2471 69.4759 58.7354C69.4021 58.2086 69.397 57.4761 69.3969 56.3687L67.3969 56.3689ZM67.3966 53.7139L67.3969 56.3689L69.3969 56.3687L69.3966 53.7137L67.3966 53.7139ZM54.5904 54.8111L68.4036 54.7138L68.3896 52.7138L54.5763 52.8112L54.5904 54.8111ZM28.4463 55.0068C35.2284 54.9527 46.9935 54.8646 54.5904 54.8111L54.5763 52.8112C46.9789 52.8647 35.2131 52.9528 28.4303 53.0069L28.4463 55.0068ZM16.1142 55.1053L28.4463 55.0068L28.4303 53.0069L16.0982 53.1054L16.1142 55.1053ZM17.2024 56.3599L17.1053 54.0631L15.1071 54.1476L15.2042 56.4443L17.2024 56.3599ZM16.1202 61.2193C16.6385 60.7266 16.9665 60.1782 17.1208 59.3603C17.2589 58.6281 17.2578 57.6727 17.2024 56.3599L15.2042 56.4443C15.2604 57.7764 15.2453 58.5136 15.1555 58.9895C15.0818 59.3798 14.968 59.5551 14.7423 59.7697L16.1202 61.2193ZM15.6153 61.6991L16.1202 61.2193L14.7423 59.7697L14.2375 60.2495L15.6153 61.6991ZM11.0543 62.0189L14.9379 61.9742L14.9149 59.9744L11.0313 60.0191L11.0543 62.0189ZM6.09425 61.5837C6.25613 61.6828 6.45268 61.7929 6.72508 61.8734C6.97975 61.9487 7.2567 61.9854 7.58097 62.0065C8.21293 62.0476 9.24016 62.0398 11.0543 62.0189L11.0313 60.0191C9.17578 60.0404 8.24636 60.0456 7.71088 60.0107C7.45144 59.9938 7.34197 59.9702 7.29203 59.9555C7.25984 59.946 7.23362 59.9362 7.13906 59.8783L6.09425 61.5837ZM4.60178 56.084C4.60178 57.8386 4.62418 58.9854 4.79298 59.7583C4.88433 60.1766 5.02999 60.5506 5.27966 60.8798C5.52569 61.2042 5.82208 61.4169 6.09414 61.5836L7.13918 59.8783C6.95888 59.7679 6.90224 59.7095 6.87316 59.6712C6.84773 59.6377 6.79621 59.5573 6.74693 59.3316C6.63446 58.8166 6.60178 57.9171 6.60178 56.084H4.60178ZM4.60178 52.89V56.084H6.60178V52.89H4.60178ZM4.33691 52.9702L4.85321 53.5531L6.35035 52.227L5.83405 51.6441L4.33691 52.9702ZM2.33781 48.1738C2.87886 50.5312 3.39321 51.9044 4.33681 52.9701L5.83415 51.6442C5.24576 50.9797 4.81737 50.0367 4.28713 47.7264L2.33781 48.1738ZM1.43963 31.9665C0.684371 36.1655 1.05922 42.6043 2.33782 48.1739L4.28712 47.7264C3.0477 42.3275 2.71492 36.1741 3.40804 32.3206L1.43963 31.9665ZM4.86808 23.7605C2.53075 28.1294 1.84457 29.7159 1.43964 31.9665L3.40803 32.3206C3.75172 30.4104 4.29618 29.0692 6.63157 24.7039L4.86808 23.7605ZM6.89715 20.1797C6.89715 20.0772 6.91333 19.9983 6.91928 19.9705C6.92719 19.9336 6.93564 19.9045 6.94071 19.888C6.95084 19.8548 6.9605 19.8296 6.96454 19.8193C6.97339 19.7965 6.98091 19.7799 6.98262 19.7761C6.98731 19.7657 6.99001 19.7603 6.98774 19.765C6.98432 19.772 6.97656 19.7874 6.96291 19.8141C6.93638 19.8661 6.89577 19.9443 6.84163 20.0478C6.7338 20.2539 6.57706 20.551 6.38273 20.9178C5.99431 21.6508 5.45812 22.6575 4.86806 23.7605L6.63159 24.7039C7.2225 23.5993 7.75998 22.5902 8.14997 21.8542C8.34485 21.4864 8.50351 21.1857 8.61377 20.9749C8.66868 20.8699 8.7128 20.785 8.74372 20.7245C8.75881 20.695 8.77297 20.667 8.78428 20.6438C8.78937 20.6334 8.79764 20.6164 8.80606 20.5977C8.80963 20.5898 8.81856 20.5698 8.82835 20.5447C8.83285 20.5331 8.84286 20.5069 8.85323 20.473C8.85842 20.456 8.86696 20.4266 8.87492 20.3894C8.88093 20.3614 8.89715 20.2823 8.89715 20.1797H6.89715ZM6.50155 21.0293C6.85609 21.0586 7.17435 21.0892 7.40013 21.1144C7.51492 21.1273 7.59626 21.1377 7.6437 21.1449C7.67103 21.149 7.66888 21.1494 7.65115 21.1454C7.6483 21.1448 7.60337 21.1352 7.54464 21.1135C7.52181 21.1051 7.44066 21.0751 7.34765 21.0142C7.30147 20.9839 7.21019 20.9192 7.12157 20.8104C7.03165 20.7001 6.89715 20.4839 6.89715 20.1797H8.89715C8.89715 19.8747 8.76235 19.6579 8.67186 19.5469C8.58267 19.4374 8.49054 19.3719 8.44321 19.3409C8.34792 19.2785 8.26336 19.2469 8.23603 19.2368C8.16829 19.2119 8.10996 19.1986 8.08953 19.194C8.03665 19.1822 7.98269 19.1734 7.94332 19.1675C7.85737 19.1544 7.7458 19.1406 7.62255 19.1268C7.37225 19.0988 7.03387 19.0665 6.66619 19.0361L6.50155 21.0293ZM-0.210207 18.9114C0.434143 19.5229 1.44302 19.9824 2.55087 20.3175C3.68905 20.6617 5.04948 20.9093 6.50147 21.0293L6.66627 19.0361C5.32856 18.9255 4.11014 18.6996 3.12989 18.4031C2.11932 18.0974 1.4702 17.7489 1.16656 17.4607L-0.210207 18.9114ZM-0.325819 15.089C-0.800288 15.648 -1.01086 16.3574 -0.999566 17.0217C-0.988331 17.6823 -0.753718 18.3955 -0.210272 18.9113L1.16663 17.4608C1.08967 17.3877 1.00424 17.2284 1.00014 16.9876C0.99611 16.7504 1.07492 16.5294 1.19889 16.3834L-0.325819 15.089ZM4.37925 13.6042C3.1565 13.6454 2.22615 13.728 1.49429 13.9365C0.702771 14.1619 0.146466 14.5326 -0.325896 15.0891L1.19896 16.3833C1.41111 16.1333 1.6254 15.9787 2.04215 15.86C2.51856 15.7243 3.23415 15.6439 4.44663 15.603L4.37925 13.6042ZM8.40594 15.6679C8.40566 15.3797 8.38308 14.9839 8.19449 14.6118C7.97646 14.1815 7.6149 13.9241 7.21668 13.7823C6.85945 13.6552 6.44439 13.6098 6.01607 13.5919C5.57389 13.5734 5.03095 13.5822 4.37923 13.6042L4.44665 15.603C5.09132 15.5813 5.57058 15.575 5.93251 15.5902C6.3083 15.6059 6.47925 15.6428 6.54605 15.6665C6.57186 15.6757 6.47234 15.6379 6.41047 15.5158C6.37803 15.4518 6.40573 15.4527 6.40594 15.6699L8.40594 15.6679ZM8.57776 16.2703C8.55321 16.2304 8.5045 16.1252 8.46204 15.9758C8.41948 15.8262 8.40598 15.7124 8.40594 15.6679L6.40594 15.6699C6.40622 15.9586 6.46486 16.2646 6.53831 16.5229C6.61184 16.7815 6.72299 17.0723 6.8742 17.3181L8.57776 16.2703ZM8.25029 17.09C8.57531 16.7678 8.95813 16.8158 9.03856 16.8291C9.09986 16.8393 9.14322 16.854 9.16351 16.8615C9.18549 16.8696 9.19794 16.8759 9.19955 16.8767C9.20158 16.8777 9.18616 16.8698 9.15279 16.8468C9.12118 16.8251 9.08185 16.7957 9.03681 16.7588C8.83578 16.5941 8.65143 16.3901 8.57776 16.2703L6.87419 17.3181C7.10384 17.6915 7.46604 18.0575 7.76954 18.306C7.923 18.4317 8.10734 18.5655 8.29643 18.6612C8.38494 18.706 8.53224 18.7725 8.71176 18.8022C8.86245 18.8272 9.29953 18.8661 9.65837 18.5103L8.25029 17.09ZM9.75578 13.8907C9.30558 14.8279 8.88971 15.686 8.5825 16.3132C8.4287 16.6272 8.30317 16.8813 8.21456 17.0578C8.16992 17.1466 8.13661 17.212 8.11452 17.2542C8.10917 17.2644 8.10493 17.2724 8.10171 17.2784C8.09835 17.2847 8.0969 17.2873 8.09697 17.2871C8.09706 17.287 8.09805 17.2852 8.09978 17.2822C8.10135 17.2795 8.10481 17.2736 8.10973 17.2657C8.11387 17.259 8.12371 17.2433 8.13767 17.2234C8.14305 17.2157 8.1843 17.1555 8.25028 17.09L9.65838 18.5103C9.72545 18.4438 9.76814 18.3817 9.77532 18.3715C9.79108 18.349 9.80307 18.33 9.8097 18.3193C9.82336 18.2973 9.83469 18.2773 9.84158 18.2651C9.8563 18.2388 9.87193 18.2094 9.88645 18.1817C9.91644 18.1244 9.95573 18.0472 10.0019 17.9552C10.0949 17.77 10.2238 17.5091 10.3786 17.193C10.6887 16.5599 11.1068 15.6971 11.5586 14.7567L9.75578 13.8907ZM18.7346 0.609581C18.0391 0.792079 17.3997 1.25524 16.7992 1.86177C16.1887 2.47838 15.5458 3.31788 14.854 4.37642C13.4698 6.49423 11.8105 9.61247 9.75575 13.8908L11.5586 14.7566C13.6055 10.4949 15.2187 7.47405 16.5281 5.47063C17.1831 4.46856 17.7423 3.75191 18.2205 3.26892C18.7086 2.77585 19.0445 2.59597 19.2422 2.54408L18.7346 0.609581ZM32.6071 -0.730857C25.9938 -0.417898 20.7854 0.0713156 18.7345 0.609588L19.2423 2.54407C21.0509 2.06937 26.0359 1.58234 32.7016 1.26691L32.6071 -0.730857ZM25.155 35.7898L22.8068 32.297L21.147 33.4129L23.4953 36.9057L25.155 35.7898ZM23.4445 39.6762C24.0351 39.6762 24.5998 39.5565 25.046 39.2197C25.5212 38.8609 25.7238 38.3618 25.7682 37.8984C25.8469 37.0773 25.4514 36.2591 25.1711 35.8145L23.4792 36.8809C23.5665 37.0195 23.6536 37.1921 23.712 37.3627C23.7734 37.5423 23.7821 37.6582 23.7773 37.7077C23.7753 37.7294 23.7834 37.6669 23.8409 37.6235C23.8695 37.6019 23.7933 37.6762 23.4445 37.6762V39.6762ZM10.8226 39.6762H23.4445V37.6762H10.8226V39.6762ZM6.39114 34.7269C7.15651 36.3966 7.89577 37.4891 8.58682 38.2303C9.29169 38.9863 9.9151 39.3425 10.3784 39.5722L11.2668 37.7803C10.9473 37.6219 10.5434 37.396 10.0496 36.8664C9.54208 36.322 8.91152 35.4256 8.20922 33.8935L6.39114 34.7269ZM6.20909 29.341C5.88913 29.764 5.74808 30.2705 5.68865 30.7264C5.62791 31.1922 5.64209 31.6852 5.69555 32.1534C5.80175 33.0833 6.07842 34.0447 6.39114 34.7269L8.20922 33.8935C7.98824 33.4115 7.76591 32.6556 7.68264 31.9265C7.64137 31.5651 7.6382 31.2431 7.67186 30.9849C7.70683 30.7167 7.77192 30.5902 7.80421 30.5475L6.20909 29.341ZM9.54945 28.0901C8.60561 27.903 7.82699 28.0477 7.22607 28.3744C6.6459 28.6899 6.29106 29.1423 6.11374 29.494L7.89956 30.3945C7.91792 30.358 8.00339 30.2283 8.18151 30.1315C8.33888 30.0459 8.63656 29.948 9.16038 30.0519L9.54945 28.0901ZM21.0491 31.0125L9.60133 28.1019L9.1085 30.0402L20.5563 32.9509L21.0491 31.0125ZM22.8068 32.297C22.5505 31.9158 22.2067 31.636 21.9252 31.4482C21.6395 31.2575 21.355 31.1202 21.1513 31.0444L20.4542 32.919C20.5114 32.9403 20.6574 33.0066 20.8153 33.1119C20.9773 33.22 21.0902 33.3284 21.147 33.4128L22.8068 32.297ZM61.1932 32.297L58.845 35.7898L60.5047 36.9057L62.853 33.4129L61.1932 32.297ZM62.8487 31.0444C62.645 31.1202 62.3605 31.2575 62.0748 31.4482C61.7933 31.636 61.4495 31.9158 61.1932 32.297L62.853 33.4129C62.9098 33.3284 63.0227 33.22 63.1847 33.1119C63.3426 33.0066 63.4886 32.9403 63.5458 32.919L62.8487 31.0444ZM74.3987 28.1019L62.9509 31.0125L63.4437 32.9509L74.8915 30.0402L74.3987 28.1019ZM77.8863 29.494C77.7089 29.1423 77.3541 28.6899 76.7739 28.3744C76.173 28.0477 75.3944 27.903 74.4505 28.0901L74.8396 30.0519C75.3634 29.948 75.6611 30.0459 75.8185 30.1315C75.9966 30.2283 76.0821 30.358 76.1004 30.3945L77.8863 29.494ZM77.6089 34.7269C77.9216 34.0447 78.1983 33.0833 78.3044 32.1534C78.3579 31.6852 78.3721 31.1922 78.3114 30.7264C78.2519 30.2705 78.1109 29.764 77.7909 29.341L76.1958 30.5475C76.2281 30.5902 76.2932 30.7167 76.3281 30.9849C76.3618 31.2431 76.3586 31.5651 76.3174 31.9265C76.2341 32.6556 76.0118 33.4115 75.7908 33.8935L77.6089 34.7269ZM73.6216 39.5722C74.0849 39.3425 74.7083 38.9863 75.4132 38.2303C76.1042 37.4891 76.8435 36.3966 77.6089 34.7269L75.7908 33.8935C75.0885 35.4256 74.4579 36.322 73.9504 36.8664C73.4566 37.396 73.0527 37.6219 72.7332 37.7803L73.6216 39.5722ZM60.5555 39.6762H73.1774V37.6762H60.5555V39.6762ZM58.8289 35.8145C58.5486 36.2591 58.1531 37.0773 58.2318 37.8984C58.2762 38.3618 58.4788 38.8609 58.954 39.2197C59.4002 39.5565 59.9649 39.6762 60.5555 39.6762V37.6762C60.2067 37.6762 60.1305 37.6019 60.1591 37.6235C60.2166 37.6669 60.2247 37.7294 60.2227 37.7077C60.2179 37.6582 60.2266 37.5423 60.288 37.3627C60.3464 37.1921 60.4335 37.0195 60.5208 36.8809L58.8289 35.8145ZM40.8444 4.54392C40.8444 4.00312 41.2759 3.56059 41.8172 3.54771L41.8648 5.54714C42.4098 5.53417 42.8444 5.08853 42.8444 4.54392H40.8444ZM41.1882 3.78773C40.9788 3.97042 40.8444 4.24224 40.8444 4.54392H42.8444C42.8444 4.84349 42.7109 5.11342 42.503 5.29482L41.1882 3.78773ZM41.3494 3.67306L41.3482 3.67374L42.343 5.40881L42.3442 5.40813L41.3494 3.67306ZM41.7003 3.55138L41.6991 3.55155L41.9944 5.52963L41.9956 5.52946L41.7003 3.55138ZM42.0155 3.54412L41.8718 3.5407L41.8242 5.54013L41.9678 5.54355L42.0155 3.54412ZM42.1115 3.5407L41.9678 3.54412L42.0155 5.54355L42.1591 5.54013L42.1115 3.5407ZM42.9515 3.96C42.7672 3.70233 42.4589 3.53248 42.1117 3.5407L42.159 5.54014C41.8142 5.54829 41.5081 5.37962 41.325 5.12377L42.9515 3.96ZM43.1389 4.54392C43.1389 4.32907 43.0702 4.12682 42.9531 3.96212L41.3235 5.12165C41.2071 4.9581 41.1389 4.75725 41.1389 4.54392H43.1389ZM42.1661 3.54771C42.706 3.56056 43.1389 4.00168 43.1389 4.54392H41.1389C41.1389 5.08997 41.5749 5.53421 42.1186 5.54714L42.1661 3.54771ZM64.0088 4.06786L42.1662 3.54771L42.1185 5.54714L63.9611 6.06729L64.0088 4.06786ZM65.3102 4.88772C65.0602 4.39586 64.5603 4.08099 64.0088 4.06786L63.9611 6.06729C63.7773 6.06291 63.6107 5.95796 63.5273 5.79399L65.3102 4.88772ZM71.5963 17.2538L65.3102 4.88771L63.5273 5.79401L69.8134 18.1601L71.5963 17.2538ZM70.2592 19.4335C71.3786 19.4335 72.1036 18.2517 71.5963 17.2538L69.8134 18.1601C69.6443 17.8274 69.886 17.4335 70.2592 17.4335V19.4335ZM42.1389 19.4335H70.2592V17.4335H42.1389V19.4335ZM41.8444 19.4335H42.1389V17.4335H41.8444V19.4335ZM13.7242 19.4335H41.8444V17.4335H13.7242V19.4335ZM12.387 17.2538C11.8797 18.2517 12.6047 19.4335 13.7242 19.4335V17.4335C14.0973 17.4335 14.339 17.8274 14.1699 18.1601L12.387 17.2538ZM18.6731 4.88771L12.387 17.2538L14.1699 18.1601L20.456 5.79401L18.6731 4.88771ZM19.9746 4.06786C19.423 4.08099 18.9231 4.39587 18.6731 4.88771L20.456 5.79401C20.3726 5.95795 20.206 6.06291 20.0222 6.06729L19.9746 4.06786ZM41.8172 3.54771L19.9746 4.06786L20.0222 6.06729L41.8648 5.54714L41.8172 3.54771ZM25.8812 43.1146C25.0528 43.1146 24.3812 43.7861 24.3812 44.6146H26.3812C26.3812 44.8907 26.1574 45.1146 25.8812 45.1146V43.1146ZM58.1186 43.1146H25.8812V45.1146H58.1186V43.1146ZM59.6186 44.6146C59.6186 43.7861 58.9471 43.1146 58.1186 43.1146V45.1146C57.8425 45.1146 57.6186 44.8907 57.6186 44.6146H59.6186ZM59.6186 49.0534V44.6146H57.6186V49.0534H59.6186ZM58.1186 50.5534C58.9471 50.5534 59.6186 49.8818 59.6186 49.0534H57.6186C57.6186 48.7773 57.8425 48.5534 58.1186 48.5534V50.5534ZM25.8812 50.5534H58.1186V48.5534H25.8812V50.5534ZM24.3812 49.0534C24.3812 49.8818 25.0528 50.5534 25.8812 50.5534V48.5534C26.1574 48.5534 26.3812 48.7773 26.3812 49.0534H24.3812ZM24.3812 44.6146V49.0534H26.3812V44.6146H24.3812ZM28.4027 36.6551H55.5969V34.6551H28.4027V36.6551ZM29.4027 38.6767V35.6551H27.4027V38.6767H29.4027ZM55.5969 37.6767H28.4027V39.6767H55.5969V37.6767ZM54.5969 35.6551V38.6767H56.5969V35.6551H54.5969ZM72.5187 51.7623C75.4073 51.7623 77.749 49.4207 77.749 46.5321H75.749C75.749 48.3161 74.3027 49.7623 72.5187 49.7623V51.7623ZM67.2885 46.5321C67.2885 49.4207 69.6302 51.7623 72.5187 51.7623V49.7623C70.7347 49.7623 69.2885 48.3161 69.2885 46.5321H67.2885ZM72.5187 41.3019C69.6302 41.3019 67.2885 43.6436 67.2885 46.5321H69.2885C69.2885 44.7481 70.7347 43.3019 72.5187 43.3019V41.3019ZM77.749 46.5321C77.749 43.6436 75.4073 41.3019 72.5187 41.3019V43.3019C74.3027 43.3019 75.749 44.7481 75.749 46.5321H77.749ZM14.2715 46.5321C14.2715 48.3161 12.8253 49.7623 11.0413 49.7623V51.7623C13.9299 51.7623 16.2715 49.4207 16.2715 46.5321H14.2715ZM11.0413 43.3019C12.8253 43.3019 14.2715 44.7481 14.2715 46.5321H16.2715C16.2715 43.6436 13.9299 41.3019 11.0413 41.3019V43.3019ZM7.81108 46.5321C7.81108 44.7481 9.2573 43.3019 11.0413 43.3019V41.3019C8.15273 41.3019 5.81108 43.6436 5.81108 46.5321H7.81108ZM11.0413 49.7623C9.2573 49.7623 7.81108 48.3161 7.81108 46.5321H5.81108C5.81108 49.4207 8.15273 51.7623 11.0413 51.7623V49.7623Z" fill="url(#paint0_angular_199_207)" mask="url(#path-1-inside-1_199_207)"/>
<defs>
<radialGradient id="paint0_angular_199_207" cx="0" cy="0" r="1" gradientUnits="userSpaceOnUse" gradientTransform="translate(42 30.518) rotate(90) scale(30.518 42)">
<stop offset="0.109375" stop-color="#A9BAC9"/>
<stop offset="0.276042" stop-color="#A8C2EA"/>
<stop offset="0.458333" stop-color="#9A9BAA"/>
<stop offset="0.614583" stop-color="#9BABC3"/>
<stop offset="0.807292" stop-color="#9DACD1"/>
<stop offset="1" stop-color="#89939F"/>
</radialGradient>
</defs>
</svg>
