<svg width="98" height="85" viewBox="0 0 98 85" fill="none" xmlns="http://www.w3.org/2000/svg">
<path fill-rule="evenodd" clip-rule="evenodd" d="M83.1562 0.0827566C83.7705 0.232645 84.0315 0.424054 85.4173 1.74135C86.9318 3.18111 94.9884 10.8072 96.5003 12.2321C97.039 12.7398 97.5967 13.2466 97.7399 13.3584L98 13.5617V20.2167C98 26.8446 97.9995 26.8723 97.8735 27.0496C97.7041 27.288 97.28 27.5734 96.8512 27.7375L96.5003 27.8718L49.2142 27.8886C6.81562 27.9036 1.88385 27.8956 1.49969 27.8109C0.981956 27.6968 0.531685 27.4492 0.226669 27.1109L0 26.8595V20.2157V13.5719L0.260147 13.3633C0.770714 12.9539 2.12986 11.7121 3.24422 10.6368C3.86705 10.0358 5.51977 8.46721 6.91692 7.15108C8.31409 5.83489 10.4578 3.80452 11.6809 2.63902C12.9039 1.47358 14.0194 0.445213 14.1599 0.353832C14.7537 -0.0325424 11.8114 -0.00285905 48.9976 0.00284457C75.3747 0.00689231 82.9177 0.0245551 83.1562 0.0827566ZM92.4717 31.1199C92.5789 31.1667 92.7166 31.2967 92.7777 31.409C92.8844 31.6048 92.8896 32.5421 92.9071 54.9487C92.9194 70.7102 92.9046 78.5644 92.8615 79.1471C92.7321 80.8979 92.2771 81.9415 91.2156 82.9217C90.732 83.3684 90.3242 83.6285 89.6357 83.9296L89.1549 84.1399L48.9617 84.1407L8.76852 84.1414L8.41349 83.9841C7.9006 83.7568 7.25757 83.3244 6.83846 82.9248C5.89892 82.0292 5.37739 80.8916 5.20232 79.3561C5.09808 78.4414 5.14571 31.5984 5.25105 31.4136C5.29433 31.3376 5.40328 31.2272 5.4932 31.1682C5.6485 31.0663 7.83474 31.0602 48.9667 31.0479C85.7864 31.0368 92.3059 31.0475 92.4717 31.1199ZM36.1055 38.985C34.987 39.3019 34.2425 39.9152 33.7374 40.936C33.206 42.0099 33.2083 43.237 33.7438 44.3343C34.0299 44.9204 34.7773 45.6609 35.3804 45.9557C36.2623 46.3869 35.3708 46.3604 49.0306 46.3604C62.6711 46.3604 61.783 46.3864 62.6753 45.9618C64.107 45.2806 65.052 43.3044 64.6697 41.7911C64.3003 40.3292 62.9814 39.0958 61.5652 38.8882C61.3402 38.8553 56.0861 38.8361 48.8776 38.8421L36.574 38.8522L36.1055 38.985Z" fill="white"/>
</svg>
