<svg width="98" height="72" viewBox="0 0 98 72" fill="none" xmlns="http://www.w3.org/2000/svg">
<mask id="path-1-inside-1_245_24" fill="white">
<path fill-rule="evenodd" clip-rule="evenodd" d="M38.0968 0.312696C40.4639 0.200622 42.874 0.0775487 43.4526 0.0392425C45.3121 -0.0840201 58.9162 0.104477 62.8677 0.308334C67.8433 0.56491 72.8571 1.01605 74.5182 1.35663C75.2449 1.50569 76.1259 1.82143 76.4762 2.05828C78.0846 3.14603 81.0298 7.87267 84.8022 15.4205L84.9201 15.6564C86.8873 19.5927 87.4039 20.6264 87.8787 20.6076C88.0479 20.6009 88.2117 20.4607 88.4338 20.2705L88.471 20.2387C89.0068 19.7814 89.3601 18.9879 89.3601 18.2425C89.3601 17.1064 89.8524 16.9364 92.8512 17.0375C95.6922 17.1333 96.6917 17.4179 97.4903 18.3589C98.189 19.1821 98.1661 20.5334 97.4417 21.2065C96.267 22.2978 94.2766 22.9268 90.7511 23.3205L88.7947 23.539L90.6221 26.8574C94.0916 33.157 94.6239 34.384 95.2249 37.4631C95.6572 39.678 95.6515 46.4808 95.2144 49.8604C94.531 55.1475 93.6291 58.7384 92.6731 59.9801L92.0218 60.8261L92.0776 64.9694C92.131 68.9073 92.1139 69.1393 91.7375 69.6505C90.9263 70.7521 90.4435 70.8517 85.917 70.8517C79.8503 70.8517 79.7968 70.8071 79.7964 65.7636L79.796 62.6661L63.6806 62.7797C54.8172 62.8421 41.0909 62.9449 33.178 63.008L18.7906 63.1229L18.9038 65.8025C19.0341 68.8882 18.8711 69.7518 18.0031 70.5769L17.4141 71.1367L12.8833 71.1888C8.602 71.238 8.31776 71.2194 7.71943 70.8528C6.66395 70.206 6.53541 69.617 6.53541 65.4313V61.705L5.93306 61.025C5.0394 60.0158 4.48946 58.6646 3.86455 55.9418C2.3957 49.5436 1.98292 42.1981 2.82781 37.5008C3.2645 35.0737 3.98238 33.3658 6.70813 28.2709C8.08593 25.6953 9.21334 23.5676 9.21334 23.5429C9.21334 23.5183 8.52377 23.4411 7.68118 23.3715C4.42653 23.1024 1.66386 22.2667 0.557874 21.2171C-0.165934 20.53 -0.188887 19.1813 0.509288 18.3589C1.30789 17.4179 2.30733 17.1333 5.14843 17.0375C8.17334 16.9355 8.63911 17.1012 8.64026 18.2804C8.64064 18.6691 8.80859 19.2599 9.01364 19.5932C9.36751 20.1686 10.2889 20.9233 10.4467 20.7669C10.4873 20.7267 11.3811 18.9014 12.4334 16.711C17.2186 6.74757 20.0691 2.38654 22.1531 1.83963C24.4045 1.24873 30.3507 0.67926 38.0968 0.312696ZM25.6407 38.3307L28.3804 42.4057C28.9511 43.3112 29.5447 45.1223 27.353 45.1223H12.6274C11.7142 44.6695 10.2302 43.764 8.51791 40.0286C7.89526 38.6703 7.35356 36.0216 8.17546 34.9349C8.40376 34.4822 9.20282 33.5766 10.9151 33.9162L24.2709 37.312C24.5753 37.4252 25.2754 37.7874 25.6407 38.3307ZM69.6196 42.4057L72.3593 38.3307C72.7246 37.7874 73.4247 37.4252 73.7291 37.312L87.0849 33.9162C88.7972 33.5766 89.5962 34.4822 89.8245 34.9349C90.6464 36.0216 90.1047 38.6703 89.4821 40.0286C87.7698 43.764 86.2858 44.6695 85.3726 45.1223H70.647C68.4553 45.1223 69.0489 43.3112 69.6196 42.4057ZM48.8151 5.30528C48.8173 5.30522 48.8191 5.30341 48.8191 5.3012L48.8193 5.30007L48.8195 5.29936C48.8198 5.2988 48.8202 5.29831 48.8207 5.29794L48.8217 5.29741L48.8224 5.2972L48.8233 5.29712L48.9904 5.3011L49.1575 5.29712C49.159 5.29709 49.1604 5.29787 49.1611 5.29906C49.1615 5.29968 49.1617 5.30041 49.1617 5.3012L49.1617 5.30159C49.1618 5.30248 49.1622 5.30328 49.1627 5.3039C49.1634 5.30472 49.1645 5.30525 49.1657 5.30528L74.6995 5.91332C74.8834 5.9177 75.05 6.02266 75.1333 6.18661L82.5512 20.7791C82.7203 21.1118 82.4787 21.5057 82.1055 21.5057H49.1617H48.8191H15.8753C15.5021 21.5057 15.2605 21.1118 15.4296 20.7791L22.8475 6.18661C22.9308 6.02266 23.0974 5.9177 23.2813 5.91332L48.8151 5.30528ZM29.611 51.967C29.611 51.6908 29.8349 51.467 30.111 51.467H67.888C68.1641 51.467 68.388 51.6908 68.388 51.967V57.3123C68.388 57.5885 68.1641 57.8123 67.888 57.8123H30.111C29.8349 57.8123 29.611 57.5885 29.611 57.3123V51.967ZM64.8627 41.5976H33.1361V45.1228H64.8627V41.5976ZM89.5411 54.2875C89.5411 57.0131 87.3315 59.2227 84.6058 59.2227C81.8802 59.2227 79.6706 57.0131 79.6706 54.2875C79.6706 51.5618 81.8802 49.3522 84.6058 49.3522C87.3315 49.3522 89.5411 51.5618 89.5411 54.2875ZM12.8809 59.2227C15.6066 59.2227 17.8161 57.0131 17.8161 54.2875C17.8161 51.5618 15.6066 49.3522 12.8809 49.3522C10.1552 49.3522 7.94564 51.5618 7.94564 54.2875C7.94564 57.0131 10.1552 59.2227 12.8809 59.2227Z"/>
</mask>
<path fill-rule="evenodd" clip-rule="evenodd" d="M38.0968 0.312696C40.4639 0.200622 42.874 0.0775487 43.4526 0.0392425C45.3121 -0.0840201 58.9162 0.104477 62.8677 0.308334C67.8433 0.56491 72.8571 1.01605 74.5182 1.35663C75.2449 1.50569 76.1259 1.82143 76.4762 2.05828C78.0846 3.14603 81.0298 7.87267 84.8022 15.4205L84.9201 15.6564C86.8873 19.5927 87.4039 20.6264 87.8787 20.6076C88.0479 20.6009 88.2117 20.4607 88.4338 20.2705L88.471 20.2387C89.0068 19.7814 89.3601 18.9879 89.3601 18.2425C89.3601 17.1064 89.8524 16.9364 92.8512 17.0375C95.6922 17.1333 96.6917 17.4179 97.4903 18.3589C98.189 19.1821 98.1661 20.5334 97.4417 21.2065C96.267 22.2978 94.2766 22.9268 90.7511 23.3205L88.7947 23.539L90.6221 26.8574C94.0916 33.157 94.6239 34.384 95.2249 37.4631C95.6572 39.678 95.6515 46.4808 95.2144 49.8604C94.531 55.1475 93.6291 58.7384 92.6731 59.9801L92.0218 60.8261L92.0776 64.9694C92.131 68.9073 92.1139 69.1393 91.7375 69.6505C90.9263 70.7521 90.4435 70.8517 85.917 70.8517C79.8503 70.8517 79.7968 70.8071 79.7964 65.7636L79.796 62.6661L63.6806 62.7797C54.8172 62.8421 41.0909 62.9449 33.178 63.008L18.7906 63.1229L18.9038 65.8025C19.0341 68.8882 18.8711 69.7518 18.0031 70.5769L17.4141 71.1367L12.8833 71.1888C8.602 71.238 8.31776 71.2194 7.71943 70.8528C6.66395 70.206 6.53541 69.617 6.53541 65.4313V61.705L5.93306 61.025C5.0394 60.0158 4.48946 58.6646 3.86455 55.9418C2.3957 49.5436 1.98292 42.1981 2.82781 37.5008C3.2645 35.0737 3.98238 33.3658 6.70813 28.2709C8.08593 25.6953 9.21334 23.5676 9.21334 23.5429C9.21334 23.5183 8.52377 23.4411 7.68118 23.3715C4.42653 23.1024 1.66386 22.2667 0.557874 21.2171C-0.165934 20.53 -0.188887 19.1813 0.509288 18.3589C1.30789 17.4179 2.30733 17.1333 5.14843 17.0375C8.17334 16.9355 8.63911 17.1012 8.64026 18.2804C8.64064 18.6691 8.80859 19.2599 9.01364 19.5932C9.36751 20.1686 10.2889 20.9233 10.4467 20.7669C10.4873 20.7267 11.3811 18.9014 12.4334 16.711C17.2186 6.74757 20.0691 2.38654 22.1531 1.83963C24.4045 1.24873 30.3507 0.67926 38.0968 0.312696ZM25.6407 38.3307L28.3804 42.4057C28.9511 43.3112 29.5447 45.1223 27.353 45.1223H12.6274C11.7142 44.6695 10.2302 43.764 8.51791 40.0286C7.89526 38.6703 7.35356 36.0216 8.17546 34.9349C8.40376 34.4822 9.20282 33.5766 10.9151 33.9162L24.2709 37.312C24.5753 37.4252 25.2754 37.7874 25.6407 38.3307ZM69.6196 42.4057L72.3593 38.3307C72.7246 37.7874 73.4247 37.4252 73.7291 37.312L87.0849 33.9162C88.7972 33.5766 89.5962 34.4822 89.8245 34.9349C90.6464 36.0216 90.1047 38.6703 89.4821 40.0286C87.7698 43.764 86.2858 44.6695 85.3726 45.1223H70.647C68.4553 45.1223 69.0489 43.3112 69.6196 42.4057ZM48.8151 5.30528C48.8173 5.30522 48.8191 5.30341 48.8191 5.3012L48.8193 5.30007L48.8195 5.29936C48.8198 5.2988 48.8202 5.29831 48.8207 5.29794L48.8217 5.29741L48.8224 5.2972L48.8233 5.29712L48.9904 5.3011L49.1575 5.29712C49.159 5.29709 49.1604 5.29787 49.1611 5.29906C49.1615 5.29968 49.1617 5.30041 49.1617 5.3012L49.1617 5.30159C49.1618 5.30248 49.1622 5.30328 49.1627 5.3039C49.1634 5.30472 49.1645 5.30525 49.1657 5.30528L74.6995 5.91332C74.8834 5.9177 75.05 6.02266 75.1333 6.18661L82.5512 20.7791C82.7203 21.1118 82.4787 21.5057 82.1055 21.5057H49.1617H48.8191H15.8753C15.5021 21.5057 15.2605 21.1118 15.4296 20.7791L22.8475 6.18661C22.9308 6.02266 23.0974 5.9177 23.2813 5.91332L48.8151 5.30528ZM29.611 51.967C29.611 51.6908 29.8349 51.467 30.111 51.467H67.888C68.1641 51.467 68.388 51.6908 68.388 51.967V57.3123C68.388 57.5885 68.1641 57.8123 67.888 57.8123H30.111C29.8349 57.8123 29.611 57.5885 29.611 57.3123V51.967ZM64.8627 41.5976H33.1361V45.1228H64.8627V41.5976ZM89.5411 54.2875C89.5411 57.0131 87.3315 59.2227 84.6058 59.2227C81.8802 59.2227 79.6706 57.0131 79.6706 54.2875C79.6706 51.5618 81.8802 49.3522 84.6058 49.3522C87.3315 49.3522 89.5411 51.5618 89.5411 54.2875ZM12.8809 59.2227C15.6066 59.2227 17.8161 57.0131 17.8161 54.2875C17.8161 51.5618 15.6066 49.3522 12.8809 49.3522C10.1552 49.3522 7.94564 51.5618 7.94564 54.2875C7.94564 57.0131 10.1552 59.2227 12.8809 59.2227Z" fill="white"/>
<path d="M43.4526 0.0392425L43.5187 1.03706L43.5188 1.03705L43.4526 0.0392425ZM38.0968 0.312696L38.144 1.31158L38.1441 1.31158L38.0968 0.312696ZM62.8677 0.308334L62.8161 1.30701L62.8162 1.30701L62.8677 0.308334ZM74.5182 1.35663L74.7191 0.377029L74.7191 0.377014L74.5182 1.35663ZM76.4762 2.05828L75.916 2.88664L75.916 2.88665L76.4762 2.05828ZM84.8022 15.4205L85.6968 14.9735L85.6967 14.9734L84.8022 15.4205ZM84.9201 15.6564L84.0256 16.1034L84.0256 16.1034L84.9201 15.6564ZM87.8787 20.6076L87.9184 21.6068H87.9184L87.8787 20.6076ZM88.4338 20.2705L87.7839 19.5106L87.7836 19.5108L88.4338 20.2705ZM88.471 20.2387L87.8217 19.4782L87.821 19.4788L88.471 20.2387ZM92.8512 17.0375L92.8848 16.0381H92.8848L92.8512 17.0375ZM97.4903 18.3589L96.7279 19.006L96.7279 19.006L97.4903 18.3589ZM97.4417 21.2065L98.1224 21.9391L98.1224 21.9391L97.4417 21.2065ZM90.7511 23.3205L90.8621 24.3143V24.3143L90.7511 23.3205ZM88.7947 23.539L88.6837 22.5451L87.1971 22.7111L87.9187 24.0214L88.7947 23.539ZM90.6221 26.8574L89.7462 27.3398L89.7462 27.3398L90.6221 26.8574ZM95.2249 37.4631L96.2064 37.2715L96.2064 37.2715L95.2249 37.4631ZM95.2144 49.8604L94.2227 49.7322L94.2227 49.7322L95.2144 49.8604ZM92.6731 59.9801L91.8807 59.3701V59.3701L92.6731 59.9801ZM92.0218 60.8261L91.2294 60.216L91.0172 60.4917L91.0219 60.8395L92.0218 60.8261ZM92.0776 64.9694L91.0777 64.9829V64.9829L92.0776 64.9694ZM91.7375 69.6505L92.5427 70.2435L92.5428 70.2434L91.7375 69.6505ZM79.7964 65.7636L80.7964 65.7635V65.7635L79.7964 65.7636ZM79.796 62.6661L80.796 62.666L80.7959 61.659L79.789 61.6661L79.796 62.6661ZM63.6806 62.7797L63.6876 63.7797L63.6877 63.7797L63.6806 62.7797ZM33.178 63.008L33.17 62.008H33.17L33.178 63.008ZM18.7906 63.1229L18.7826 62.123L17.7478 62.1312L17.7915 63.1651L18.7906 63.1229ZM18.9038 65.8025L19.9029 65.7603L19.9029 65.7602L18.9038 65.8025ZM18.0031 70.5769L18.692 71.3017L18.692 71.3017L18.0031 70.5769ZM17.4141 71.1367L17.4256 72.1366L17.8184 72.1321L18.1031 71.8615L17.4141 71.1367ZM12.8833 71.1888L12.8947 72.1888H12.8948L12.8833 71.1888ZM7.71943 70.8528L7.19691 71.7054L7.19703 71.7055L7.71943 70.8528ZM6.53541 61.705H7.53541V61.3258L7.28398 61.042L6.53541 61.705ZM5.93306 61.025L5.18439 61.6879L5.18449 61.688L5.93306 61.025ZM3.86455 55.9418L4.83921 55.7181L4.8392 55.7181L3.86455 55.9418ZM2.82781 37.5008L1.84361 37.3237L1.8436 37.3238L2.82781 37.5008ZM6.70813 28.2709L7.58988 28.7426L7.5899 28.7426L6.70813 28.2709ZM7.68118 23.3715L7.59878 24.3681L7.59886 24.3681L7.68118 23.3715ZM0.557874 21.2171L-0.130575 21.9424L-0.130511 21.9424L0.557874 21.2171ZM0.509288 18.3589L1.27164 19.0061L1.27172 19.006L0.509288 18.3589ZM5.14843 17.0375L5.18211 18.037H5.18214L5.14843 17.0375ZM8.64026 18.2804L7.64026 18.2814V18.2814L8.64026 18.2804ZM9.01364 19.5932L9.86543 19.0693L9.86542 19.0693L9.01364 19.5932ZM10.4467 20.7669L11.1508 21.477L11.1508 21.477L10.4467 20.7669ZM12.4334 16.711L13.3348 17.144L13.3348 17.1439L12.4334 16.711ZM22.1531 1.83963L22.407 2.80688L22.407 2.80687L22.1531 1.83963ZM28.3804 42.4057L29.2263 41.8724L29.2185 41.86L29.2102 41.8477L28.3804 42.4057ZM25.6407 38.3307L24.8108 38.8887H24.8108L25.6407 38.3307ZM12.6274 45.1223L12.1832 46.0182L12.3931 46.1223H12.6274V45.1223ZM8.51791 40.0286L7.60887 40.4453H7.60887L8.51791 40.0286ZM8.17546 34.9349L8.97301 35.5382L9.02761 35.466L9.06836 35.3852L8.17546 34.9349ZM10.9151 33.9162L11.1615 32.947L11.1357 32.9405L11.1096 32.9353L10.9151 33.9162ZM24.2709 37.312L24.6194 36.3747L24.5692 36.356L24.5173 36.3428L24.2709 37.312ZM72.3593 38.3307L73.1892 38.8887L73.1892 38.8887L72.3593 38.3307ZM69.6196 42.4057L68.7897 41.8477L68.7815 41.86L68.7737 41.8724L69.6196 42.4057ZM73.7291 37.312L73.4827 36.3428L73.4308 36.356L73.3806 36.3747L73.7291 37.312ZM87.0849 33.9162L86.8904 32.9353L86.8643 32.9405L86.8385 32.947L87.0849 33.9162ZM89.8245 34.9349L88.9316 35.3852L88.9724 35.466L89.027 35.5382L89.8245 34.9349ZM89.4821 40.0286L88.573 39.6119L89.4821 40.0286ZM85.3726 45.1223V46.1223H85.6069L85.8168 46.0182L85.3726 45.1223ZM48.8191 5.3012L47.8286 5.16365L47.8191 5.2321V5.3012H48.8191ZM48.8151 5.30528L48.8389 6.30499L48.839 6.30499L48.8151 5.30528ZM48.8193 5.30007L47.8874 4.93727L47.8449 5.04646L47.8288 5.16253L48.8193 5.30007ZM48.8195 5.29936L47.9288 4.84489L47.9059 4.88969L47.8877 4.93655L48.8195 5.29936ZM48.8207 5.29794L48.3305 4.42636L48.2719 4.4593L48.2183 4.49978L48.8207 5.29794ZM48.8217 5.29741L48.5395 4.33803L48.4305 4.3701L48.3314 4.42583L48.8217 5.29741ZM48.8224 5.2972L48.7388 4.30069L48.6377 4.30918L48.5403 4.33782L48.8224 5.2972ZM48.8233 5.29712L48.8471 4.29741L48.7933 4.29612L48.7397 4.30062L48.8233 5.29712ZM48.9904 5.3011L48.9666 6.30082L48.9904 6.30139L49.0142 6.30082L48.9904 5.3011ZM49.1575 5.29712L49.1338 4.2974L49.1337 4.29741L49.1575 5.29712ZM49.1611 5.29906L50.0133 4.77584L50.0117 4.77329L49.1611 5.29906ZM49.1617 5.3012H48.1617V5.32528L48.1629 5.34934L49.1617 5.3012ZM49.1617 5.30159L48.1629 5.34973L48.164 5.37311L48.1662 5.3964L49.1617 5.30159ZM49.1627 5.3039L49.9115 4.64106L49.9106 4.6401L49.1627 5.3039ZM49.1657 5.30528L49.1417 6.30499L49.1419 6.30499L49.1657 5.30528ZM74.6995 5.91332L74.6757 6.91304L74.6995 5.91332ZM75.1333 6.18661L74.2419 6.63974L74.2419 6.63976L75.1333 6.18661ZM82.5512 20.7791L81.6598 21.2323L82.5512 20.7791ZM15.4296 20.7791L16.321 21.2323L15.4296 20.7791ZM22.8475 6.18661L21.956 5.73346H21.956L22.8475 6.18661ZM23.2813 5.91332L23.2575 4.91361L23.2813 5.91332ZM33.1361 41.5976V40.5976H32.1361V41.5976H33.1361ZM64.8627 41.5976H65.8627V40.5976H64.8627V41.5976ZM33.1361 45.1228H32.1361V46.1228H33.1361V45.1228ZM64.8627 45.1228V46.1228H65.8627V45.1228H64.8627ZM43.3866 -0.958573C42.8195 -0.921031 40.4202 -0.798431 38.0495 -0.686185L38.1441 1.31158C40.5075 1.19967 42.9285 1.07613 43.5187 1.03706L43.3866 -0.958573ZM62.9192 -0.690338C58.9618 -0.894499 45.3083 -1.08596 43.3865 -0.958568L43.5188 1.03705C45.3159 0.917922 58.8705 1.10345 62.8161 1.30701L62.9192 -0.690338ZM74.7191 0.377014C72.9721 0.0188152 67.8832 -0.434361 62.9192 -0.690339L62.8162 1.30701C67.8034 1.56418 72.7422 2.01329 74.3173 2.33625L74.7191 0.377014ZM77.0364 1.22992C76.7531 1.03837 76.3475 0.866387 75.9757 0.733155C75.5823 0.59218 75.1346 0.462257 74.7191 0.377029L74.3173 2.33624C74.6284 2.40006 74.9846 2.50254 75.301 2.61591C75.639 2.73703 75.849 2.84134 75.916 2.88664L77.0364 1.22992ZM85.6967 14.9734C83.8032 11.1849 82.1082 8.08586 80.6764 5.78802C79.9609 4.63964 79.3029 3.67814 78.7114 2.92563C78.1329 2.18967 77.5701 1.59084 77.0363 1.22992L75.916 2.88665C76.1865 3.0696 76.595 3.4695 77.139 4.16158C77.67 4.83712 78.2856 5.73298 78.979 6.8457C80.365 9.07008 82.0288 12.1083 83.9077 15.8676L85.6967 14.9734ZM85.8146 15.2094L85.6968 14.9735L83.9077 15.8675L84.0256 16.1034L85.8146 15.2094ZM87.8391 19.6084C88.1462 19.5962 88.2869 19.7805 88.2225 19.7118C88.1586 19.6435 88.0347 19.4763 87.8238 19.113C87.4095 18.3995 86.8066 17.1944 85.8146 15.2094L84.0256 16.1034C85.0007 18.0547 85.6398 19.3347 86.0942 20.1173C86.3177 20.5022 86.535 20.8359 86.763 21.0792C86.9905 21.322 87.3738 21.6284 87.9184 21.6068L87.8391 19.6084ZM87.7836 19.5108C87.7257 19.5604 87.6841 19.5959 87.6468 19.6262C87.6098 19.6562 87.5908 19.6697 87.5833 19.6747C87.5756 19.6799 87.5941 19.6664 87.6339 19.6505C87.6766 19.6334 87.7473 19.612 87.8391 19.6084L87.9184 21.6068C88.2686 21.5929 88.5348 21.4437 88.6895 21.341C88.841 21.2404 88.988 21.1125 89.0841 21.0302L87.7836 19.5108ZM87.821 19.4788L87.7839 19.5106L89.0838 21.0305L89.121 20.9987L87.821 19.4788ZM88.3601 18.2425C88.3601 18.7148 88.1205 19.2231 87.8217 19.4782L89.1203 20.9993C89.893 20.3396 90.3601 19.261 90.3601 18.2425H88.3601ZM92.8848 16.0381C92.1309 16.0127 91.5065 16.0031 90.999 16.0243C90.5046 16.0448 90.0444 16.0963 89.6548 16.2308C89.2297 16.3775 88.8414 16.641 88.6018 17.0895C88.3895 17.4869 88.3601 17.9147 88.3601 18.2425H90.3601C90.3601 18.0022 90.3922 17.9827 90.3659 18.0319C90.3123 18.1322 90.2346 18.1465 90.3074 18.1213C90.4158 18.0839 90.6409 18.0409 91.0822 18.0225C91.5103 18.0047 92.072 18.0118 92.8175 18.037L92.8848 16.0381ZM98.2527 17.7118C97.7233 17.088 97.1028 16.6736 96.2106 16.4195C95.378 16.1824 94.3105 16.0861 92.8848 16.0381L92.8175 18.037C94.2329 18.0847 95.0856 18.1786 95.6627 18.343C96.1802 18.4904 96.4587 18.6888 96.7279 19.006L98.2527 17.7118ZM98.1224 21.9391C98.7255 21.3787 98.987 20.5903 98.9995 19.856C99.0121 19.1175 98.7772 18.3297 98.2527 17.7118L96.7279 19.006C96.9022 19.2113 97.0051 19.5108 96.9998 19.822C96.9944 20.1374 96.8823 20.3612 96.761 20.4739L98.1224 21.9391ZM90.8621 24.3143C94.3957 23.9197 96.6875 23.2722 98.1224 21.9391L96.7611 20.4738C95.8466 21.3234 94.1574 21.9339 90.6401 22.3267L90.8621 24.3143ZM88.9056 24.5328L90.8621 24.3143L90.6401 22.3267L88.6837 22.5451L88.9056 24.5328ZM91.4981 26.375L89.6706 23.0566L87.9187 24.0214L89.7462 27.3398L91.4981 26.375ZM96.2064 37.2715C95.5728 34.0253 94.9698 32.6788 91.4981 26.375L89.7462 27.3398C93.2134 33.6353 93.6751 34.7427 94.2435 37.6546L96.2064 37.2715ZM96.2062 49.9887C96.4326 48.2374 96.5436 45.6433 96.5457 43.2258C96.5477 40.831 96.4435 38.4861 96.2064 37.2715L94.2435 37.6546C94.4387 38.6549 94.5477 40.819 94.5457 43.2241C94.5437 45.6066 94.4333 48.1038 94.2227 49.7322L96.2062 49.9887ZM93.4654 60.5902C94.0818 59.7896 94.5846 58.398 95.0158 56.6808C95.4591 54.9158 95.8615 52.6547 96.2062 49.9886L94.2227 49.7322C93.8839 52.3532 93.4936 54.531 93.0761 56.1937C92.6465 57.9041 92.2204 58.9289 91.8807 59.3701L93.4654 60.5902ZM92.8141 61.4361L93.4654 60.5902L91.8807 59.3701L91.2294 60.216L92.8141 61.4361ZM93.0775 64.9559L93.0217 60.8126L91.0219 60.8395L91.0777 64.9829L93.0775 64.9559ZM92.5428 70.2434C92.6603 70.0838 92.8 69.8789 92.902 69.5842C92.9969 69.3098 93.0411 69.0108 93.0661 68.6675C93.1147 67.9989 93.1039 66.9006 93.0775 64.9558L91.0777 64.9829C91.1047 66.9762 91.112 67.9628 91.0714 68.5225C91.0517 68.7933 91.0244 68.8942 91.012 68.9302C91.0065 68.9458 91.003 68.9616 90.9322 69.0576L92.5428 70.2434ZM85.917 71.8517C88.1366 71.8517 89.5108 71.8317 90.4226 71.6436C90.9139 71.5422 91.3314 71.3824 91.7034 71.1168C92.0642 70.8592 92.3216 70.5437 92.5427 70.2435L90.9323 69.0575C90.7478 69.3081 90.6406 69.4182 90.5413 69.4891C90.4532 69.552 90.315 69.6236 90.0184 69.6848C89.3544 69.8219 88.224 69.8517 85.917 69.8517V71.8517ZM78.7964 65.7637C78.7965 66.9978 78.7977 68.0268 78.9095 68.825C79.0233 69.6381 79.2758 70.4136 79.9426 70.9679C80.5717 71.4909 81.4068 71.6744 82.3051 71.7613C83.2223 71.85 84.419 71.8517 85.917 71.8517V69.8517C84.3818 69.8517 83.2967 69.8478 82.4976 69.7706C81.6796 69.6915 81.3638 69.5486 81.2211 69.43C81.1162 69.3427 80.976 69.1614 80.8901 68.5477C80.8021 67.919 80.7965 67.0511 80.7964 65.7635L78.7964 65.7637ZM78.796 62.6662L78.7964 65.7637L80.7964 65.7635L80.796 62.666L78.796 62.6662ZM63.6877 63.7797L79.8031 63.6661L79.789 61.6661L63.6736 61.7797L63.6877 63.7797ZM33.186 64.008C41.0985 63.9448 54.8245 63.842 63.6876 63.7797L63.6736 61.7797C54.8099 61.8421 41.0833 61.9449 33.17 62.008L33.186 64.008ZM18.7986 64.1229L33.186 64.008L33.17 62.008L18.7826 62.123L18.7986 64.1229ZM19.9029 65.7602L19.7897 63.0807L17.7915 63.1651L17.9047 65.8447L19.9029 65.7602ZM18.692 71.3017C19.2724 70.7501 19.6372 70.1414 19.8105 69.2228C19.9676 68.3899 19.9677 67.2935 19.9029 65.7603L17.9047 65.8446C17.9703 67.3971 17.9539 68.2754 17.8452 68.852C17.7525 69.3429 17.6018 69.5786 17.3141 69.8521L18.692 71.3017ZM18.1031 71.8615L18.692 71.3017L17.3141 69.8521L16.7252 70.4119L18.1031 71.8615ZM12.8948 72.1888L17.4256 72.1366L17.4026 70.1368L12.8717 70.1889L12.8948 72.1888ZM7.19703 71.7055C7.38027 71.8178 7.59539 71.9378 7.89318 72.0258C8.17322 72.1086 8.48238 72.1503 8.85529 72.1746C9.58454 72.2221 10.7748 72.2131 12.8947 72.1888L12.8718 70.1889C10.7104 70.2137 9.61797 70.22 8.9852 70.1788C8.67711 70.1588 8.53544 70.1301 8.46012 70.1079C8.40254 70.0909 8.35776 70.0711 8.24184 70.0001L7.19703 71.7055ZM5.53541 65.4313C5.53541 67.4849 5.5624 68.8022 5.75464 69.6825C5.85771 70.1544 6.0198 70.5663 6.2924 70.9257C6.56135 71.2803 6.88716 71.5156 7.19691 71.7054L8.24196 70.0002C8.02396 69.8666 7.9379 69.7857 7.88589 69.7171C7.83754 69.6534 7.76959 69.5351 7.70859 69.2558C7.57268 68.6334 7.53541 67.5634 7.53541 65.4313H5.53541ZM5.53541 61.705V65.4313H7.53541V61.705H5.53541ZM5.18449 61.688L5.78683 62.3681L7.28398 61.042L6.68163 60.3619L5.18449 61.688ZM2.88989 56.1655C3.52021 58.9118 4.11312 60.4781 5.18439 61.6879L6.68173 60.3621C5.96567 59.5534 5.45872 58.4174 4.83921 55.7181L2.88989 56.1655ZM1.8436 37.3238C0.967645 42.1938 1.40146 49.682 2.8899 56.1656L4.8392 55.7181C3.38994 49.4052 2.99819 42.2024 3.81201 37.6778L1.8436 37.3238ZM5.82639 27.7992C3.09966 32.8959 2.31092 34.7264 1.84361 37.3237L3.812 37.6779C4.21808 35.4209 4.86509 33.8357 7.58988 28.7426L5.82639 27.7992ZM8.21334 23.5429C8.21334 23.4404 8.22952 23.3616 8.23547 23.3339C8.24337 23.297 8.25181 23.2679 8.25688 23.2514C8.26699 23.2183 8.27662 23.1932 8.28062 23.1829C8.28939 23.1604 8.29679 23.144 8.29835 23.1405C8.30273 23.1308 8.30496 23.1265 8.30207 23.1324C8.29742 23.1419 8.28784 23.161 8.2718 23.1924C8.24048 23.2536 8.19281 23.3455 8.12959 23.4663C8.00358 23.7072 7.82055 24.0541 7.59379 24.4821C7.1405 25.3376 6.51484 26.5122 5.82637 27.7992L7.5899 28.7426C8.27922 27.454 8.90617 26.277 9.36103 25.4185C9.58834 24.9895 9.77328 24.639 9.90172 24.3934C9.96572 24.2711 10.0169 24.1726 10.0526 24.1027C10.0701 24.0685 10.0861 24.0369 10.0986 24.0112C10.1043 23.9996 10.1131 23.9816 10.1218 23.9622C10.1255 23.9539 10.1346 23.9337 10.1444 23.9083C10.149 23.8967 10.159 23.8704 10.1694 23.8364C10.1746 23.8194 10.1831 23.79 10.1911 23.7528C10.1971 23.7247 10.2133 23.6456 10.2133 23.5429H8.21334ZM7.59886 24.3681C8.01359 24.4024 8.38657 24.4382 8.65203 24.4679C8.78665 24.4829 8.88406 24.4954 8.94262 24.5043C8.97551 24.5092 8.97768 24.5104 8.96287 24.507C8.96148 24.5067 8.91767 24.4974 8.85969 24.4761C8.83723 24.4678 8.75636 24.4379 8.66354 24.3771C8.61745 24.3469 8.52625 24.2822 8.43768 24.1735C8.34781 24.0632 8.21334 23.8472 8.21334 23.5429H10.2133C10.2133 23.238 10.0785 23.0211 9.988 22.91C9.89875 22.8005 9.80655 22.7349 9.75914 22.7039C9.66365 22.6413 9.5788 22.6096 9.55109 22.5994C9.4826 22.5741 9.42315 22.5606 9.40126 22.5557C9.34545 22.5431 9.28716 22.5336 9.24224 22.5268C9.14517 22.5121 9.01753 22.4963 8.87444 22.4803C8.58446 22.4478 8.19136 22.4102 7.7635 22.3749L7.59886 24.3681ZM-0.130511 21.9424C0.592837 22.6289 1.73988 23.1557 3.02427 23.5442C4.33898 23.9418 5.91432 24.2288 7.59878 24.3681L7.76358 22.3749C6.1934 22.2451 4.76007 21.9797 3.60329 21.6298C2.41618 21.2708 1.6289 20.8549 1.24626 20.4917L-0.130511 21.9424ZM-0.253064 17.7117C-0.777402 18.3294 -1.01209 19.1164 -0.999518 19.8558C-0.987005 20.5916 -0.725722 21.3774 -0.130575 21.9424L1.24632 20.4918C1.11766 20.3697 1.00556 20.1377 1.00019 19.8218C0.994881 19.5094 1.0978 19.2108 1.27164 19.0061L-0.253064 17.7117ZM5.11474 16.0381C3.68905 16.0861 2.62154 16.1824 1.78899 16.4195C0.896785 16.6736 0.276265 17.088 -0.25314 17.7118L1.27172 19.006C1.54091 18.6888 1.81941 18.4904 2.33685 18.343C2.91395 18.1786 3.76671 18.0847 5.18211 18.037L5.11474 16.0381ZM9.64026 18.2794C9.63994 17.9491 9.61317 17.5202 9.41157 17.1224C9.18052 16.6664 8.79713 16.3907 8.36358 16.2364C7.97101 16.0967 7.50711 16.0445 7.01178 16.0237C6.50259 16.0024 5.87447 16.0125 5.11472 16.0381L5.18214 18.037C5.93484 18.0116 6.49928 18.0041 6.92822 18.022C7.37102 18.0405 7.5908 18.0843 7.69294 18.1206C7.75409 18.1424 7.67641 18.1228 7.62755 18.0264C7.60813 17.9881 7.64001 18.0221 7.64026 18.2814L9.64026 18.2794ZM9.86542 19.0693C9.82622 19.0056 9.7642 18.8674 9.71206 18.684C9.65985 18.5004 9.64033 18.3517 9.64026 18.2794L7.64026 18.2814C7.64057 18.5979 7.70522 18.9388 7.78834 19.2311C7.87154 19.5237 7.99601 19.8475 8.16187 20.1171L9.86542 19.0693ZM9.74268 20.0567C10.0649 19.7373 10.4432 19.7861 10.5177 19.7984C10.6211 19.8155 10.675 19.847 10.6575 19.8382C10.6347 19.8266 10.5572 19.779 10.4373 19.6808C10.1943 19.4818 9.96437 19.2302 9.86543 19.0693L8.16186 20.1171C8.41678 20.5316 8.82452 20.9451 9.17007 21.2281C9.34455 21.371 9.54903 21.5187 9.75443 21.6226C9.85109 21.6716 10.0056 21.7408 10.1909 21.7715C10.3475 21.7975 10.7891 21.8356 11.1508 21.477L9.74268 20.0567ZM11.532 16.278C11.0066 17.3716 10.5212 18.3732 10.1626 19.1054C9.98308 19.4719 9.83634 19.7689 9.7326 19.9755C9.68039 20.0795 9.64103 20.1567 9.6146 20.2072C9.60092 20.2333 9.5939 20.2462 9.59185 20.2498C9.59035 20.2525 9.59476 20.2444 9.60302 20.2311C9.60694 20.2248 9.6166 20.2094 9.63041 20.1897C9.63565 20.1822 9.67677 20.1221 9.74267 20.0567L11.1508 21.477C11.2179 21.4104 11.2607 21.3482 11.2681 21.3377C11.284 21.315 11.2961 21.2958 11.303 21.2847C11.3171 21.262 11.3289 21.2412 11.3365 21.2277C11.3525 21.1992 11.3698 21.1665 11.3865 21.1347C11.4209 21.0691 11.4662 20.98 11.5199 20.8729C11.6281 20.6576 11.7782 20.3538 11.9587 19.9851C12.3202 19.2471 12.8079 18.2408 13.3348 17.144L11.532 16.278ZM21.8993 0.872386C21.1294 1.07442 20.4088 1.59116 19.7175 2.28933C19.0163 2.99757 18.2732 3.96675 17.4692 5.19701C15.8605 7.65826 13.9285 11.2881 11.5319 16.278L13.3348 17.1439C15.7235 12.1705 17.6094 8.63807 19.1433 6.29122C19.9105 5.11744 20.5698 4.2711 21.1388 3.69647C21.7177 3.11178 22.1348 2.8783 22.407 2.80688L21.8993 0.872386ZM38.0495 -0.686186C30.3296 -0.320861 24.2717 0.249706 21.8993 0.872393L22.407 2.80687C24.5373 2.24776 30.3717 1.67938 38.144 1.31158L38.0495 -0.686186ZM29.2102 41.8477L26.4706 37.7728L24.8108 38.8887L27.5505 42.9636L29.2102 41.8477ZM27.353 46.1223C28.0218 46.1223 28.6399 45.9864 29.1209 45.6232C29.631 45.2382 29.8498 44.7027 29.8981 44.1989C29.9845 43.2969 29.5474 42.3818 29.2263 41.8724L27.5344 42.9389C27.6421 43.1097 27.7498 43.3228 27.8227 43.5359C27.8987 43.7579 27.9158 43.9183 27.9072 44.0082C27.9035 44.0467 27.8966 44.0555 27.9008 44.0474C27.9028 44.0434 27.9061 44.0381 27.9105 44.0329C27.9149 44.0276 27.9175 44.0258 27.9159 44.027C27.9096 44.0318 27.78 44.1223 27.353 44.1223V46.1223ZM12.6274 46.1223H27.353V44.1223H12.6274V46.1223ZM7.60887 40.4453C8.49654 42.3818 9.34996 43.6401 10.1409 44.4884C10.9456 45.3515 11.6547 45.7562 12.1832 46.0182L13.0716 44.2263C12.6869 44.0356 12.1973 43.7611 11.6037 43.1245C10.9963 42.473 10.2516 41.4108 9.42695 39.6119L7.60887 40.4453ZM7.3779 34.3317C7.02859 34.7935 6.87036 35.3528 6.80306 35.869C6.73445 36.3952 6.75008 36.9561 6.81144 37.4934C6.93342 38.5615 7.25167 39.6661 7.60887 40.4453L9.42695 39.6119C9.1615 39.0328 8.89758 38.1339 8.79852 37.2664C8.74936 36.836 8.74475 36.446 8.78627 36.1275C8.82911 35.799 8.91138 35.6197 8.97301 35.5382L7.3779 34.3317ZM11.1096 32.9353C10.0435 32.7239 9.17518 32.8888 8.51107 33.2499C7.8677 33.5998 7.47618 34.1007 7.28255 34.4847L9.06836 35.3852C9.10304 35.3164 9.2252 35.1382 9.4665 35.007C9.68707 34.887 10.0744 34.769 10.7206 34.8971L11.1096 32.9353ZM24.5173 36.3428L11.1615 32.947L10.6687 34.8854L24.0245 38.2812L24.5173 36.3428ZM26.4706 37.7728C26.1882 37.3528 25.8064 37.0406 25.4879 36.8282C25.1652 36.6129 24.8449 36.4585 24.6194 36.3747L23.9224 38.2493C24.0013 38.2786 24.1832 38.362 24.378 38.4919C24.577 38.6247 24.7279 38.7654 24.8108 38.8887L26.4706 37.7728ZM71.5294 37.7728L68.7897 41.8477L70.4495 42.9636L73.1892 38.8887L71.5294 37.7728ZM73.3806 36.3747C73.1551 36.4585 72.8348 36.6129 72.5121 36.8282C72.1936 37.0406 71.8118 37.3528 71.5294 37.7728L73.1892 38.8887C73.2721 38.7654 73.423 38.6247 73.622 38.4919C73.8168 38.362 73.9987 38.2786 74.0776 38.2493L73.3806 36.3747ZM86.8385 32.947L73.4827 36.3428L73.9755 38.2812L87.3313 34.8854L86.8385 32.947ZM90.7175 34.4847C90.5238 34.1007 90.1323 33.5998 89.4889 33.2499C88.8248 32.8888 87.9565 32.7239 86.8904 32.9353L87.2794 34.8971C87.9256 34.769 88.3129 34.887 88.5335 35.007C88.7748 35.1382 88.897 35.3164 88.9316 35.3852L90.7175 34.4847ZM90.3911 40.4453C90.7483 39.6661 91.0666 38.5615 91.1886 37.4934C91.2499 36.9561 91.2655 36.3952 91.1969 35.869C91.1296 35.3528 90.9714 34.7935 90.6221 34.3317L89.027 35.5382C89.0886 35.6197 89.1709 35.799 89.2137 36.1275C89.2552 36.446 89.2506 36.836 89.2015 37.2664C89.1024 38.1339 88.8385 39.0328 88.573 39.6119L90.3911 40.4453ZM85.8168 46.0182C86.3453 45.7562 87.0544 45.3515 87.8591 44.4884C88.65 43.64 89.5034 42.3818 90.3911 40.4453L88.573 39.6119C87.7484 41.4108 87.0037 42.473 86.3963 43.1245C85.8027 43.7611 85.3131 44.0356 84.9284 44.2263L85.8168 46.0182ZM70.647 46.1223H85.3726V44.1223H70.647V46.1223ZM68.7737 41.8724C68.4526 42.3818 68.0155 43.2969 68.1019 44.1989C68.1502 44.7027 68.369 45.2382 68.8791 45.6232C69.3601 45.9864 69.9782 46.1223 70.647 46.1223V44.1223C70.22 44.1223 70.0904 44.0318 70.0841 44.027C70.0825 44.0258 70.0851 44.0276 70.0895 44.0329C70.0939 44.0381 70.0972 44.0434 70.0992 44.0474C70.1034 44.0555 70.0965 44.0467 70.0928 44.0082C70.0842 43.9183 70.1013 43.7579 70.1773 43.5359C70.2502 43.3228 70.3579 43.1097 70.4656 42.9389L68.7737 41.8724ZM47.8191 5.3012C47.8191 4.76025 48.2508 4.31847 48.7912 4.30556L48.839 6.30499C49.3839 6.29198 49.8191 5.84657 49.8191 5.3012H47.8191ZM47.8288 5.16253L47.8286 5.16365L49.8096 5.43874L49.8098 5.43762L47.8288 5.16253ZM47.8877 4.93655L47.8874 4.93727L49.7511 5.66288L49.7514 5.66216L47.8877 4.93655ZM48.2183 4.49978C48.0993 4.58958 47.9993 4.70674 47.9288 4.84489L49.7103 5.75383C49.6404 5.89085 49.5412 6.00704 49.4232 6.09609L48.2183 4.49978ZM48.3314 4.42583L48.3305 4.42636L49.311 6.16951L49.3119 6.16898L48.3314 4.42583ZM48.5403 4.33782L48.5395 4.33803L49.1038 6.25678L49.1045 6.25657L48.5403 4.33782ZM48.7397 4.30062L48.7388 4.30069L48.906 6.2937L48.9069 6.29362L48.7397 4.30062ZM49.0142 4.30139L48.8471 4.29741L48.7995 6.29684L48.9666 6.30082L49.0142 4.30139ZM49.1337 4.29741L48.9666 4.30139L49.0142 6.30082L49.1813 6.29684L49.1337 4.29741ZM50.0117 4.77329C49.8321 4.48275 49.5048 4.2886 49.1338 4.2974L49.1812 6.29684C48.8132 6.30558 48.4886 6.11299 48.3105 5.82483L50.0117 4.77329ZM50.1617 5.3012C50.1617 5.11003 50.1073 4.92896 50.0133 4.77584L48.3089 5.82228C48.2156 5.6704 48.1617 5.4908 48.1617 5.3012H50.1617ZM50.1606 5.25346L50.1605 5.25306L48.1629 5.34934L48.1629 5.34973L50.1606 5.25346ZM49.9106 4.6401C50.0438 4.79017 50.1362 4.98625 50.1572 5.20679L48.1662 5.3964C48.1874 5.6187 48.2805 5.81638 48.4148 5.9677L49.9106 4.6401ZM49.1896 4.30556C49.4778 4.31246 49.7357 4.44246 49.9115 4.64106L48.414 5.96675C48.5912 6.16698 48.8512 6.29803 49.1417 6.30499L49.1896 4.30556ZM74.7233 4.91361L49.1895 4.30556L49.1419 6.30499L74.6757 6.91304L74.7233 4.91361ZM76.0248 5.73348C75.7747 5.24161 75.2749 4.92674 74.7233 4.91361L74.6757 6.91304C74.4919 6.90866 74.3252 6.80371 74.2419 6.63974L76.0248 5.73348ZM83.4427 20.326L76.0247 5.73346L74.2419 6.63976L81.6598 21.2323L83.4427 20.326ZM82.1055 22.5057C83.2249 22.5057 83.9499 21.3239 83.4427 20.326L81.6598 21.2323C81.4907 20.8996 81.7324 20.5057 82.1055 20.5057V22.5057ZM49.1617 22.5057H82.1055V20.5057H49.1617V22.5057ZM48.8191 22.5057H49.1617V20.5057H48.8191V22.5057ZM15.8753 22.5057H48.8191V20.5057H15.8753V22.5057ZM14.5381 20.326C14.0309 21.3239 14.7559 22.5057 15.8753 22.5057V20.5057C16.2484 20.5057 16.4901 20.8996 16.321 21.2323L14.5381 20.326ZM21.956 5.73346L14.5381 20.326L16.321 21.2323L23.7389 6.63976L21.956 5.73346ZM23.2575 4.91361C22.7059 4.92674 22.2061 5.24162 21.956 5.73346L23.7389 6.63976C23.6556 6.8037 23.489 6.90866 23.3051 6.91304L23.2575 4.91361ZM48.7913 4.30556L23.2575 4.91361L23.3051 6.91304L48.8389 6.30499L48.7913 4.30556ZM30.111 50.467C29.2826 50.467 28.611 51.1386 28.611 51.967H30.611C30.611 52.2431 30.3871 52.467 30.111 52.467V50.467ZM67.888 50.467H30.111V52.467H67.888V50.467ZM69.388 51.967C69.388 51.1386 68.7164 50.467 67.888 50.467V52.467C67.6118 52.467 67.388 52.2431 67.388 51.967H69.388ZM69.388 57.3123V51.967H67.388V57.3123H69.388ZM67.888 58.8123C68.7164 58.8123 69.388 58.1407 69.388 57.3123H67.388C67.388 57.0362 67.6118 56.8123 67.888 56.8123V58.8123ZM30.111 58.8123H67.888V56.8123H30.111V58.8123ZM28.611 57.3123C28.611 58.1407 29.2826 58.8123 30.111 58.8123V56.8123C30.3871 56.8123 30.611 57.0362 30.611 57.3123H28.611ZM28.611 51.967V57.3123H30.611V51.967H28.611ZM33.1361 42.5976H64.8627V40.5976H33.1361V42.5976ZM34.1361 45.1228V41.5976H32.1361V45.1228H34.1361ZM64.8627 44.1228H33.1361V46.1228H64.8627V44.1228ZM63.8627 41.5976V45.1228H65.8627V41.5976H63.8627ZM84.6058 60.2227C87.8838 60.2227 90.5411 57.5654 90.5411 54.2875H88.5411C88.5411 56.4609 86.7792 58.2227 84.6058 58.2227V60.2227ZM78.6706 54.2875C78.6706 57.5654 81.3279 60.2227 84.6058 60.2227V58.2227C82.4324 58.2227 80.6706 56.4609 80.6706 54.2875H78.6706ZM84.6058 48.3522C81.3279 48.3522 78.6706 51.0095 78.6706 54.2875H80.6706C80.6706 52.1141 82.4324 50.3522 84.6058 50.3522V48.3522ZM90.5411 54.2875C90.5411 51.0095 87.8838 48.3522 84.6058 48.3522V50.3522C86.7792 50.3522 88.5411 52.1141 88.5411 54.2875H90.5411ZM16.8161 54.2875C16.8161 56.4609 15.0543 58.2227 12.8809 58.2227V60.2227C16.1588 60.2227 18.8161 57.5654 18.8161 54.2875H16.8161ZM12.8809 50.3522C15.0543 50.3522 16.8161 52.1141 16.8161 54.2875H18.8161C18.8161 51.0095 16.1588 48.3522 12.8809 48.3522V50.3522ZM8.94564 54.2875C8.94564 52.1141 10.7075 50.3522 12.8809 50.3522V48.3522C9.60294 48.3522 6.94564 51.0095 6.94564 54.2875H8.94564ZM12.8809 58.2227C10.7075 58.2227 8.94564 56.4609 8.94564 54.2875H6.94564C6.94564 57.5654 9.60294 60.2227 12.8809 60.2227V58.2227Z" fill="url(#paint0_angular_245_24)" mask="url(#path-1-inside-1_245_24)"/>
<defs>
<radialGradient id="paint0_angular_245_24" cx="0" cy="0" r="1" gradientUnits="userSpaceOnUse" gradientTransform="translate(49 35.6043) rotate(90) scale(35.6043 49)">
<stop offset="0.109375" stop-color="#A9BAC9"/>
<stop offset="0.276042" stop-color="#A8C2EA"/>
<stop offset="0.458333" stop-color="#9A9BAA"/>
<stop offset="0.614583" stop-color="#9BABC3"/>
<stop offset="0.807292" stop-color="#9DACD1"/>
<stop offset="1" stop-color="#89939F"/>
</radialGradient>
</defs>
</svg>
