<svg width="86" height="85" viewBox="0 0 86 85" fill="none" xmlns="http://www.w3.org/2000/svg">
<path fill-rule="evenodd" clip-rule="evenodd" d="M1.02437 82.9185L6.81043 10.1359C6.81043 3.55805 11.9875 1 14.7282 1H55.8397C61.1994 1.48725 62.9454 6.27851 63.1484 8.61324L69.239 83.223C69.239 83.9539 68.63 84.3396 68.3254 84.4411H50.3582C49.3837 84.4411 48.937 83.629 48.8355 83.223L47.3129 74.6962H22.9505L21.4279 82.9185C21.4279 84.1366 20.4128 84.4411 19.9052 84.4411H2.54702C1.08528 84.4411 0.922862 83.426 1.02437 82.9185ZM40.2848 10.7449H40.5893V10.7538C43.3067 10.9114 45.4618 13.165 45.4618 15.9219C45.4618 18.6789 43.3067 20.9325 40.5893 21.0901V21.099H40.2848H29.6262V21.0902C29.5254 21.096 29.4239 21.099 29.3216 21.099C26.4624 21.099 24.1446 18.7812 24.1446 15.922C24.1446 13.0628 26.4624 10.745 29.3216 10.745C29.4239 10.745 29.5254 10.748 29.6262 10.7538V10.7449H40.2848ZM34.8031 64.3421C43.717 64.3421 50.9432 57.116 50.9432 48.202C50.9432 39.2881 43.717 32.062 34.8031 32.062C25.8892 32.062 18.663 39.2881 18.663 48.202C18.663 57.116 25.8892 64.3421 34.8031 64.3421ZM34.8032 59.4179C37.2855 59.4179 39.5794 58.6116 41.4373 57.2465L25.7587 41.5679C24.3936 43.4258 23.5873 45.7197 23.5873 48.2019C23.5873 54.3964 28.6088 59.4179 34.8032 59.4179ZM28.819 38.7141L44.2911 54.1862C45.3857 52.4544 46.0192 50.4022 46.0192 48.2019C46.0192 42.0075 40.9977 36.986 34.8032 36.986C32.603 36.986 30.5508 37.6195 28.819 38.7141Z" fill="white"/>
<path d="M6.81043 10.1359L7.30886 10.1755L7.31043 10.1557V10.1359H6.81043ZM1.02437 82.9185L1.51466 83.0165L1.52046 82.9875L1.5228 82.9581L1.02437 82.9185ZM55.8397 1L55.885 0.502053L55.8624 0.5H55.8397V1ZM63.1484 8.61324L63.6468 8.57256L63.6465 8.56992L63.1484 8.61324ZM69.239 83.223H69.739V83.2026L69.7374 83.1823L69.239 83.223ZM68.3254 84.4411V84.9411H68.4066L68.4835 84.9154L68.3254 84.4411ZM48.8355 83.223L48.3433 83.3109L48.3463 83.3277L48.3505 83.3442L48.8355 83.223ZM47.3129 74.6962L47.8051 74.6083L47.7315 74.1962H47.3129V74.6962ZM22.9505 74.6962V74.1962H22.5346L22.4589 74.6051L22.9505 74.6962ZM21.4279 82.9185L20.9362 82.8274L20.9279 82.8726V82.9185H21.4279ZM40.5893 10.7449H41.0893V10.2449H40.5893V10.7449ZM40.5893 10.7538H40.0893V11.2256L40.5603 11.2529L40.5893 10.7538ZM40.5893 21.0901L40.5603 20.591L40.0893 20.6183V21.0901H40.5893ZM40.5893 21.099V21.599H41.0893V21.099H40.5893ZM29.6262 21.099H29.1262V21.599H29.6262V21.099ZM29.6262 21.0902H30.1262V20.5603L29.5973 20.591L29.6262 21.0902ZM29.6262 10.7538L29.5973 11.253L30.1262 11.2837V10.7538H29.6262ZM29.6262 10.7449V10.2449H29.1262V10.7449H29.6262ZM41.4373 57.2465L41.7333 57.6495L42.2026 57.3047L41.7909 56.893L41.4373 57.2465ZM25.7587 41.5679L26.1122 41.2143L25.7005 40.8026L25.3557 41.2718L25.7587 41.5679ZM44.2911 54.1862L43.9375 54.5398L44.3797 54.9819L44.7138 54.4533L44.2911 54.1862ZM28.819 38.7141L28.5518 38.2914L28.0233 38.6255L28.4654 39.0676L28.819 38.7141ZM6.31201 10.0963L0.525944 82.8788L1.5228 82.9581L7.30886 10.1755L6.31201 10.0963ZM14.7282 0.5C13.2277 0.5 11.1314 1.18974 9.4085 2.72832C7.66804 4.28258 6.31043 6.70108 6.31043 10.1359H7.31043C7.31043 6.99286 8.54134 4.84341 10.0746 3.47419C11.6254 2.08929 13.488 1.5 14.7282 1.5V0.5ZM55.8397 0.5H14.7282V1.5H55.8397V0.5ZM63.6465 8.56992C63.5384 7.32645 63.0254 5.45434 61.8317 3.81902C60.6268 2.16841 58.7267 0.760393 55.885 0.502053L55.7944 1.49795C58.3124 1.72685 59.9652 2.95809 61.024 4.40861C62.0939 5.87441 62.5554 7.5653 62.6503 8.65655L63.6465 8.56992ZM69.7374 83.1823L63.6468 8.57256L62.6501 8.65392L68.7407 83.2637L69.7374 83.1823ZM68.4835 84.9154C68.7054 84.8415 69.0066 84.6782 69.259 84.4123C69.5195 84.1379 69.739 83.7405 69.739 83.223H68.739C68.739 83.4363 68.6539 83.5972 68.5338 83.7238C68.4056 83.8588 68.25 83.9392 68.1673 83.9668L68.4835 84.9154ZM50.3582 84.9411H68.3254V83.9411H50.3582V84.9411ZM48.3505 83.3442C48.477 83.8503 49.0484 84.9411 50.3582 84.9411V83.9411C49.719 83.9411 49.3971 83.4078 49.3206 83.1017L48.3505 83.3442ZM46.8207 74.7841L48.3433 83.3109L49.3277 83.1351L47.8051 74.6083L46.8207 74.7841ZM22.9505 75.1962H47.3129V74.1962H22.9505V75.1962ZM21.9195 83.0095L23.4422 74.7872L22.4589 74.6051L20.9362 82.8274L21.9195 83.0095ZM19.9052 84.9411C20.239 84.9411 20.7286 84.8451 21.149 84.5423C21.595 84.2212 21.9279 83.6905 21.9279 82.9185H20.9279C20.9279 83.3646 20.7532 83.5951 20.5647 83.7308C20.3508 83.8849 20.079 83.9411 19.9052 83.9411V84.9411ZM2.54702 84.9411H19.9052V83.9411H2.54702V84.9411ZM0.534081 82.8204C0.465275 83.1644 0.479528 83.6897 0.782939 84.1467C1.10718 84.635 1.69044 84.9411 2.54702 84.9411V83.9411C1.94186 83.9411 1.71303 83.7396 1.61601 83.5935C1.49816 83.416 1.48196 83.18 1.51466 83.0165L0.534081 82.8204ZM40.5893 10.2449H40.2848V11.2449H40.5893V10.2449ZM41.0893 10.7538V10.7449H40.0893V10.7538H41.0893ZM45.9618 15.9219C45.9618 12.8985 43.5986 10.4275 40.6182 10.2546L40.5603 11.2529C43.0149 11.3953 44.9618 13.4314 44.9618 15.9219H45.9618ZM40.6182 21.5893C43.5986 21.4164 45.9618 18.9453 45.9618 15.9219H44.9618C44.9618 18.4125 43.0149 20.4486 40.5603 20.591L40.6182 21.5893ZM41.0893 21.099V21.0901H40.0893V21.099H41.0893ZM40.2848 21.599H40.5893V20.599H40.2848V21.599ZM29.6262 21.599H40.2848V20.599H29.6262V21.599ZM29.1262 21.0902V21.099H30.1262V21.0902H29.1262ZM29.3216 21.599C29.4335 21.599 29.5448 21.5958 29.6552 21.5893L29.5973 20.591C29.5061 20.5963 29.4142 20.599 29.3216 20.599V21.599ZM23.6446 15.922C23.6446 19.0573 26.1863 21.599 29.3216 21.599V20.599C26.7386 20.599 24.6446 18.505 24.6446 15.922H23.6446ZM29.3216 10.245C26.1863 10.245 23.6446 12.7867 23.6446 15.922H24.6446C24.6446 13.339 26.7386 11.245 29.3216 11.245V10.245ZM29.6552 10.2546C29.5448 10.2482 29.4335 10.245 29.3216 10.245V11.245C29.4142 11.245 29.5061 11.2477 29.5973 11.253L29.6552 10.2546ZM29.1262 10.7449V10.7538H30.1262V10.7449H29.1262ZM40.2848 10.2449H29.6262V11.2449H40.2848V10.2449ZM50.4432 48.202C50.4432 56.8398 43.4409 63.8421 34.8031 63.8421V64.8421C43.9932 64.8421 51.4432 57.3921 51.4432 48.202H50.4432ZM34.8031 32.562C43.4409 32.562 50.4432 39.5643 50.4432 48.202H51.4432C51.4432 39.012 43.9932 31.562 34.8031 31.562V32.562ZM19.163 48.202C19.163 39.5643 26.1653 32.562 34.8031 32.562V31.562C25.6131 31.562 18.163 39.012 18.163 48.202H19.163ZM34.8031 63.8421C26.1653 63.8421 19.163 56.8398 19.163 48.202H18.163C18.163 57.3921 25.6131 64.8421 34.8031 64.8421V63.8421ZM41.1413 56.8436C39.3663 58.1477 37.1754 58.9179 34.8032 58.9179V59.9179C37.3955 59.9179 39.7925 59.0754 41.7333 57.6495L41.1413 56.8436ZM25.4051 41.9214L41.0837 57.6001L41.7909 56.893L26.1122 41.2143L25.4051 41.9214ZM24.0873 48.2019C24.0873 45.8298 24.8575 43.6389 26.1616 41.8639L25.3557 41.2718C23.9298 43.2127 23.0873 45.6097 23.0873 48.2019H24.0873ZM34.8032 58.9179C28.885 58.9179 24.0873 54.1202 24.0873 48.2019H23.0873C23.0873 54.6725 28.3327 59.9179 34.8032 59.9179V58.9179ZM44.6447 53.8326L29.1725 38.3605L28.4654 39.0676L43.9375 54.5398L44.6447 53.8326ZM45.5192 48.2019C45.5192 50.3048 44.914 52.2648 43.8684 53.9191L44.7138 54.4533C45.8574 52.644 46.5192 50.4995 46.5192 48.2019H45.5192ZM34.8032 37.486C40.7215 37.486 45.5192 42.2837 45.5192 48.2019H46.5192C46.5192 41.7314 41.2738 36.486 34.8032 36.486V37.486ZM29.0861 39.1367C30.7403 38.0912 32.7004 37.486 34.8032 37.486V36.486C32.5057 36.486 30.3612 37.1478 28.5518 38.2914L29.0861 39.1367Z" fill="url(#paint0_angular_199_210)"/>
<path d="M74.3725 71.3526L70.4473 23.9476L84.9405 69.8429C85.2424 70.7487 84.3366 71.3526 83.7327 71.3526H74.3725Z" fill="white" stroke="url(#paint1_angular_199_210)"/>
<defs>
<radialGradient id="paint0_angular_199_210" cx="0" cy="0" r="1" gradientUnits="userSpaceOnUse" gradientTransform="translate(35.2611 42.7206) rotate(90) scale(41.7206 34.2611)">
<stop offset="0.0416667" stop-color="#CDD8F4"/>
<stop offset="0.213542" stop-color="#B5D1FD"/>
<stop offset="0.395833" stop-color="#9A9BAA"/>
<stop offset="0.59375" stop-color="#9BABC3"/>
<stop offset="0.791667" stop-color="#ADBFEB"/>
<stop offset="0.942708" stop-color="#89939F"/>
</radialGradient>
<radialGradient id="paint1_angular_199_210" cx="0" cy="0" r="1" gradientUnits="userSpaceOnUse" gradientTransform="translate(77.7541 47.6501) rotate(90) scale(23.7025 7.30682)">
<stop offset="0.0416667" stop-color="#CDD8F4"/>
<stop offset="0.213542" stop-color="#B5D1FD"/>
<stop offset="0.395833" stop-color="#9A9BAA"/>
<stop offset="0.59375" stop-color="#9BABC3"/>
<stop offset="0.791667" stop-color="#ADBFEB"/>
<stop offset="0.942708" stop-color="#89939F"/>
</radialGradient>
</defs>
</svg>
