<svg width="147" height="61" viewBox="0 0 147 61" fill="none" xmlns="http://www.w3.org/2000/svg">
<path fill-rule="evenodd" clip-rule="evenodd" d="M7.59388 15.3311V16.6621L5.71934 16.6637C4.44585 16.6648 3.64289 16.7077 3.21522 16.7976C1.68948 17.1182 0.384884 18.4398 0.0969907 19.9563C-0.0319596 20.6355 -0.0325147 57.0249 0.0964356 57.699C0.374702 59.1543 1.4113 60.3336 2.84114 60.8214C3.34593 60.9937 3.69066 61 12.5001 61C21.3095 61 21.6543 60.9937 22.1591 60.8214C23.5889 60.3336 24.6255 59.1543 24.9038 57.699C25.0317 57.0303 25.0323 20.6383 24.9043 19.9563C24.7012 18.8728 23.8999 17.7876 22.8554 17.1814C22.153 16.7737 21.3862 16.6655 19.1883 16.6637L17.2212 16.6621V15.3311V14L12.4075 14H7.59388V15.3311ZM21.5443 19.6877C21.7073 19.7862 21.9156 20.003 22.0072 20.1693C22.1659 20.4575 22.1737 21.3327 22.1737 38.8932L22.1737 57.3146L21.9828 57.5682C21.8778 57.7076 21.677 57.9068 21.5363 58.0109C21.2823 58.199 21.224 58.2002 12.5001 58.2002C3.77619 58.2002 3.71787 58.199 3.46386 58.0109C3.32325 57.9068 3.12237 57.7076 3.0174 57.5682L2.82652 57.3146L2.82652 38.8932C2.82652 21.3327 2.83429 20.4575 2.99305 20.1693C3.0846 20.003 3.29288 19.7862 3.4559 19.6877C3.74426 19.5133 3.98679 19.5085 12.5001 19.5085C21.0134 19.5085 21.256 19.5133 21.5443 19.6877ZM4.26135 38.877V41.9062H12.5001H20.7389V38.877V35.8477H12.5001H4.26135L4.26135 38.877ZM4.26135 46.3125V49.3418H12.5001H20.7389L20.7389 46.3125V43.2832H12.5001H4.26135L4.26135 46.3125ZM4.26135 53.7021L4.26135 56.6855H12.5001H20.7389V53.7021V50.7188H12.5001H4.26135V53.7021Z" fill="white"/>
<path d="M113.657 7.62501L117.074 3.8125L120.49 7.62501V26.6876L117.074 30.5001L113.657 26.6876V7.62501Z" fill="white"/>
<path d="M76.3281 7.62501L79.7445 3.8125L83.1608 7.62501V26.6876L79.7445 30.5001L76.3281 26.6876V7.62501Z" fill="black"/>
<path d="M39 7.62501L42.4163 3.8125L45.8327 7.62501V26.6876L42.4163 30.5001L39 26.6876V7.62501Z" fill="white"/>
<path d="M113.657 34.3125L117.074 30.5L120.49 34.3125V53.3751L117.074 57.1876L113.657 53.3751V34.3125Z" fill="white"/>
<path d="M76.3281 34.3125L79.7445 30.5L83.1608 34.3125V53.3751L79.7445 57.1876L76.3281 53.3751V34.3125Z" fill="black"/>
<path d="M39 34.3125L42.4163 30.5L45.8327 34.3125V53.3751L42.4163 57.1876L39 53.3751V34.3125Z" fill="white"/>
<path d="M139.28 7.62501L142.697 3.8125L146.113 7.62501V26.6876L142.697 30.5001L139.28 26.6876V7.62501Z" fill="white"/>
<path d="M101.951 7.62501L105.368 3.8125L108.784 7.62501V26.6876L105.368 30.5001L101.951 26.6876V7.62501Z" fill="white"/>
<path d="M64.623 7.62501L68.0394 3.8125L71.4557 7.62501V26.6876L68.0394 30.5001L64.623 26.6876V7.62501Z" fill="white"/>
<path d="M139.28 34.3125L142.697 30.5L146.113 34.3125V53.3751L142.697 57.1876L139.28 53.3751V34.3125Z" fill="white"/>
<path d="M101.951 34.3125L105.368 30.5L108.784 34.3125V53.3751L105.368 57.1876L101.951 53.3751V34.3125Z" fill="white"/>
<path d="M64.623 34.3125L68.0394 30.5L71.4557 34.3125V53.3751L68.0394 57.1876L64.623 53.3751V34.3125Z" fill="white"/>
<path d="M122.198 0L118.781 3.81251L122.198 7.62502H137.571L140.987 3.81251L137.571 0H122.198Z" fill="white"/>
<path d="M84.8685 0L81.4521 3.81251L84.8685 7.62502H100.242L103.658 3.81251L100.242 0H84.8685Z" fill="white"/>
<path d="M47.5404 0L44.124 3.81251L47.5404 7.62502H62.9139L66.3302 3.81251L62.9139 0H47.5404Z" fill="white"/>
<path d="M122.198 53.375L118.781 57.1875L122.198 61H137.571L140.987 57.1875L137.571 53.375H122.198Z" fill="white"/>
<path d="M84.8685 53.375L81.4521 57.1875L84.8685 61H100.242L103.658 57.1875L100.242 53.375H84.8685Z" fill="black"/>
<path d="M47.5404 53.375L44.124 57.1875L47.5404 61H62.9139L66.3302 57.1875L62.9139 53.375H47.5404Z" fill="white"/>
</svg>
